<svg width="16" height="16" viewBox="0 0 16 16" fill="none" xmlns="http://www.w3.org/2000/svg">
<circle cx="8" cy="8" r="7.5" stroke="#2873F0"/>
<path d="M8.50732 6.23702V12H7.09587V6.23702H8.50732ZM7 4.72969C7 4.5202 7.07102 4.34621 7.21305 4.20772C7.35863 4.06924 7.55393 4 7.79893 4C8.04394 4 8.23746 4.06924 8.37949 4.20772C8.52508 4.34621 8.59787 4.5202 8.59787 4.72969C8.59787 4.93564 8.52508 5.10786 8.37949 5.24634C8.23746 5.38482 8.04394 5.45406 7.79893 5.45406C7.55393 5.45406 7.35863 5.38482 7.21305 5.24634C7.07102 5.10786 7 4.93564 7 4.72969Z" fill="#2873F0"/>
</svg>
