<svg width="16" height="16" viewBox="0 0 16 16" fill="none" xmlns="http://www.w3.org/2000/svg">
<path d="M13.7778 1.2971H12.4448V3.31113e-06H11.5555V1.29696L4.44465 1.29709V0H3.55532V1.29696L2.22232 1.29709C0.996632 1.29709 0 2.26681 0 3.45933V13.8378C0 15.0303 0.996668 16 2.22232 16H13.7777C15.0034 16 16 15.0303 16 13.8378V3.45899C16 2.2674 15.0033 1.29688 13.7777 1.29688L13.7778 1.2971ZM15.1117 13.8379C15.1117 14.5532 14.5138 15.1348 13.7787 15.1348H2.22261C1.48744 15.1348 0.889615 14.5531 0.889615 13.8379V5.62144H15.112L15.1117 13.8379ZM15.1117 4.75727H0.888544V3.45934C0.888544 2.74404 1.4864 2.16238 2.22154 2.16238H3.55453V3.02767H4.44468V2.16238H11.5562V3.02767H12.4456V2.16238H13.7786C14.5137 2.16238 15.1116 2.74408 15.1116 3.45934L15.1117 4.75727Z" fill="#2873F0"/>
<path d="M7.11101 9.94601H8.88867C9.37904 9.94601 9.778 9.55798 9.778 9.08072V7.35113C9.778 6.87401 9.37919 6.48584 8.88867 6.48584H7.11101C6.62063 6.48584 6.22168 6.87387 6.22168 7.35113V9.08072C6.22266 9.55798 6.62145 9.94601 7.11101 9.94601ZM7.11101 7.35113H8.88867L8.8895 9.08072H7.11099L7.11101 7.35113Z" fill="#2873F0"/>
<path d="M11.5553 9.94601H13.333C13.8234 9.94601 14.2223 9.55798 14.2223 9.08072V7.35113C14.2223 6.87401 13.8235 6.48584 13.333 6.48584L11.5553 6.48598C11.065 6.48598 10.666 6.874 10.666 7.35126V9.08086C10.667 9.55798 11.0658 9.94601 11.5553 9.94601V9.94601ZM11.5553 7.35113H13.333L13.3338 9.08072H11.5553L11.5553 7.35113Z" fill="#2873F0"/>
<path d="M2.66667 14.2707H4.44433C4.93471 14.2707 5.33366 13.8827 5.33366 13.4054V11.6758C5.33366 11.1987 4.93485 10.8105 4.44433 10.8105H2.66667C2.1763 10.8105 1.77734 11.1986 1.77734 11.6758V13.4054C1.77734 13.8826 2.1763 14.2707 2.66667 14.2707ZM2.66667 11.6758H4.44433L4.44517 13.4054H2.66665L2.66667 11.6758Z" fill="#2873F0"/>
<path d="M7.11101 14.2707H8.88867C9.37904 14.2707 9.778 13.8827 9.778 13.4054V11.6758C9.778 11.1987 9.37919 10.8105 8.88867 10.8105H7.11101C6.62063 10.8105 6.22168 11.1986 6.22168 11.6758V13.4054C6.22266 13.8826 6.62145 14.2707 7.11101 14.2707ZM7.11101 11.6758H8.88867L8.8895 13.4054H7.11099L7.11101 11.6758Z" fill="#2873F0"/>
<path d="M11.5553 14.2707H13.333C13.8234 14.2707 14.2223 13.8827 14.2223 13.4054V11.6758C14.2223 11.1987 13.8235 10.8105 13.333 10.8105H11.5553C11.065 10.8105 10.666 11.1986 10.666 11.6758V13.4054C10.667 13.8826 11.0658 14.2707 11.5553 14.2707ZM11.5553 11.6758H13.333L13.3338 13.4054H11.5553L11.5553 11.6758Z" fill="#2873F0"/>
</svg>
