<svg width="16" height="16" viewBox="0 0 16 16" fill="none" xmlns="http://www.w3.org/2000/svg">
<path d="M9.77793 3.89185H0.888987C0.653221 3.89185 0.427146 3.983 0.260415 4.14522C0.0936829 4.30744 0.00012884 4.52743 0 4.75668V15.135C0.000129038 15.3644 0.0936862 15.5843 0.260415 15.7466C0.427143 15.9088 0.653244 15.9998 0.888987 15.9999H9.77793H9.7778C10.0136 15.9998 10.2396 15.9088 10.4064 15.7466C10.5731 15.5843 10.6667 15.3644 10.6668 15.135V4.75668C10.6667 4.52741 10.5731 4.30742 10.4064 4.14522C10.2396 3.98303 10.0135 3.89185 9.7778 3.89185H9.77793ZM8.88907 14.2702H1.77811V5.62146H8.88907V14.2702Z" fill="#2873F0"/>
<path d="M15.1114 0H6.22248C5.98672 0.00012555 5.76064 0.0911541 5.59391 0.253376C5.42718 0.415598 5.33362 0.635588 5.3335 0.86496V3.02709H7.11122L7.11135 1.72983H14.2223V10.3785L11.5557 10.3784V12.1081H15.1113L15.1112 12.1082C15.347 12.1082 15.573 12.017 15.7398 11.8548C15.9065 11.6926 16.0001 11.4726 16.0002 11.2434V0.865063C16.0001 0.635668 15.9065 0.415705 15.7398 0.253479C15.573 0.091257 15.3469 0.000228232 15.1112 0.000102874L15.1114 0Z" fill="#2873F0"/>
</svg>
