<svg width="16" height="16" viewBox="0 0 16 16" fill="none" xmlns="http://www.w3.org/2000/svg">
<path d="M14.2414 2.2069H10.931V1.65517C10.931 0.742621 10.1884 0 9.27586 0H7.06897C6.15641 0 5.41379 0.742621 5.41379 1.65517V2.2069H2.10345C1.49494 2.2069 1 2.70184 1 3.31034V4.41379C1 5.0223 1.49494 5.51724 2.10345 5.51724H2.65517V14.3448C2.65517 15.2574 3.39779 16 4.31034 16H12.0345C12.947 16 13.6897 15.2574 13.6897 14.3448V5.51724H14.2414C14.8499 5.51724 15.3448 5.0223 15.3448 4.41379V3.31034C15.3448 2.70184 14.8499 2.2069 14.2414 2.2069ZM6.51724 1.65517C6.51724 1.35123 6.76503 1.10345 7.06897 1.10345H9.27586C9.5798 1.10345 9.82759 1.35123 9.82759 1.65517V2.2069H6.51724V1.65517ZM12.5862 14.3448C12.5862 14.6488 12.3384 14.8966 12.0345 14.8966H4.31034C4.0064 14.8966 3.75862 14.6488 3.75862 14.3448V5.51724H12.5862V14.3448ZM13.6897 4.41379H2.10345V3.31034H14.2414V4.41379H13.6897ZM5.96552 12.6897V7.72414C5.96552 7.41958 6.21268 7.17241 6.51724 7.17241C6.8218 7.17241 7.06897 7.41958 7.06897 7.72414V12.6897C7.06897 12.9942 6.8218 13.2414 6.51724 13.2414C6.21268 13.2414 5.96552 12.9942 5.96552 12.6897ZM9.27586 12.6897V7.72414C9.27586 7.41958 9.52303 7.17241 9.82759 7.17241C10.1321 7.17241 10.3793 7.41958 10.3793 7.72414V12.6897C10.3793 12.9942 10.1321 13.2414 9.82759 13.2414C9.52303 13.2414 9.27586 12.9942 9.27586 12.6897Z" fill="#FA646A"/>
</svg>
