<svg width="16" height="16" viewBox="0 0 16 16" fill="none" xmlns="http://www.w3.org/2000/svg">
<path d="M4.05711 0.000324137C2.93737 0.000324137 2 0.951393 2 2.08721V14.2609C2 15.2154 2.77345 16 3.71428 16H13.4857C13.755 16 14 15.7514 14 15.4782V3.65237C13.9983 3.34606 13.7799 3.12794 13.4857 3.13061C12.9909 3.13061 12.4571 2.58919 12.4571 2.08709C12.4571 1.58511 12.9909 1.04357 13.4857 1.04357C13.7574 1.04745 14 0.797549 14 0.521805C14 0.246189 13.7574 -0.0038373 13.4857 4.46145e-05L4.05711 0.000324137ZM4.05711 1.04385H11.7123C11.5327 1.35246 11.4284 1.70961 11.4284 2.08737C11.4284 2.46512 11.5328 2.82214 11.7123 3.13089H4.05711C3.56229 3.13089 3.02848 2.58947 3.02848 2.08737C3.02848 1.58539 3.56229 1.04385 4.05711 1.04385ZM3.02848 3.88612C3.33245 4.06785 3.6852 4.17411 4.05711 4.17411H12.9714V14.9565H3.71425C3.32551 14.9565 3.0286 14.6553 3.0286 14.2609L3.02848 3.88612Z" fill="#2873F0"/>
</svg>
