<svg width="16" height="16" viewBox="0 0 16 16" fill="none" xmlns="http://www.w3.org/2000/svg">
<path d="M9.40723 3.81482H14.125V4.75244H9.40723V3.81482Z" fill="#2873F0"/>
<path d="M9.40723 5.69141H14.125V6.62903H9.40723V5.69141Z" fill="#2873F0"/>
<path d="M9.40723 7.56799H14.125V8.50562H9.40723V7.56799Z" fill="#2873F0"/>
<path d="M9.40723 9.44458H14.125V10.3822H9.40723V9.44458Z" fill="#2873F0"/>
<path d="M9.21558 1.93823C8.7384 1.93823 8.30676 2.13782 8 2.45789C7.69324 2.13782 7.26172 1.93823 6.78442 1.93823H5.79785V1H2.67102V1.93823H0V14.1354H16V1.93823H9.21558ZM9.21558 2.87585H15.0625V11.3212H9.21558C8.94751 11.3212 8.69397 11.3845 8.46875 11.4965V3.62268C8.46875 3.21094 8.80383 2.87585 9.21558 2.87585ZM3.60852 1.9375H4.86035V5.02917L4.23438 4.67297L3.60852 5.02917V1.9375ZM2.67102 2.87585V6.64136L4.23438 5.75171L5.79785 6.64136V2.87585H6.7843C7.19617 2.87585 7.53113 3.21082 7.53113 3.62256V11.4965C7.30591 11.3845 7.05249 11.3212 6.7843 11.3212H0.9375V2.87585H2.67102ZM0.9375 12.2588H6.78442C7.19617 12.2588 7.53125 12.5938 7.53125 13.0056V13.1978H0.9375V12.2588ZM8.46875 13.1979V13.0056C8.46875 12.5938 8.80383 12.2588 9.21558 12.2588H15.0624V13.1979H8.46875Z" fill="#2873F0"/>
</svg>
