<svg width="16" height="16" viewBox="0 0 16 16" fill="none" xmlns="http://www.w3.org/2000/svg">
<path d="M11.5999 9.40625H12.3125V8.46875H12.7812C13.5566 8.46875 14.1875 7.83789 14.1875 7.0625V6.125C14.1875 2.76318 11.4598 0 8.09375 0C4.7323 0 2 2.75891 2 6.125V7.0625C2 7.83789 2.63086 8.46875 3.40625 8.46875H4.11633C4.42236 9.33191 5.00171 10.0668 5.75 10.5686V11.2812H5.28125C3.47192 11.2812 2 12.7532 2 14.5625V16H14.1875V14.5625C14.1875 12.7532 12.7156 11.2812 10.9062 11.2812H10.4375V10.5686C10.8965 10.2607 11.292 9.86523 11.5999 9.40625ZM8.5625 4.25C8.5625 4.40674 8.24304 4.77417 7.36304 5.14368C6.57019 5.47656 5.69861 5.65625 5.28125 5.65625H4.84546C5.07178 4.0509 6.44202 2.8125 8.09375 2.8125C9.74548 2.8125 11.1157 4.0509 11.342 5.65625H9.1156C9.25269 5.32458 9.5 4.82434 9.5 4.25H8.5625ZM12.7812 7.53125H12.3125C12.3125 6.44495 12.3125 6.7572 12.3125 5.65625H12.7812C13.0397 5.65625 13.25 5.86658 13.25 6.125V7.0625C13.25 7.32092 13.0397 7.53125 12.7812 7.53125ZM8.09375 0.9375C10.463 0.9375 12.4639 2.55359 13.0652 4.74756C12.9734 4.72864 12.8784 4.71875 12.7812 4.71875H12.0748C11.4973 3.06433 9.93091 1.875 8.09375 1.875C6.25659 1.875 4.69019 3.06433 4.11267 4.71875H3.40625C3.30908 4.71875 3.21411 4.72864 3.12231 4.74756C3.72363 2.55359 5.72449 0.9375 8.09375 0.9375ZM3.875 7.53125H3.40625C3.14783 7.53125 2.9375 7.32092 2.9375 7.0625V6.125C2.9375 5.86658 3.14783 5.65625 3.40625 5.65625H3.875V7.53125ZM4.8125 7.0625V6.59375H5.28125C5.89941 6.59375 6.90479 6.35291 7.72607 6.00806C7.85876 5.95227 7.98438 5.89502 8.10266 5.83618C8.0957 5.979 8.12476 6.11914 8.2135 6.25354C8.43811 6.59375 8.88452 6.59375 9.03125 6.59375H11.375V7.0625C11.375 7.56543 11.2611 8.04224 11.058 8.46875H8.09375V9.40002H10.3876C9.79553 9.97961 8.98572 10.3438 8.09375 10.3438C6.28442 10.3438 4.8125 8.87183 4.8125 7.0625ZM10.9062 12.2188C12.1986 12.2188 13.25 13.2701 13.25 14.5625V15.0625H2.9375V14.5625C2.9375 13.2701 3.98889 12.2188 5.28125 12.2188H6.02454L8.09375 14.288L10.163 12.2188H10.9062ZM9.5 11.5558L8.09375 12.962L6.6875 11.5558V11.0399C7.12756 11.196 7.60083 11.2812 8.09375 11.2812C8.58667 11.2812 9.05994 11.196 9.5 11.0399V11.5558Z" fill="#2873F0"/>
<path d="M9.96875 13.1562H11.8438V14.0938H9.96875V13.1562Z" fill="#2873F0"/>
</svg>
