<svg width="109" height="19" viewBox="0 0 109 19" fill="none" xmlns="http://www.w3.org/2000/svg">
<rect x="0.0771484" width="108.406" height="18" transform="rotate(0.245763 0.0771484 0)" fill="#2873F0"/>
<path d="M52.7526 7.85799L52.7373 5.79262C52.7266 4.34003 54.0063 3.15292 55.5964 3.14114C57.1861 3.12936 58.4836 4.2985 58.4944 5.74997L58.5097 7.81534L59.0937 7.81101C59.6383 7.80698 60.0833 8.27169 60.0875 8.84631L60.1262 14.0652C60.1305 14.6411 59.6928 15.1111 59.1478 15.1152L52.2228 15.1665C51.6781 15.1705 51.2331 14.7058 51.2289 14.1312L51.1902 8.91223C51.186 8.33638 51.6237 7.86636 52.1687 7.86232L52.7526 7.85799ZM52.2369 8.90526L52.2756 14.1226L59.0797 14.0722L59.041 8.85485L52.2369 8.90526ZM57.4631 7.82309L57.4478 5.75772C57.4415 4.90334 56.6348 4.17691 55.6042 4.18455C54.5729 4.19219 53.7778 4.9297 53.7841 5.78487L53.7994 7.85024L57.4631 7.82309ZM55.1303 10.8584C55.1282 10.5704 55.3587 10.3351 55.6498 10.3329C55.9388 10.3308 56.1748 10.5605 56.177 10.8507L56.1886 12.416C56.1907 12.7041 55.9602 12.9393 55.6691 12.9415C55.38 12.9436 55.144 12.7139 55.1419 12.4238L55.1303 10.8584Z" fill="white" stroke="white" stroke-width="0.2"/>
</svg>
