<svg width="16" height="16" viewBox="0 0 16 16" fill="none" xmlns="http://www.w3.org/2000/svg">
<path d="M1.9448 15.6588H7.53347C8.61206 15.6588 9.49495 14.7926 9.49495 13.714V12.2314C9.49495 11.84 9.17845 11.5234 8.78698 11.5234C8.39551 11.5234 8.07901 11.8399 8.07901 12.2314V13.714C8.07901 14.0138 7.83331 14.2429 7.53347 14.2429H1.9448C1.64496 14.2429 1.4159 14.0138 1.4159 13.714V2.9448C1.4159 2.64496 1.64494 2.4159 1.9448 2.4159H7.53347C7.83331 2.4159 8.07901 2.64494 8.07901 2.9448V4.39821C8.07901 4.78966 8.39551 5.10617 8.78698 5.10617C9.17845 5.10617 9.49495 4.78967 9.49495 4.39821V2.9448C9.49495 1.86621 8.61206 1 7.53347 1H1.9448C0.866209 1 0 1.86621 0 2.9448V13.714C0 14.7926 0.866209 15.6588 1.9448 15.6588Z" fill="#2873F0"/>
<path d="M12.0894 12.015C12.2227 12.1316 12.3893 12.1899 12.5517 12.1899C12.7516 12.1899 12.9473 12.1066 13.0848 11.9442L15.7667 8.85417C15.9083 8.72507 15.9999 8.53767 15.9999 8.32945C15.9999 8.10457 15.8958 7.90469 15.7292 7.77557L13.0473 5.09364C12.7724 4.81878 12.3227 4.81878 12.0478 5.09364C11.7729 5.3685 11.7729 5.81825 12.0478 6.09311L13.5762 7.62148H4.42672C4.03527 7.62148 3.71875 7.93798 3.71875 8.32945C3.71875 8.72092 4.03525 9.03742 4.42672 9.03742H13.7342L12.0184 11.0155C11.7602 11.3112 11.7936 11.761 12.0892 12.015L12.0894 12.015Z" fill="#2873F0"/>
</svg>
