<svg width="19" height="14" viewBox="0 0 19 14" fill="none" xmlns="http://www.w3.org/2000/svg">
<path d="M0 1.64544V1.16667C0 0.857247 0.122916 0.560501 0.341709 0.341709C0.560501 0.122916 0.857247 0 1.16667 0L17.5 0C17.8094 0 18.1062 0.122916 18.325 0.341709C18.5437 0.560501 18.6667 0.857247 18.6667 1.16667V1.64544L9.33333 7.47877L0 1.64544ZM9.6425 8.66148C9.54976 8.71936 9.44265 8.75004 9.33333 8.75004C9.22402 8.75004 9.1169 8.71936 9.02416 8.66148L0 3.02123V12.8333C0 13.1428 0.122916 13.4395 0.341709 13.6583C0.560501 13.8771 0.857247 14 1.16667 14H17.5C17.8094 14 18.1062 13.8771 18.325 13.6583C18.5437 13.4395 18.6667 13.1428 18.6667 12.8333V3.02123L9.6425 8.66148Z" fill="black"/>
</svg>
