<svg width="13" height="8" viewBox="0 0 13 8" fill="none" xmlns="http://www.w3.org/2000/svg">
<path d="M12.2795 4.31886C12.1755 4.46858 9.69906 8 6.5 8C3.30094 8 0.824542 4.4685 0.720477 4.31886L0.5 4L0.720477 3.68114C0.824515 3.53142 3.30094 4.76837e-07 6.5 4.76837e-07C9.69906 4.76837e-07 12.1755 3.5315 12.2795 3.68114L12.5 4L12.2795 4.31886ZM6.5 1.14272C4.42338 1.14272 2.5808 3.1953 1.93827 4.00049C2.57972 4.80617 4.41696 6.85704 6.5 6.85704C8.57662 6.85704 10.4192 4.80446 11.0617 3.99927C10.4203 3.19358 8.58304 1.14272 6.5 1.14272Z" fill="#2873F0"/>
<path d="M6.49967 6.28668C5.20269 6.28668 4.14795 5.26154 4.14795 4.00095C4.14795 2.74036 5.20269 1.71522 6.49967 1.71522C7.79666 1.71522 8.85139 2.74036 8.85139 4.00095C8.85139 5.26154 7.79666 6.28668 6.49967 6.28668ZM6.49967 2.85804C5.85114 2.85804 5.32376 3.37062 5.32376 4.00095C5.32376 4.63128 5.85114 5.14387 6.49967 5.14387C7.1482 5.14387 7.67558 4.63128 7.67558 4.00095C7.67558 3.37062 7.1482 2.85804 6.49967 2.85804Z" fill="#2873F0"/>
</svg>
