<svg width="20" height="22" viewBox="0 0 20 22" fill="none" xmlns="http://www.w3.org/2000/svg">
<path d="M6.00049 10.5238C6.00049 9.99778 6.44814 9.57129 7.00044 9.57129H13.0005C13.5528 9.57129 14.0005 9.99778 14.0005 10.5238C14.0005 11.0498 13.5528 11.4761 13.0005 11.4761H7.00044C6.44814 11.4761 6.00049 11.0498 6.00049 10.5238Z" fill="#2873F0" stroke="#2873F0" stroke-width="0.5"/>
<path d="M6.00049 14.8099C6.00049 14.2839 6.44814 13.8574 7.00044 13.8574H11.5005C12.0528 13.8574 12.5004 14.2839 12.5004 14.8099C12.5004 15.3359 12.0528 15.7622 11.5005 15.7622H7.00044C6.44814 15.7622 6.00049 15.3359 6.00049 14.8099Z" fill="#2873F0" stroke="#2873F0" stroke-width="0.5"/>
<path fill-rule="evenodd" clip-rule="evenodd" d="M7.00006 1C5.89549 1 4.99998 1.85286 4.99998 2.90482H3.00008C1.89551 2.90482 1 3.75767 1 4.80963V19.0953C1 20.1473 1.89551 21 3.00008 21H16.9999C18.1045 21 19 20.1473 19 19.0953V4.80963C19 3.75767 18.1045 2.90482 16.9999 2.90482H15C15 1.85286 14.1045 1 12.9999 1H7.00006ZM13.0001 2.90482H7.00006V4.80963H13.0001V2.90482ZM3.00016 4.80963H5.00007C5.00007 5.86159 5.89558 6.71429 7.00014 6.71429H13.0002C14.1048 6.71429 15.0003 5.86159 15.0003 4.80963H17.0002V19.0953H3.00033L3.00016 4.80963Z" fill="#2873F0" stroke="#2873F0" stroke-width="0.5"/>
</svg>
