<svg width="18" height="18" viewBox="0 0 18 18" fill="none" xmlns="http://www.w3.org/2000/svg">
<path d="M4.99979 8.42896H4.99175C4.67621 8.42896 4.42017 8.68444 4.42017 9.00054C4.42017 9.31653 4.67565 9.57212 4.99175 9.57212H5.00023H12.9997H13.0077C13.3232 9.57212 13.5793 9.31664 13.5793 9.00054C13.5793 8.68454 13.3238 8.42896 13.0077 8.42896H12.9992H4.99979Z" fill="white" stroke="white"/>
<path d="M9.57139 5.00027V4.99224C9.57139 4.6767 9.3159 4.42065 8.99981 4.42065C8.68381 4.42065 8.42822 4.67614 8.42822 4.99224V5.00072V5.00027V13.0003V13.0083C8.42822 13.3239 8.68371 13.5799 8.99981 13.5799C9.3158 13.5799 9.57139 13.3244 9.57139 13.0083V12.9998V13.0003V5.00027Z" fill="white" stroke="white"/>
<path d="M9 1C4.58826 1 1 4.58883 1 9C1 13.4112 4.58883 17 9 17C13.4117 17 17 13.4112 17 9C17 4.58883 13.4112 1 9 1ZM9 2.14305C12.7943 2.14305 15.8576 5.2067 15.8576 9.00069C15.8576 12.7947 12.7946 15.8583 9 15.8583C5.20573 15.8583 2.14237 12.7952 2.14237 9.00069C2.14237 5.20642 5.20544 2.14305 9 2.14305Z" fill="white" stroke="white"/>
</svg>
