<svg width="17" height="17" viewBox="0 0 17 17" fill="none" xmlns="http://www.w3.org/2000/svg">
<path d="M9.4978 1.51253V1.4985C9.4978 0.947287 9.0515 0.5 8.49932 0.5C7.94732 0.5 7.50084 0.946308 7.50084 1.4985V1.51331V15.4875V15.5015C7.50084 16.0527 7.94714 16.5 8.49932 16.5C9.05132 16.5 9.4978 16.0537 9.4978 15.5015V15.4867V1.51253Z" fill="#171717"/>
<path d="M15.4875 9.49894H15.5015C16.0527 9.49894 16.5 9.05264 16.5 8.50045C16.5 7.94844 16.0537 7.50195 15.5015 7.50195H15.4867H15.4875H1.51252H1.49848C0.94728 7.50195 0.499999 7.94826 0.499999 8.50045C0.499999 9.05246 0.946301 9.49894 1.49848 9.49894H1.5133H1.51252H15.4875Z" fill="#171717"/>
</svg>
