<svg width="14" height="14" viewBox="0 0 14 14" fill="none" xmlns="http://www.w3.org/2000/svg">
<path d="M7.74854 1.7594V1.74887C7.74854 1.33546 7.41381 1 6.99967 1C6.58567 1 6.25081 1.33473 6.25081 1.74887V1.75999V12.2406V12.2511C6.25081 12.6645 6.58554 13 6.99967 13C7.41367 13 7.74854 12.6653 7.74854 12.2511V12.24V1.7594Z" fill="#2873F0" stroke="#2873F0"/>
<path d="M12.2406 7.74921H12.2511C12.6645 7.74921 13 7.41448 13 7.00034C13 6.58633 12.6653 6.25146 12.2511 6.25146H12.24H12.2406H1.75939H1.74886C1.33546 6.25146 1 6.5862 1 7.00034C1 7.41434 1.33473 7.74921 1.74886 7.74921H1.75998H1.75939H12.2406Z" fill="#2873F0" stroke="#2873F0"/>
</svg>
