<svg width="22" height="22" viewBox="0 0 22 22" fill="none" xmlns="http://www.w3.org/2000/svg">
<path d="M3.34835 10.2692V10.2692H7.91308C9.21387 10.2692 10.2614 9.2203 10.2614 7.91913V3.00027C10.2614 1.6991 9.21387 0.650244 7.91308 0.650244H7.91307L2.99835 0.650433C2.99834 0.650433 2.99834 0.650433 2.99833 0.650433C1.69755 0.65044 0.65 1.6993 0.65 3.00046V7.91932V7.91938C0.650221 9.22028 1.69773 10.2692 2.99835 10.2692H3.34835ZM2.43026 3.00032C2.43026 2.67979 2.67881 2.43146 2.99835 2.43146H7.91308C8.23262 2.43146 8.48117 2.6798 8.48117 3.00032V7.91918C8.48117 8.23971 8.23261 8.48804 7.91308 8.48804H2.99835C2.6788 8.48804 2.43026 8.2397 2.43026 7.91918V3.00032Z" fill="#2873F0" stroke="#2873F0" stroke-width="0.7"/>
<path d="M18.5865 0.65L18.5865 0.650338H14.0701C12.7693 0.650338 11.7218 1.6992 11.7218 3.00036V7.91923C11.7218 9.22039 12.7693 10.2692 14.0701 10.2692H18.9849C20.2856 10.2692 21.3332 9.22039 21.3332 7.91923L21.333 2.99987C21.333 1.69891 20.2855 0.65 18.9848 0.65H18.5865ZM19.5529 7.91918C19.5529 8.23971 19.3044 8.48804 18.9849 8.48804H14.0701C13.7506 8.48804 13.502 8.2397 13.502 7.91918V3.00031C13.502 2.67979 13.7506 2.43145 14.0701 2.43145H18.9849C19.3044 2.43145 19.5529 2.6798 19.5529 3.00031V7.91918Z" fill="#2873F0" stroke="#2873F0" stroke-width="0.7"/>
<path d="M2.64835 21.3241V21.35H2.99835H7.91308C9.21387 21.35 10.2614 20.3011 10.2614 18.9999V14.0811C10.2614 12.7799 9.21387 11.7311 7.91308 11.7311H2.99835C1.69756 11.7311 0.65 12.7799 0.65 14.0811V18.9999V19C0.650201 20.1819 1.51483 21.1558 2.64835 21.3241ZM2.43026 14.0811C2.43026 13.7606 2.67881 13.5123 2.99835 13.5123H7.91308C8.23262 13.5123 8.48117 13.7606 8.48117 14.0811V19C8.48117 19.3205 8.23261 19.5689 7.91308 19.5689H2.99835C2.6788 19.5689 2.43026 19.3205 2.43026 19V14.0811Z" fill="#2873F0" stroke="#2873F0" stroke-width="0.7"/>
<path d="M13.7367 21.3241V21.35H14.0867H19.0015C20.3022 21.35 21.3498 20.3011 21.3498 18.9999V14.0811C21.3498 12.7799 20.3022 11.7311 19.0015 11.7311H14.0867C12.7859 11.7311 11.7384 12.7799 11.7384 14.0811V18.9999V19C11.7386 20.1819 12.6032 21.1558 13.7367 21.3241ZM13.5186 14.0811C13.5186 13.7606 13.7672 13.5123 14.0867 13.5123H19.0015C19.321 13.5123 19.5695 13.7606 19.5695 14.0811V19C19.5695 19.3205 19.321 19.5689 19.0015 19.5689H14.0867C13.7672 19.5689 13.5186 19.3205 13.5186 19V14.0811Z" fill="#2873F0" stroke="#2873F0" stroke-width="0.7"/>
</svg>
