<svg width="16" height="16" viewBox="0 0 16 16" fill="none" xmlns="http://www.w3.org/2000/svg">
<circle cx="8" cy="8" r="8" transform="rotate(90 8 8)" fill="white"/>
<path d="M8.59924 11.724C8.60599 11.2493 8.22675 10.8589 7.75188 10.8521C7.27718 10.8454 6.88671 11.2246 6.87997 11.6995C6.87322 12.1744 7.25246 12.5647 7.72733 12.5714C8.20218 12.5782 8.5925 12.1989 8.59924 11.724Z" fill="#2873F0"/>
<path d="M7.80972 3.42899C6.58574 3.41144 5.33609 4.22403 5.14512 5.81425C5.1214 6.01206 5.26647 6.19089 5.46572 6.19374L6.16572 6.20379C6.32471 6.20606 6.46759 6.09357 6.49079 5.93627C6.60995 5.12747 7.20531 4.76967 7.79064 4.77803C9.0283 4.79567 9.17624 5.5442 9.16695 6.19426C9.15159 7.26591 7.56761 7.62762 7.55376 7.63065L7.02734 7.7428L6.99924 9.70755C6.99654 9.89143 7.14354 10.0426 7.32735 10.0452L8.01066 10.055C8.19454 10.0577 8.34569 9.91067 8.3483 9.72686L8.36164 8.79825C9.32114 8.45175 10.4953 7.64895 10.5159 6.21358C10.5405 4.49449 9.52884 3.4535 7.80986 3.42887L7.80972 3.42899Z" fill="#2873F0"/>
</svg>
