<svg width="20" height="20" viewBox="0 0 20 20" fill="none" xmlns="http://www.w3.org/2000/svg">
<path d="M12.9205 19.1664L18.1828 19.1664C19.1861 19.1664 19.9847 18.3659 19.9847 17.4051L19.9847 12.2614C19.9847 11.2807 19.1657 10.5001 18.1828 10.5001L12.9205 10.5003C11.9171 10.5003 11.1185 11.3008 11.1185 12.2616L11.1187 17.4052C11.1187 18.3659 11.9172 19.1665 12.9205 19.1665L12.9205 19.1664ZM12.9615 17.365L12.9615 12.2814L18.1623 12.2814L18.1625 17.365L12.9615 17.365ZM0.184463 14.3629L2.53912 12.0613C2.8872 11.7211 3.48109 11.7611 3.76775 12.1814C3.97257 12.5016 3.91115 12.9219 3.64492 13.1821L2.76453 14.0426L8.51827 14.0426C8.96874 14.0426 9.31683 14.4028 9.31683 14.8232C9.31683 15.2635 8.94833 15.6037 8.51827 15.6037L2.785 15.6039L3.66539 16.4644C3.93163 16.7246 4.01347 17.1449 3.78823 17.4651C3.50157 17.8855 2.90784 17.9254 2.5596 17.5852L0.184646 15.2836C-0.0611645 15.0435 -0.0611646 14.6232 0.184645 14.3629L0.184463 14.3629ZM7.06438 9.51942C8.06774 9.51942 8.8663 8.71893 8.8663 7.75813L8.86616 2.59446C8.86616 1.61372 8.04719 0.833169 7.06424 0.833169L1.80192 0.833169C0.798561 0.833169 -7.66385e-07 1.63367 -7.24387e-07 2.59446L-4.9955e-07 7.73812C-4.56681e-07 8.71885 0.818964 9.49941 1.80192 9.49941L7.06424 9.49941L7.06438 9.51942ZM1.84301 7.71821L1.84301 2.63459L7.0439 2.63459L7.0439 7.71821L1.84301 7.71821ZM11.4462 4.39581L17.2 4.39581L16.3196 3.53527C16.0533 3.27504 15.9715 2.85482 16.1967 2.53456C16.4834 2.11419 17.0771 2.07427 17.4254 2.41449L19.8003 4.71606C20.0666 4.97629 20.0666 5.39651 19.8003 5.63679L17.4252 7.93836C17.0772 8.27858 16.4833 8.23851 16.1966 7.81829C15.9918 7.49803 16.0532 7.0778 16.3194 6.81758L17.1998 5.95704L11.4461 5.9569C10.9956 5.9569 10.6475 5.59671 10.6475 5.17634C10.6475 4.73603 11.016 4.39579 11.4461 4.39579L11.4462 4.39581Z" fill="#2873F0"/>
</svg>
