<svg width="24" height="24" viewBox="0 0 24 24" fill="none" xmlns="http://www.w3.org/2000/svg">
<circle cx="12" cy="12" r="12" transform="rotate(90 12 12)" fill="#2873F0"/>
<path d="M14.809 10.3C15.4282 10.3086 16.0214 10.0524 16.438 9.59648C16.8545 9.14048 17.0546 8.52864 16.9872 7.91613C16.9197 7.30358 16.5914 6.74927 16.0856 6.39374C15.5796 6.03831 14.9448 5.91594 14.3421 6.05764C13.7394 6.19936 13.2268 6.59149 12.9344 7.13471C12.6418 7.67783 12.5976 8.31978 12.8129 8.89755L10.6724 10.2527C10.1832 9.71764 9.49693 9.40273 8.77032 9.3799C8.04371 9.35707 7.33889 9.62837 6.81674 10.1317C6.29468 10.635 6 11.3276 6 12.0509C6 12.7742 6.29468 13.4667 6.81674 13.97C7.33889 14.4734 8.04371 14.7447 8.77032 14.7218C9.49693 14.699 10.1832 14.3841 10.6724 13.849L12.8154 15.2042C12.583 15.8587 12.6912 16.5852 13.1043 17.1445C13.5174 17.7039 14.1819 18.0236 14.879 17.9986C15.5762 17.9735 16.2157 17.6068 16.587 17.0193C16.9585 16.4317 17.0136 15.6993 16.7344 15.0632C16.4551 14.4271 15.8777 13.9696 15.1921 13.8415C14.5065 13.7133 13.8015 13.931 13.3093 14.4228L11.175 13.0768C11.4516 12.4205 11.4516 11.6813 11.175 11.025L13.3044 9.67902C13.7029 10.0768 14.2444 10.3003 14.809 10.3001L14.809 10.3ZM14.809 14.7231C15.1282 14.7231 15.4345 14.8493 15.6602 15.074C15.8861 15.2986 16.0129 15.6033 16.0129 15.921C16.0129 16.2387 15.8861 16.5435 15.6602 16.7681C15.4345 16.9928 15.1283 17.119 14.809 17.119C14.4897 17.119 14.1834 16.9928 13.9577 16.7681C13.7319 16.5435 13.6051 16.2387 13.6051 15.921C13.6054 15.6035 13.7323 15.2989 13.958 15.0743C14.1838 14.8497 14.4898 14.7234 14.809 14.7231ZM8.69676 13.8017C8.23008 13.8017 7.78254 13.6171 7.45253 13.2889C7.12261 12.9605 6.93718 12.5152 6.93718 12.0508C6.93718 11.5865 7.1226 11.1412 7.45253 10.8128C7.78257 10.4845 8.23011 10.3 8.69676 10.3C9.1634 10.3 9.61097 10.4845 9.94098 10.8128C10.2709 11.1412 10.4563 11.5865 10.4563 12.0508C10.4558 12.5151 10.2703 12.9601 9.94047 13.2884C9.61055 13.6165 9.16332 13.8011 8.69676 13.8017ZM14.809 6.98272C15.1282 6.98272 15.4345 7.10891 15.6602 7.33362C15.8861 7.55823 16.0129 7.86294 16.0129 8.18064C16.0129 8.49834 15.8861 8.80306 15.6602 9.02766C15.4345 9.25238 15.1283 9.37856 14.809 9.37856C14.4897 9.37856 14.1834 9.25237 13.9577 9.02766C13.7319 8.80305 13.6051 8.49834 13.6051 8.18064C13.6054 7.86307 13.7323 7.55854 13.958 7.33394C14.1838 7.10933 14.4898 6.98304 14.809 6.98272Z" fill="white" stroke="white" stroke-width="0.5"/>
</svg>
