<svg width="13" height="12" viewBox="0 0 13 12" fill="none" xmlns="http://www.w3.org/2000/svg">
<path fill-rule="evenodd" clip-rule="evenodd" d="M12.1715 0.404719C12.4881 0.713876 12.4911 1.21813 12.1783 1.53099L6.50128 7.20825C6.18842 7.52111 5.67814 7.52412 5.36153 7.21496C5.04492 6.90581 5.04188 6.40156 5.35473 6.08869L11.0318 0.411437C11.3446 0.0985699 11.8549 0.0955618 12.1715 0.404719Z" fill="#2873F0"/>
<path fill-rule="evenodd" clip-rule="evenodd" d="M7.47754 0.795295C7.47754 0.356066 7.83724 0 8.28095 0H11.6963C12.1401 0 12.4998 0.356066 12.4998 0.795295V4.15361C12.4998 4.59284 12.1401 4.9489 11.6963 4.9489C11.2526 4.9489 10.8929 4.59284 10.8929 4.15361V1.59059H8.28095C7.83724 1.59059 7.47754 1.23452 7.47754 0.795295Z" fill="#2873F0"/>
<path fill-rule="evenodd" clip-rule="evenodd" d="M0.5 2.28291C0.5 1.84459 0.859091 1.48926 1.30205 1.48926H5.98676C6.42972 1.48926 6.78881 1.84459 6.78881 2.28291C6.78881 2.72123 6.42972 3.07656 5.98676 3.07656H2.1041V10.4129H9.51808L9.51792 6.57096C9.5179 6.13264 9.87697 5.77729 10.3199 5.77727C10.7629 5.77725 11.122 6.13257 11.122 6.57089L11.1222 11.2065C11.1222 11.417 11.0377 11.6189 10.8873 11.7677C10.7369 11.9166 10.5329 12.0002 10.3202 12.0002H1.30205C0.859091 12.0002 0.5 11.6449 0.5 11.2066V2.28291Z" fill="#2873F0"/>
</svg>
