<svg width="16" height="16" viewBox="0 0 16 16" fill="none" xmlns="http://www.w3.org/2000/svg">
<path d="M12.7453 16H12.7449L2.65682 15.9918C2.01325 15.9918 1.63421 15.7204 1.42932 15.4928C0.972736 14.9849 0.991684 14.289 1.00488 14.112L1.00499 1.65218C1.00272 1.05676 1.24373 0.688729 1.44638 0.485298C1.8948 0.0350773 2.50986 0 2.68739 0C2.69318 0 2.71157 0.00022705 2.71736 0.000340565L12.7453 0.000227057C13.6566 0.000227057 14.3979 0.741412 14.3979 1.65243V14.3471C14.398 15.2584 13.6566 15.9998 12.7453 15.9998L12.7453 16ZM2.6993 1.08534C2.58033 1.08534 2.34557 1.12008 2.21502 1.25119C2.18369 1.28252 2.08901 1.378 2.09003 1.65044V14.1356C2.09003 14.1547 2.0889 14.1739 2.08697 14.1929C2.07868 14.2871 2.08765 14.6053 2.23829 14.7699C2.2694 14.8038 2.36373 14.9072 2.65707 14.9072L12.7455 14.9153C13.0581 14.9151 13.3128 14.6606 13.3128 14.3474V1.65243C13.3128 1.33979 13.0581 1.08515 12.7452 1.08515H2.69976C2.69953 1.08538 2.69919 1.08538 2.69908 1.08538L2.6993 1.08534Z" fill="#2873F0"/>
<path d="M11.4237 5.21759H3.97318C3.67359 5.21759 3.43066 4.97477 3.43066 4.67507C3.43066 4.37548 3.67349 4.13255 3.97318 4.13255H11.4234C11.723 4.13255 11.9659 4.37538 11.9659 4.67507C11.9658 4.97476 11.7232 5.21759 11.4235 5.21759H11.4237Z" fill="#2873F0"/>
<path d="M11.4237 8.90404H3.97318C3.67359 8.90404 3.43066 8.66122 3.43066 8.36152C3.43066 8.06193 3.67349 7.819 3.97318 7.819H11.4234C11.723 7.819 11.9659 8.06182 11.9659 8.36152C11.966 8.6612 11.7232 8.90404 11.4235 8.90404H11.4237Z" fill="#2873F0"/>
<path d="M11.4237 12.5905H3.97318C3.67359 12.5905 3.43066 12.3477 3.43066 12.048C3.43066 11.7484 3.67349 11.5055 3.97318 11.5055H11.4234C11.723 11.5055 11.9659 11.7483 11.9659 12.048C11.9658 12.3477 11.7232 12.5905 11.4235 12.5905H11.4237Z" fill="#2873F0"/>
</svg>
