<svg width="3" height="13" viewBox="0 0 3 13" fill="none" xmlns="http://www.w3.org/2000/svg">
<path d="M3 6.00293C3 6.83133 2.3284 7.50293 1.5 7.50293C0.671595 7.50293 0 6.83133 0 6.00293C0 5.17452 0.671595 4.50293 1.5 4.50293C2.3284 4.50293 3 5.17452 3 6.00293Z" fill="#2873F0"/>
<path d="M3 1.5C3 2.3284 2.3284 3 1.5 3C0.671595 3 0 2.3284 0 1.5C0 0.671595 0.671595 0 1.5 0C2.3284 0 3 0.671595 3 1.5Z" fill="#2873F0"/>
<path d="M3 10.5049C3 11.3333 2.3284 12.0049 1.5 12.0049C0.671595 12.0049 0 11.3333 0 10.5049C0 9.67648 0.671595 9.00488 1.5 9.00488C2.3284 9.00488 3 9.67648 3 10.5049Z" fill="#2873F0"/>
</svg>
