<svg width="10" height="8" viewBox="0 0 10 8" fill="none" xmlns="http://www.w3.org/2000/svg">
<path d="M5 0.595465C3.94963 0.585934 2.92013 0.888627 2.04206 1.46527C1.1641 2.04191 0.477286 2.86644 0.0688232 3.83411L0 3.99983L0.0688981 4.16555H0.0688231C0.477343 5.1332 1.16415 5.95774 2.04206 6.5344C2.92003 7.11104 3.94953 7.41373 5 7.4042C6.05029 7.41358 7.07968 7.11081 7.95775 6.53419C8.83571 5.95762 9.52252 5.13317 9.93118 4.16553L10 3.99981L9.9311 3.83409H9.93118C9.5225 2.86652 8.83569 2.04204 7.95775 1.46544C7.07978 0.8888 6.05035 0.586032 5 0.595427V0.595465ZM5 6.54439C4.15032 6.55272 3.31602 6.31744 2.5958 5.86651C1.8756 5.41551 1.29963 4.76772 0.936069 3.99972C1.29978 3.23192 1.87581 2.58429 2.59603 2.13352C3.31616 1.68275 4.15037 1.44769 5.00004 1.45616C5.84957 1.44783 6.68379 1.68298 7.40385 2.13375C8.12398 2.58444 8.70003 3.232 9.06387 3.99972C8.70001 4.76743 8.12398 5.41499 7.40385 5.86569C6.68373 6.31646 5.84951 6.55159 5.00004 6.54327L5 6.54439Z" fill="#2873F0"/>
<path d="M5.00016 1.61428C4.36753 1.61428 3.7608 1.86563 3.31341 2.31294C2.8661 2.76033 2.61475 3.36706 2.61475 3.99969C2.61475 4.63231 2.8661 5.23904 3.31341 5.68643C3.7608 6.13374 4.36753 6.3851 5.00016 6.3851C5.63278 6.3851 6.23951 6.13374 6.6869 5.68643C7.13421 5.23904 7.38557 4.63231 7.38557 3.99969C7.38497 3.36721 7.13346 2.76079 6.68629 2.31354C6.23905 1.86638 5.63261 1.61487 5.00014 1.61426L5.00016 1.61428ZM5.00016 5.52329C4.59577 5.52329 4.2079 5.3626 3.92194 5.07657C3.63599 4.79062 3.47546 4.40267 3.47554 3.99828C3.47561 3.59382 3.63638 3.20603 3.92248 2.92015C4.20852 2.63427 4.59646 2.47382 5.00092 2.47403C5.40531 2.47418 5.7931 2.63502 6.0789 2.92119C6.36471 3.2073 6.5251 3.59532 6.5248 3.99971C6.5245 4.40394 6.36381 4.7916 6.07793 5.07747C5.79204 5.36335 5.40439 5.52404 5.00016 5.52435V5.52329Z" fill="#2873F0"/>
</svg>
