<svg width="232" height="217" viewBox="0 0 232 217" fill="none" xmlns="http://www.w3.org/2000/svg">
<path d="M2.22616 27.7529C-3.56094 44.8432 3.33769 63.2837 7.06049 80.9603C10.1174 95.5526 10.9622 110.527 9.56596 125.374C8.54263 136.406 6.26657 147.368 6.44301 158.453C6.50999 172.59 11.1698 186.317 19.711 197.537C24.012 203.088 29.4123 207.677 35.5691 211.014C41.7259 214.351 48.5045 216.362 55.4746 216.919C68.7073 217.701 81.4636 212.602 94.2905 209.458C106.635 206.443 119.341 205.205 132.03 205.78C140.499 206.153 148.95 207.344 157.437 207.468C179.668 207.752 205.304 198.816 218.66 179.949C243.785 144.418 231.487 90.3582 197.911 64.9359C182.262 53.0864 163.259 46.2822 143.94 43.2088C130.125 41.0236 115.71 40.5795 102.936 34.9479C88.821 28.7833 78.1466 16.987 65.302 8.56619C41.642 -6.94303 11.9478 -0.885012 2.22616 27.7529Z" fill="#CDDDF9"/>
</svg>
