<svg width="30" height="35" viewBox="0 0 30 35" fill="none" xmlns="http://www.w3.org/2000/svg">
<path d="M24.5365 18.5625C24.5537 17.2648 24.9075 15.9924 25.5652 14.8637C26.2229 13.7351 27.163 12.7867 28.2981 12.1071C27.577 11.104 26.6257 10.2785 25.5198 9.69617C24.4139 9.11384 23.1839 8.79069 21.9273 8.7524C19.2469 8.47836 16.6483 10.3147 15.2824 10.3147C13.8901 10.3147 11.7871 8.77961 9.52246 8.82499C8.05765 8.87109 6.63008 9.28598 5.37884 10.0292C4.1276 10.7725 3.09536 11.8188 2.3827 13.0661C-0.704383 18.2721 1.5983 25.9231 4.55547 30.1312C6.03501 32.1918 7.76416 34.4935 10.0267 34.4119C12.2408 34.3225 13.0677 33.0368 15.7402 33.0368C18.388 33.0368 19.1638 34.4119 21.4722 34.36C23.848 34.3224 25.3449 32.2903 26.7725 30.2102C27.8356 28.7419 28.6536 27.1192 29.1962 25.4021C27.816 24.8335 26.6381 23.8817 25.8095 22.6654C24.9808 21.4491 24.5381 20.0222 24.5365 18.5625Z" fill="white"/>
<path d="M20.1762 5.98487C21.4716 4.47022 22.1098 2.5234 21.9552 0.557831C19.9762 0.760291 18.1481 1.68157 16.8353 3.13811C16.1933 3.84967 15.7017 4.67747 15.3885 5.5742C15.0752 6.47094 14.9465 7.41901 15.0096 8.36423C15.9995 8.37416 16.9788 8.16518 17.8737 7.75304C18.7687 7.34089 19.5559 6.73633 20.1762 5.98487Z" fill="white"/>
</svg>
