<svg width="75" height="43" viewBox="0 0 75 43" fill="none" xmlns="http://www.w3.org/2000/svg">
<path opacity="0.15" d="M22.5411 0.00436622C22.4078 0.00382872 22.2757 0.0294753 22.1524 0.080115C22.0291 0.130755 21.917 0.20532 21.8225 0.299388C21.7281 0.393456 21.6531 0.505194 21.602 0.628297C21.5509 0.7514 21.5245 0.883458 21.5245 1.01676V33.6887C21.524 33.8221 21.55 33.9543 21.6009 34.0776C21.6518 34.201 21.7268 34.3131 21.8213 34.4073C21.9159 34.5015 22.0282 34.5759 22.1517 34.6263C22.2753 34.6767 22.4076 34.7021 22.5411 34.7011H41.9369V40.8247H36.2214C36.1676 40.8247 36.1144 40.8355 36.0647 40.8561C36.015 40.8768 35.9699 40.907 35.932 40.9451C35.8941 40.9832 35.864 41.0284 35.8437 41.0782C35.8233 41.1279 35.8129 41.1814 35.8132 41.2351V42.868H58.2667V41.2351C58.2667 41.1269 58.2237 41.0229 58.1471 40.9463C58.0706 40.8698 57.9667 40.8267 57.8585 40.8267H52.143V34.703H71.5388C71.6725 34.7033 71.805 34.6772 71.9286 34.6261C72.0522 34.5749 72.1644 34.5 72.2589 34.4053C72.3534 34.3106 72.4282 34.1981 72.4791 34.0744C72.5299 33.9507 72.5559 33.8184 72.5553 33.6847V1.01252C72.5553 0.879222 72.529 0.747413 72.4779 0.62431C72.4267 0.501207 72.3518 0.38922 72.2573 0.295152C72.1629 0.201084 72.0508 0.126768 71.9275 0.0761282C71.8042 0.0254885 71.6721 -0.000407235 71.5388 0.000130269H22.5411V0.00436622Z" fill="black"/>
<path d="M73.5803 0.00434113H24.5826C24.0212 0.00434113 23.5661 0.457573 23.5661 1.01673V33.6926C23.5661 34.2518 24.0212 34.7053 24.5826 34.7053H73.5803C74.1417 34.7053 74.5969 34.2518 74.5969 33.6926V1.01673C74.5969 0.457573 74.1417 0.00434113 73.5803 0.00434113Z" fill="#2B4255"/>
<path fill-rule="evenodd" clip-rule="evenodd" d="M43.9785 34.2501H54.1847V40.8291H43.9785V34.2501Z" fill="#CAD1D8"/>
<path d="M38.2632 40.8288C38.1549 40.8288 38.0511 40.8715 37.9745 40.9481C37.898 41.0247 37.8549 41.1286 37.8549 41.2369V42.87H60.3085V41.2369C60.3085 41.1286 60.2655 41.0247 60.1889 40.9481C60.1124 40.8715 60.0085 40.8288 59.9002 40.8288H38.2632Z" fill="black"/>
<path d="M25.7487 1.9017H72.6969V26.3965H25.7487V1.9017Z" fill="#FAC74D"/>
<path d="M23.5661 28.5363V33.6884C23.5661 34.2518 24.0192 34.705 24.5826 34.705H73.5803C73.7139 34.7053 73.8462 34.679 73.9696 34.6281C74.0931 34.5771 74.2053 34.5022 74.2997 34.4078C74.3942 34.3133 74.469 34.2011 74.52 34.0776C74.571 33.9542 74.5971 33.822 74.5968 33.6884V28.6262L24.1784 28.5363H23.5661Z" fill="#FCAE56"/>
<circle cx="34.5463" cy="14.3216" r="3.10497" fill="white"/>
<circle cx="49.0362" cy="14.3215" r="3.10497" fill="white"/>
<circle cx="63.5262" cy="14.3215" r="3.10497" fill="white"/>
<line x1="52.1413" y1="14.3389" x2="60.4212" y2="14.3389" stroke="white"/>
<line x1="37.6512" y1="14.3389" x2="45.9311" y2="14.3389" stroke="white"/>
<rect x="5.79547" y="11.2171" width="10.6997" height="1.33746" rx="0.668729" fill="black"/>
<rect x="6.24158" y="21.9165" width="10.6997" height="1.33746" rx="0.668729" fill="black"/>
<rect y="16.5666" width="17.387" height="1.33746" rx="0.668729" fill="black"/>
<rect x="18.7242" y="11.2171" width="5.79565" height="1.33746" rx="0.668729" fill="black"/>
<rect x="18.7242" y="21.9165" width="5.79565" height="1.33746" rx="0.668729" fill="black"/>
<rect x="18.7242" y="16.5666" width="5.79565" height="1.33746" rx="0.668729" fill="black"/>
</svg>
