<svg width="64" height="41" viewBox="0 0 64 41" fill="none" xmlns="http://www.w3.org/2000/svg">
<path d="M43.8833 31.8187H41.0483V15.3961H63.6356V31.8187H56.5472" fill="#F8B84E"/>
<path d="M10.3873 24.6339H0V0H41.0565V24.6339H22.4415" fill="#F05542"/>
<path d="M11.1644 31.8187H0.027832V24.6338H41.0412V31.8187H23.4998" fill="#576D7E"/>
<path d="M16.4221 25.6601C14.6027 25.6615 12.8353 26.267 11.3974 27.3816C9.95951 28.4963 8.9325 30.057 8.47766 31.8186H24.3645C23.9096 30.057 22.8826 28.4963 21.4447 27.3816C20.0068 26.267 18.2394 25.6615 16.42 25.6601H16.4221Z" fill="#34485C"/>
<path d="M16.421 40.0301C19.8223 40.0301 22.5795 37.2728 22.5795 33.8716C22.5795 30.4704 19.8223 27.7131 16.421 27.7131C13.0198 27.7131 10.2626 30.4704 10.2626 33.8716C10.2626 37.2728 13.0198 40.0301 16.421 40.0301Z" fill="#2B4255"/>
<path fill-rule="evenodd" clip-rule="evenodd" d="M0.027832 27.7131V29.766H4.09037C4.36259 29.766 4.62367 29.6577 4.81616 29.4653C5.00865 29.2728 5.11679 29.0118 5.11679 28.7395C5.11679 28.4673 5.00865 28.2061 4.81616 28.0136C4.62367 27.8211 4.36259 27.7131 4.09037 27.7131H0.027832Z" fill="#F17F53"/>
<path d="M16.421 35.9245C17.5547 35.9245 18.4738 35.0054 18.4738 33.8717C18.4738 32.7379 17.5547 31.8188 16.421 31.8188C15.2872 31.8188 14.3682 32.7379 14.3682 33.8717C14.3682 35.0054 15.2872 35.9245 16.421 35.9245Z" fill="#E9EDED"/>
<path d="M41.0485 3.07916H52.8112L63.6214 15.437L41.0321 15.3961L41.0485 3.07916Z" fill="#4BBFEB"/>
<path d="M45.1604 17.4491H47.242" stroke="#2B4255" stroke-linecap="round" stroke-linejoin="round"/>
<path d="M5.13037 3.09545V21.5546M11.2888 3.09344V21.5546M17.4473 3.09344V21.5546M23.6058 3.09344V21.5546M29.7643 3.09344V21.5546M35.9227 3.09344V21.5546" stroke="#F17F53" stroke-linecap="round" stroke-linejoin="round"/>
<path fill-rule="evenodd" clip-rule="evenodd" d="M63.6362 28.7394V26.6866H59.5757C59.3035 26.6866 59.0424 26.7946 58.8499 26.987C58.6575 27.1795 58.5493 27.4408 58.5493 27.713C58.5493 27.9852 58.6575 28.2462 58.8499 28.4387C59.0424 28.6312 59.3035 28.7394 59.5757 28.7394H63.6362Z" fill="#F17F53"/>
<path d="M42.0791 3.05869H41.0527L41.0404 15.3591C41.0404 15.6313 41.1485 15.8923 41.341 16.0848C41.5335 16.2773 41.7946 16.3855 42.0668 16.3855L62.6033 16.4203C62.8001 16.4202 62.9928 16.3635 63.1582 16.257C63.3237 16.1504 63.4551 15.9986 63.5366 15.8194C63.6182 15.6403 63.6465 15.4414 63.6183 15.2466C63.59 15.0518 63.5063 14.8692 63.3772 14.7206L53.4538 3.38897C53.358 3.27873 53.2398 3.19025 53.107 3.12936C52.9743 3.06847 52.8301 3.03659 52.684 3.03589C48.2253 3.03589 42.0791 3.05869 42.0791 3.05869ZM43.1055 5.09097H52.2201L60.337 14.3635L43.0932 14.3347L43.1055 5.09097Z" fill="#F8B84E"/>
<path fill-rule="evenodd" clip-rule="evenodd" d="M48.226 4.10333V16.4203H50.2788V4.10333H48.226Z" fill="#F8B84E"/>
<path d="M50.2914 25.6601C48.4724 25.6619 46.7054 26.2675 45.2679 27.3821C43.8305 28.4968 42.8038 30.0573 42.349 31.8186H58.2338C57.779 30.0573 56.7523 28.4968 55.3148 27.3821C53.8773 26.2675 52.1104 25.6619 50.2914 25.6601Z" fill="#34485C"/>
<path d="M50.2923 40.0301C53.6935 40.0301 56.4507 37.2728 56.4507 33.8716C56.4507 30.4704 53.6935 27.7131 50.2923 27.7131C46.891 27.7131 44.1338 30.4704 44.1338 33.8716C44.1338 37.2728 46.891 40.0301 50.2923 40.0301Z" fill="#2B4255"/>
<path d="M50.2922 35.9245C51.4259 35.9245 52.345 35.0054 52.345 33.8717C52.345 32.7379 51.4259 31.8188 50.2922 31.8188C49.1585 31.8188 48.2394 32.7379 48.2394 33.8717C48.2394 35.0054 49.1585 35.9245 50.2922 35.9245Z" fill="#E9EDED"/>
</svg>
