<svg width="55" height="56" viewBox="0 0 55 56" fill="none" xmlns="http://www.w3.org/2000/svg">
<path d="M12.4218 23.1466C17.0759 23.1466 20.8488 19.3737 20.8488 14.7196C20.8488 10.0655 17.0759 6.29266 12.4218 6.29266C7.76775 6.29266 3.99487 10.0655 3.99487 14.7196C3.99487 19.3737 7.76775 23.1466 12.4218 23.1466Z" fill="#FCD205"/>
<path fill-rule="evenodd" clip-rule="evenodd" d="M12.4216 6.29248C17.0757 6.29248 20.8486 10.0654 20.8486 14.7194C20.8486 19.3735 17.0757 23.1464 12.4216 23.1464V6.29248Z" fill="#FCD205"/>
<path d="M14.92 19.2052C15.7446 19.2052 16.4131 18.5368 16.4131 17.7121C16.4131 16.8875 15.7446 16.219 14.92 16.219C14.0954 16.219 13.4269 16.8875 13.4269 17.7121C13.4269 18.5368 14.0954 19.2052 14.92 19.2052Z" fill="#ECEFF1"/>
<path fill-rule="evenodd" clip-rule="evenodd" d="M9.92302 10.2338C10.7477 10.2338 11.4161 10.9023 11.4161 11.727C11.4161 12.5517 10.7477 13.2202 9.92302 13.2202C9.09828 13.2202 8.42981 12.5517 8.42981 11.727C8.42981 10.9023 9.09828 10.2338 9.92302 10.2338Z" fill="#ECEFF1"/>
<path fill-rule="evenodd" clip-rule="evenodd" d="M10.6485 10.8632C11.1235 10.8632 11.5132 11.2511 11.5132 11.7272C11.5132 12.203 11.1235 12.5909 10.6485 12.5909C10.1734 12.5909 9.78368 12.2031 9.78368 11.7272C9.78376 11.2511 10.1735 10.8632 10.6485 10.8632ZM10.6485 13.8498C11.8176 13.8498 12.7714 12.8979 12.7714 11.7272C12.7714 10.557 11.8176 9.60427 10.6485 9.60427C9.47934 9.60427 8.5255 10.557 8.5255 11.7272C8.5255 12.8979 9.47934 13.8498 10.6485 13.8498ZM9.46086 18.7367C9.24189 19.038 9.31238 19.4575 9.61302 19.6739C9.91366 19.8909 10.333 19.8227 10.5483 19.5213L16.8392 10.7671C17.0545 10.4669 16.9877 10.0463 16.6871 9.82993C16.3864 9.61285 15.9671 9.68107 15.748 9.98281L9.46086 18.7367ZM16.5089 17.7123C16.5089 18.1885 16.1229 18.5763 15.6442 18.5763C15.1691 18.5763 14.7794 18.1885 14.7794 17.7123C14.7794 17.2362 15.1691 16.8483 15.6442 16.8483C16.1229 16.8483 16.5089 17.2362 16.5089 17.7123ZM13.5212 17.7123C13.5212 16.5421 14.475 15.5894 15.6442 15.5894C16.817 15.5894 17.7671 16.5421 17.7671 17.7123C17.7671 18.883 16.817 19.8349 15.6442 19.8349C14.475 19.835 13.5212 18.883 13.5212 17.7123ZM13.1463 6.92204C8.84848 6.92204 5.3486 10.4201 5.3486 14.7202C5.3486 19.0192 8.84848 22.5172 13.1463 22.5172C17.4442 22.5172 20.9441 19.0192 20.9441 14.7202C20.9441 10.42 17.4442 6.92204 13.1463 6.92204ZM13.1463 23.7761C18.1383 23.7761 22.2023 19.7132 22.2023 14.7202C22.2023 9.72639 18.1383 5.66315 13.1463 5.66315C8.15444 5.66315 4.09033 9.72646 4.09033 14.7202C4.09033 19.7132 8.15436 23.7761 13.1463 23.7761Z" fill="black"/>
<path fill-rule="evenodd" clip-rule="evenodd" d="M5.1864 39.0681L15.5449 33.0668C17.4889 31.9404 19.4656 31.1419 21.6024 31.835C23.9847 32.6076 27.8749 34.2666 31.8423 34.9821C33.3149 35.4595 34.2329 36.9341 33.8323 38.4292C33.4316 39.9245 32.1681 40.6955 30.3853 40.4197L31.7721 40.6417C33.3613 40.8959 34.8208 40.6784 36.2118 39.8683L46.171 34.0676C53.9124 29.559 55.0495 36.4953 52.4755 38.0799L34.4021 49.2088C32.7399 50.2321 30.9209 50.4709 29.0354 49.9655L15.9263 46.4528L11.0715 49.2558C10.1382 49.7946 8.93719 49.473 8.39837 48.5395L4.47258 41.7398C3.93407 40.8073 4.25453 39.6079 5.1864 39.0681Z" fill="#F6DCCD"/>
<path fill-rule="evenodd" clip-rule="evenodd" d="M33.596 39.0495C33.0425 40.1313 31.9019 40.6544 30.3854 40.4197C28.2379 39.8519 26.0932 39.2697 23.9476 38.6948C23.3729 38.5408 23.0318 37.9501 23.1858 37.3755C23.3398 36.8008 23.9305 36.4598 24.5051 36.6137L33.596 39.0495ZM5.18633 39.0681L15.5448 33.0668C17.4889 31.9404 19.4656 31.1419 21.6023 31.835C22.8768 32.2483 24.5832 32.9153 26.5019 33.5559L6.43609 45.1409L4.47251 41.7399C3.93411 40.8073 4.25457 39.6079 5.18633 39.0681Z" fill="#F1CBBC"/>
<path fill-rule="evenodd" clip-rule="evenodd" d="M6.38909 36.0828L14.6042 50.5983C15.0014 51.3002 14.7521 52.1994 14.0502 52.5966L11.2559 54.178C10.554 54.5752 9.65477 54.326 9.25758 53.6242L1.04259 39.1087C0.6454 38.4068 0.894672 37.5075 1.59655 37.1103L4.39087 35.5289C5.09264 35.1317 5.9919 35.381 6.38909 36.0828Z" fill="#D1D1D6"/>
<path fill-rule="evenodd" clip-rule="evenodd" d="M10.7096 46.0559L12.1637 48.625L13.6016 51.1656C13.998 51.866 13.7505 52.763 13.052 53.1615L14.0502 52.5965C14.752 52.1994 15.0013 51.3001 14.6041 50.5982L13.1614 48.049L10.2645 42.9304L7.36433 37.806L6.38909 36.0827C6.04507 35.4747 5.32412 35.2065 4.68127 35.4038L6.36991 38.3874L9.26685 43.5061L10.7095 46.0553L10.7096 46.0559Z" fill="#B1B1B5"/>
<path fill-rule="evenodd" clip-rule="evenodd" d="M5.47248 38.8116C5.55294 39.357 5.17589 39.8632 4.63301 39.9431C4.50336 39.9622 4.37122 39.9556 4.24415 39.9235C4.11708 39.8915 3.99758 39.8347 3.8925 39.7564C3.78742 39.6781 3.69883 39.5798 3.63179 39.4672C3.56476 39.3546 3.52061 39.2299 3.50186 39.1002C3.4214 38.5557 3.79845 38.0485 4.34143 37.9686C4.88932 37.8896 5.39703 38.2667 5.47248 38.8116ZM52.0285 37.3547L33.9561 48.4827C32.5133 49.3695 30.9347 49.5912 29.2557 49.1423L16.15 45.6298C16.0417 45.6005 15.9286 45.5929 15.8173 45.6075C15.706 45.6221 15.5987 45.6585 15.5015 45.7148L13.4806 46.8811L8.52395 38.1209L15.9742 33.8046C17.6382 32.8388 19.4429 32.0301 21.3432 32.6464C21.9464 32.8424 22.6452 33.0947 23.4546 33.3868C25.7671 34.2243 28.6476 35.2644 31.6286 35.8104C32.6893 36.1778 33.2825 37.2009 33.0111 38.2084C32.6793 39.437 31.7091 39.6692 30.8745 39.616C29.2407 39.2983 24.8872 38.0641 24.1684 37.8716C23.716 37.75 23.2485 38.0194 23.1277 38.4749C23.0021 38.9289 23.2735 39.3963 23.731 39.518C24.4348 39.7076 30.5729 41.3031 30.6433 41.3082C30.97 41.3711 31.3018 41.4289 31.6386 41.4832C33.4836 41.7787 35.1224 41.4917 36.6406 40.6049L46.5993 34.8047C49.4849 33.1251 51.7069 32.9597 52.5463 34.3613C53.1245 35.3288 52.8681 36.84 52.0285 37.3547ZM13.918 51.4839C13.9404 51.4065 13.9471 51.3253 13.9376 51.2453C13.9281 51.1652 13.9026 51.0879 13.8627 51.0179L5.64843 36.5031C5.56797 36.3614 5.43731 36.2598 5.27639 36.215C5.22227 36.2005 5.16649 36.1931 5.11046 36.1929C5.00649 36.1926 4.90426 36.2194 4.81387 36.2708L2.0188 37.8519C1.72221 38.0193 1.62161 38.3949 1.78754 38.6889L10.0019 53.2037C10.1678 53.4988 10.5448 53.6024 10.8363 53.436L13.6314 51.8545C13.7722 51.7744 13.8728 51.6423 13.918 51.4839ZM54.0093 33.4849C53.4914 32.6207 51.365 30.0564 45.7447 33.3315L35.786 39.1323C35.2682 39.433 34.7303 39.6436 34.1673 39.7642C34.3785 39.438 34.5443 39.065 34.66 38.6492C35.0169 37.313 34.5545 35.9341 33.5641 35.0216C33.1117 34.5998 32.5487 34.2525 31.9302 34.1308C29.2206 33.5989 26.6216 32.7197 24.0326 31.7841C23.2433 31.4981 22.4994 31.2296 21.8659 31.024C19.3271 30.2001 17.0299 31.2211 15.1195 32.3296L7.68438 36.6374L7.13138 35.6631C6.82978 35.1247 6.33209 34.7381 5.73379 34.5717C5.1355 34.4068 4.50715 34.4822 3.97429 34.7874L1.17923 36.3689C0.06321 36.9983 -0.328868 38.416 0.29948 39.5285L8.51884 54.0447C8.94619 54.7968 9.73045 55.22 10.5398 55.22C10.9268 55.22 11.319 55.123 11.6759 54.9199L14.471 53.3384C15.0089 53.0342 15.396 52.5376 15.5619 51.9398C15.7278 51.3406 15.6523 50.7163 15.3456 50.1783L14.3201 48.3646L16.0494 47.3677L28.8182 50.7886C29.532 50.9816 30.2358 51.0777 30.9296 51.0777C32.3021 51.0777 33.6141 50.6961 34.8507 49.935L52.9232 38.806C54.5572 37.8001 55.075 35.2635 54.0093 33.4849Z" fill="black"/>
<path opacity="0.99" d="M47.114 37.1491C47.0585 37.1492 47.0049 37.1286 46.9637 37.0913C46.9226 37.054 46.8969 37.0026 46.8917 36.9473C46.8865 36.892 46.9022 36.8368 46.9357 36.7924C46.9692 36.7481 47.018 36.7179 47.0726 36.7078C47.1272 36.6976 47.1837 36.7083 47.2308 36.7376C47.278 36.7669 47.3125 36.8128 47.3275 36.8663C47.3425 36.9198 47.337 36.977 47.3121 37.0266C47.2871 37.0762 47.2445 37.1147 47.1926 37.1345L47.1712 37.1413C47.1526 37.1464 47.1334 37.149 47.114 37.1491ZM46.1573 36.8413C46.1255 36.8414 46.0942 36.834 46.0657 36.8199C46.0373 36.8057 46.0125 36.7851 45.9934 36.7597L45.9835 36.7462C45.9672 36.7234 45.9556 36.6977 45.9493 36.6704C45.943 36.6431 45.9421 36.6149 45.9467 36.5873C45.9513 36.5597 45.9613 36.5332 45.9761 36.5095C45.9909 36.4857 46.0103 36.4651 46.0331 36.4489C46.0558 36.4326 46.0816 36.421 46.1089 36.4147C46.1361 36.4084 46.1644 36.4075 46.192 36.4121C46.2196 36.4167 46.246 36.4267 46.2698 36.4415C46.2935 36.4563 46.3141 36.4757 46.3304 36.4984C46.3541 36.5305 46.3684 36.5684 46.3717 36.6081C46.3751 36.6478 46.3673 36.6876 46.3494 36.7231C46.3315 36.7587 46.304 36.7885 46.2701 36.8094C46.2362 36.8303 46.1971 36.8413 46.1573 36.8413ZM47.7133 36.3394H47.7101C47.6536 36.3386 47.5997 36.3154 47.5603 36.2749C47.5209 36.2343 47.4992 36.1798 47.5 36.1233C47.5 36.1194 47.5 36.1154 47.5 36.1116C47.5 36.1077 47.5 36.1065 47.5 36.1039C47.4982 36.0469 47.5188 35.9914 47.5574 35.9494C47.5961 35.9074 47.6497 35.8822 47.7067 35.8794C47.7343 35.878 47.762 35.8821 47.788 35.8915C47.8141 35.9009 47.838 35.9154 47.8584 35.9342C47.8788 35.9529 47.8953 35.9755 47.9068 36.0007C47.9184 36.0259 47.9248 36.0531 47.9258 36.0808V36.0914C47.9258 36.0959 47.9258 36.1004 47.9258 36.1048C47.9258 36.1091 47.9258 36.1119 47.9258 36.1154V36.1292C47.925 36.185 47.9024 36.2384 47.8627 36.2777C47.823 36.317 47.7695 36.3392 47.7136 36.3394H47.7133ZM46.146 35.8326C46.1076 35.8325 46.07 35.822 46.0371 35.8021C46.0042 35.7823 45.9773 35.7538 45.9594 35.7199C45.9414 35.6859 45.933 35.6478 45.9351 35.6094C45.9372 35.5711 45.9497 35.534 45.9712 35.5022L45.9789 35.4915C45.9952 35.4688 46.0158 35.4494 46.0395 35.4346C46.0633 35.4198 46.0897 35.4098 46.1173 35.4052C46.1449 35.4006 46.1732 35.4015 46.2005 35.4078C46.2277 35.4141 46.2535 35.4257 46.2763 35.442C46.299 35.4583 46.3184 35.4789 46.3332 35.5026C46.348 35.5263 46.358 35.5528 46.3626 35.5804C46.3672 35.608 46.3663 35.6362 46.36 35.6635C46.3537 35.6908 46.3421 35.7165 46.3258 35.7393C46.3055 35.7682 46.2786 35.7917 46.2473 35.8079C46.216 35.8241 46.1813 35.8326 46.146 35.8326ZM47.1073 35.5065C47.086 35.5065 47.0649 35.5032 47.0445 35.4969C46.9899 35.4805 46.9439 35.4433 46.9164 35.3933C46.889 35.3434 46.8822 35.2846 46.8977 35.2297C46.9052 35.2031 46.918 35.1782 46.9352 35.1566C46.9525 35.1349 46.9739 35.1169 46.9981 35.1036C47.0224 35.0903 47.0491 35.0819 47.0766 35.079C47.1041 35.0761 47.1319 35.0786 47.1585 35.0866L47.1691 35.09C47.2179 35.105 47.2597 35.137 47.287 35.1802C47.3142 35.2234 47.325 35.2749 47.3174 35.3254C47.3098 35.3759 47.2843 35.422 47.2456 35.4553C47.2069 35.4886 47.1575 35.5069 47.1065 35.5069L47.1073 35.5065Z" fill="#111111"/>
<path fill-rule="evenodd" clip-rule="evenodd" d="M33.5334 0.190186C33.6834 0.190186 33.8349 0.237036 33.9743 0.330737C34.2525 0.516576 34.4414 0.877324 34.4429 1.28102V1.28648C34.443 1.34749 34.4565 1.40767 34.4826 1.4623C34.5087 1.51693 34.5466 1.56453 34.5933 1.60137C34.64 1.6382 34.6942 1.66328 34.7518 1.67462C34.8094 1.68596 34.8687 1.68327 34.9251 1.66675C34.937 1.66262 34.9488 1.65793 34.9603 1.6527C35.042 1.61826 35.1094 1.55495 35.1507 1.47388C35.18 1.41615 35.1949 1.35174 35.1942 1.28648L35.1927 1.28102C35.195 0.878105 35.3832 0.515795 35.6614 0.330737C35.9418 0.143335 36.2634 0.143335 36.5431 0.330737C36.8228 0.517357 37.0117 0.881228 37.0117 1.28648C37.0114 1.29585 37.0114 1.30523 37.0117 1.31459C37.0162 1.39322 37.0434 1.46861 37.0897 1.53089C37.1378 1.59586 37.2043 1.64342 37.2798 1.66681C37.3553 1.69019 37.436 1.68822 37.5103 1.66117C37.5847 1.63411 37.649 1.58336 37.6941 1.5161C37.7392 1.44884 37.7628 1.3685 37.7615 1.28648C37.7615 0.881228 37.952 0.517357 38.2316 0.330737C38.5113 0.143335 38.8322 0.143335 39.1119 0.330737C39.3893 0.515015 39.5768 0.8742 39.5805 1.27477L39.579 1.28648C39.5788 1.38988 39.6174 1.48926 39.6866 1.56339C39.7559 1.63752 39.8502 1.6805 39.9494 1.68315C39.9993 1.68367 40.0487 1.67384 40.0949 1.65426L40.0979 1.6527C40.1672 1.6225 40.2264 1.57162 40.2681 1.50645C40.3097 1.44128 40.3319 1.36475 40.3318 1.28648L40.3303 1.27477C40.3341 0.8742 40.5223 0.515015 40.7989 0.329956C41.0786 0.144116 41.3988 0.144116 41.6792 0.329956C41.9559 0.515015 42.1433 0.87342 42.1478 1.27321C42.1403 2.45071 41.683 3.58215 40.8589 4.46996H33.9151C33.0918 3.58215 32.6337 2.45071 32.6269 1.27321C32.6307 0.87342 32.8189 0.515015 33.0956 0.330737C33.235 0.237036 33.3842 0.190186 33.5349 0.190186H33.5334ZM34.3875 5.25002H40.4353V6.25262H34.3875V5.25002ZM34.2248 7.03346H40.5485C46.5806 12.2713 48.1417 17.0298 48.1417 20.5779V20.9863C48.1417 22.5066 47.1092 23.93 45.3179 24.999C43.5267 26.0672 41.0081 26.745 38.2114 26.745H36.5619C33.7651 26.745 31.2458 26.0672 29.4553 24.999C27.6641 23.93 26.6316 22.5066 26.6316 20.9863V20.5779C26.6316 17.0298 28.1927 12.2713 34.2248 7.03346ZM37.3716 11.909C34.2652 11.909 31.7632 14.5381 31.7632 17.7637C31.7632 20.9902 34.2652 23.6216 37.3716 23.6216C40.478 23.6216 43.0101 20.9933 43.0101 17.7637C43.0097 17.7119 42.9996 17.6607 42.9801 17.613C42.8991 14.4585 40.4263 11.909 37.3716 11.909ZM37.3716 12.6899C40.0731 12.6899 42.2603 14.9598 42.2603 17.7637C42.2603 20.5685 40.0731 22.8408 37.3716 22.8408C36.732 22.8415 36.0985 22.7105 35.5077 22.4554C34.9168 22.2003 34.3802 21.8261 33.9286 21.3543C33.4771 20.8825 33.1196 20.3224 32.8767 19.7062C32.6337 19.09 32.5101 18.4299 32.513 17.7637C32.5102 17.0978 32.6339 16.4379 32.8769 15.8219C33.1199 15.2059 33.4775 14.6461 33.929 14.1745C34.3806 13.703 34.9172 13.329 35.508 13.0743C36.0988 12.8195 36.7322 12.6888 37.3716 12.6899ZM35.5121 15.0308V15.0386H35.4964V15.8195H36.2649C36.9645 15.8195 37.3191 16.1638 37.4466 16.5925H35.5121V17.3733H37.4466C37.3191 17.802 36.9652 18.1479 36.2649 18.1479H36.001L35.9965 18.1432L35.9928 18.1479H35.4957V18.9288H35.6951L38.0045 21.2791L38.5293 20.7208L36.7223 18.8819C37.0858 18.8109 37.4212 18.6299 37.6865 18.3616C37.9519 18.0933 38.1355 17.7496 38.2144 17.3733H39.2371V16.5925H38.2144C38.1526 16.3073 38.0295 16.0403 37.8545 15.8117H39.2371V15.0308H35.5121Z" fill="#DE9CD9"/>
</svg>
