<svg width="52" height="61" viewBox="0 0 52 61" fill="none" xmlns="http://www.w3.org/2000/svg">
<path fill-rule="evenodd" clip-rule="evenodd" d="M7.65153 16.6258L8.21422 12.9081L9.14185 13.6874C10.32 12.0803 11.7601 10.8536 13.4987 10.0335C14.1448 9.73546 14.6034 10.7768 13.9573 11.0749C12.3893 11.8269 11.0836 12.9595 9.99742 14.4145L10.8038 15.0516L7.65153 16.6258Z" fill="#E8C2EB"/>
<path fill-rule="evenodd" clip-rule="evenodd" d="M34.8496 11.5605L35.5246 7.81998L36.5176 8.58601C37.8238 6.95284 39.4078 5.69698 41.3084 4.84398C42.0147 4.53375 42.4942 5.57088 41.7879 5.88111C40.0736 6.66288 38.6371 7.82202 37.4333 9.30093L38.2972 9.92633L34.8496 11.5605Z" fill="#B6B6B4"/>
<path fill-rule="evenodd" clip-rule="evenodd" d="M23.6724 7.47403L24.3475 3.73349L25.3405 4.49952C26.6467 2.86635 28.2306 1.61049 30.1312 0.757496C30.8375 0.447265 31.317 1.48439 30.6108 1.79462C28.8964 2.57639 27.46 3.73553 26.2562 5.21444L27.1201 5.83984L23.6724 7.47403Z" fill="#C066BD"/>
<path fill-rule="evenodd" clip-rule="evenodd" d="M13.2403 7.47403L13.9154 3.73349L14.9084 4.49952C16.2146 2.86635 17.7985 1.61049 19.6991 0.757496C20.4054 0.447265 20.8849 1.48439 20.1786 1.79462C18.4643 2.57639 17.0279 3.73553 15.8241 5.21444L16.6879 5.83984L13.2403 7.47403Z" fill="#DE9CD9"/>
<path d="M36.794 53.7829L2.58052 58.4181C1.74377 58.5108 1 57.8619 1 57.0276V29.4946C1 28.753 1.55783 28.1967 2.20863 28.104L36.794 23.3762C40.048 23.3762 42.6512 26.25 42.6512 29.68V47.3864C42.6512 50.9091 40.048 53.7829 36.794 53.7829Z" fill="#EF5224"/>
<path d="M1 29.4946C1 28.753 1.55783 28.1967 2.20863 28.104L36.794 23.3762C40.048 23.3762 42.6512 26.25 42.6512 29.68V47.3864C42.6512 50.9091 40.048 53.6902 36.794 53.6902L2.58052 58.3254C1.74377 58.4181 1 57.7692 1 56.9349" stroke="#231F20" stroke-width="1.5" stroke-miterlimit="10" stroke-linecap="round" stroke-linejoin="round"/>
<path d="M29.7395 8.93518L45.1473 19.1476L30.9424 40.4557L15.5345 30.2433L29.7395 8.93518Z" fill="#FAFDFF"/>
<path d="M31.0354 40.4797L17.4615 32.0436L31.5932 10.7218L44.9811 19.5286L31.0354 40.4797Z" fill="#B6B6B4"/>
<path d="M31.0349 40.4799L27.595 37.8842L41.4477 17.2113L44.9806 19.5289L31.0349 40.4799Z" fill="#CFC7BC"/>
<path d="M43.4936 21.7536L31.0354 40.4797L15.6022 30.1896L29.7338 8.96051L45.1671 19.1579L44.7023 19.8995" stroke="#EEE7D7" stroke-width="1.5" stroke-miterlimit="10" stroke-linecap="round" stroke-linejoin="round"/>
<path d="M16.0963 9.41876L34.0486 13.8796L27.8439 38.7065L9.8916 34.2457L16.0963 9.41876Z" fill="#FAFDFF"/>
<path d="M27.8739 38.7176L12.2546 35.2875L18.4837 10.4429L34.01 14.3365L27.8739 38.7176Z" fill="#DE9CD9"/>
<path d="M27.874 38.7178L23.8762 37.42L29.8264 13.317L34.0101 14.3368L27.874 38.7178Z" fill="#E8C2EB"/>
<path d="M31.1285 25.5539L27.8745 38.7178L9.93103 34.268L14.2077 17.2106M14.8585 14.6149L16.0671 9.42346L34.1036 13.8732L31.6864 23.4217" stroke="#C066BD" stroke-width="1.5" stroke-miterlimit="10" stroke-linecap="round" stroke-linejoin="round"/>
<path d="M39.7694 58.7895H4.44024C2.58081 58.7895 1.09326 57.3062 1.09326 55.4522V31.72C1.09326 29.8659 2.58081 28.3827 4.44024 28.3827H39.8624C43.4883 28.3827 46.3704 31.2565 46.3704 34.8719V52.3929C46.2774 55.9157 43.3953 58.7895 39.7694 58.7895Z" fill="#EF5224"/>
<path d="M42.6512 58.7896H1.74377C1.27891 58.7896 1 58.4188 1 58.048V29.2172C1 28.7536 1.37189 28.4755 1.74377 28.4755H42.6512V58.7896Z" fill="#D79480"/>
<path d="M3.88212 58.4187H2.11566C1.55783 58.4187 1 57.9551 1 57.3062V29.4951C1 28.9389 1.46486 28.3827 2.11566 28.3827H3.88212V58.4187Z" fill="#FAFDFF"/>
<path d="M1 39.7852V29.7732C1 29.0316 1.6508 28.3827 2.39457 28.3827H39.8621C43.395 28.3827 46.1842 31.2565 46.1842 34.6865V52.3929C46.1842 55.9157 43.302 58.6968 39.8621 58.6968H20.8959M1 47.4796V41.9174M18.3857 58.7895H2.48754C1.74377 58.7895 1.09297 58.1406 1.09297 57.3989V49.7045" stroke="#231F20" stroke-width="1.5" stroke-miterlimit="10" stroke-linecap="round" stroke-linejoin="round"/>
<path d="M9.64646 31.2568C7.41514 31.2568 5.64868 33.0181 5.64868 35.243M5.64868 37.2825V38.2095M5.64868 50.3537V55.6378" stroke="white" stroke-width="1.5" stroke-miterlimit="10" stroke-linecap="round"/>
<path d="M33.7445 53.9203C36.5275 51.5723 38.1384 48.9084 37.3424 47.9704C36.5464 47.0323 33.645 48.1753 30.862 50.5233C28.0789 52.8713 26.468 55.5352 27.264 56.4733C28.06 57.4113 30.9614 56.2683 33.7445 53.9203Z" fill="#FBD108"/>
<path d="M27.311 56.4717C28.1478 57.3987 31.0299 56.2863 33.819 53.9687C36.6082 51.6511 38.1887 48.9627 37.352 48.0356L39.7692 50.9095C40.606 51.8365 39.0254 54.5249 36.2363 56.8425C33.4472 59.1601 30.565 60.2725 29.7283 59.3455L27.311 56.4717Z" fill="#FBD108"/>
<path d="M32.9821 58.9756L32.7961 59.0683C31.7734 59.9026 30.1929 59.8099 29.3562 58.7902L28.0546 57.2142V57.1215L30.8437 56.4726L32.9821 58.9756Z" fill="#FAFDFF"/>
<path d="M38.468 54.7101L39.2118 53.6904C40.2344 52.856 40.4204 51.2801 39.4907 50.2603L38.1891 48.6844H38.0961L36.4226 52.2071L38.468 54.7101Z" fill="#F9AE19"/>
<path d="M27.4042 56.5639C28.2409 57.4909 31.123 56.3785 33.9122 54.0609C36.7013 51.7433 38.2818 49.0549 37.4451 48.1279L39.8624 51.0017C40.6991 51.9287 39.1186 54.6171 36.3294 56.9347C33.5403 59.2523 30.6582 60.3647 29.8214 59.4377L27.4042 56.5639Z" stroke="#231F20" stroke-width="1.5" stroke-miterlimit="10" stroke-linecap="round" stroke-linejoin="round"/>
<path d="M33.8841 54.0927C36.6672 51.7447 38.278 49.0808 37.4821 48.1427C36.6861 47.2047 33.7847 48.3477 31.0016 50.6957C28.2185 53.0437 26.6077 55.7076 27.4037 56.6456C28.1997 57.5837 31.1011 56.4407 33.8841 54.0927Z" stroke="#231F20" stroke-width="1.5" stroke-miterlimit="10" stroke-linecap="round" stroke-linejoin="round"/>
<path d="M44.046 47.7575C47.6917 47.7575 50.647 46.7614 50.647 45.5326C50.647 44.3039 47.6917 43.3077 44.046 43.3077C40.4004 43.3077 37.4451 44.3039 37.4451 45.5326C37.4451 46.7614 40.4004 47.7575 44.046 47.7575Z" fill="#FBD108"/>
<path d="M37.5378 45.5333C37.5378 46.7385 40.5129 47.7582 44.1388 47.7582C47.7647 47.7582 50.7398 46.7385 50.7398 45.5333V49.3342C50.7398 50.5393 47.7647 51.5591 44.1388 51.5591C40.5129 51.5591 37.5378 50.5393 37.5378 49.3342V45.5333Z" fill="#FBD108"/>
<path d="M40.234 51.0942H40.0481C38.6535 51.0942 37.5378 49.9818 37.5378 48.5912V46.5518C37.5378 46.459 37.5378 46.459 37.6308 46.459L40.234 47.7569V51.0942Z" fill="#FAFDFF"/>
<path d="M47.207 51.3723L48.4157 51.0942C49.8102 51.0942 50.9259 49.9818 50.9259 48.5912V46.5518C50.9259 46.459 50.9259 46.459 50.8329 46.459L47.207 48.035V51.3723Z" fill="#F9AE19"/>
<path d="M37.5378 45.626C37.5378 46.8311 40.5129 47.8509 44.1388 47.8509C47.7647 47.8509 50.7398 46.8311 50.7398 45.626V49.4268C50.7398 50.632 47.7647 51.6517 44.1388 51.6517C40.5129 51.6517 37.5378 50.632 37.5378 49.4268V45.626Z" stroke="#231F20" stroke-width="1.5" stroke-miterlimit="10" stroke-linecap="round" stroke-linejoin="round"/>
<path d="M37.5378 49.52C37.5378 50.7251 40.5129 51.7448 44.1388 51.7448C47.7647 51.7448 50.7398 50.7251 50.7398 49.52V53.3208C50.7398 54.526 47.7647 55.5457 44.1388 55.5457C40.5129 55.5457 37.5378 54.526 37.5378 53.3208V49.52Z" fill="#FBD108"/>
<path d="M40.234 55.0809H40.0481C38.6535 55.0809 37.5378 53.9685 37.5378 52.5779V50.5384C37.5378 50.4457 37.5378 50.4457 37.6308 50.4457L40.234 51.7436V55.0809Z" fill="#FAFDFF"/>
<path d="M47.207 55.452L48.4157 55.1739C49.8102 55.1739 50.9259 54.0614 50.9259 52.6709V50.6314C50.9259 50.5387 50.9259 50.5387 50.8329 50.5387L47.207 52.1147V55.452Z" fill="#F9AE19"/>
<path d="M37.5378 49.7046C37.5378 50.9097 40.5129 51.9295 44.1388 51.9295C47.7647 51.9295 50.7398 50.9097 50.7398 49.7046V53.5054C50.7398 54.7106 47.7647 55.7303 44.1388 55.7303C40.5129 55.7303 37.5378 54.7106 37.5378 53.5054V49.7046Z" stroke="#231F20" stroke-width="1.5" stroke-miterlimit="10" stroke-linecap="round" stroke-linejoin="round"/>
<path d="M37.5378 53.5972C37.5378 54.8023 40.5129 55.8221 44.1388 55.8221C47.7647 55.8221 50.7398 54.8023 50.7398 53.5972V57.398C50.7398 58.6032 47.7647 59.6229 44.1388 59.6229C40.5129 59.6229 37.5378 58.6032 37.5378 57.398V53.5972Z" fill="#FBD108"/>
<path d="M40.234 59.1608H40.0481C38.6535 59.1608 37.5378 58.0483 37.5378 56.6578V54.6183C37.5378 54.5256 37.5378 54.5256 37.6308 54.5256L40.234 55.8234V59.1608Z" fill="#FAFDFF"/>
<path d="M47.207 59.5316L48.4157 59.2535C49.8102 59.2535 50.9259 58.141 50.9259 56.7505V54.711C50.9259 54.6183 50.9259 54.6183 50.8329 54.6183L47.207 56.1942V59.5316Z" fill="#F9AE19"/>
<path d="M37.5378 53.7825C37.5378 54.9876 40.5129 56.0074 44.1388 56.0074C47.7647 56.0074 50.7398 54.9876 50.7398 53.7825V57.5833C50.7398 58.7885 47.7647 59.8082 44.1388 59.8082C40.5129 59.8082 37.5378 58.7885 37.5378 57.5833V53.7825Z" stroke="#231F20" stroke-width="1.5" stroke-miterlimit="10" stroke-linecap="round" stroke-linejoin="round"/>
<path d="M44.046 47.8503C47.6917 47.8503 50.647 46.8542 50.647 45.6255C50.647 44.3967 47.6917 43.4006 44.046 43.4006C40.4004 43.4006 37.4451 44.3967 37.4451 45.6255C37.4451 46.8542 40.4004 47.8503 44.046 47.8503Z" stroke="#231F20" stroke-width="1.5" stroke-miterlimit="10" stroke-linecap="round" stroke-linejoin="round"/>
<path d="M21.3075 17.198L21.0913 17.965C20.8189 17.9607 20.5487 18.0125 20.2973 18.1169L20.6114 17.0028C20.6374 16.9108 20.6256 16.8122 20.5786 16.7288C20.5317 16.6454 20.4535 16.5841 20.3612 16.5582C20.2689 16.5323 20.17 16.544 20.0864 16.5908C20.0028 16.6376 19.9412 16.7156 19.9153 16.8077L18.8388 20.6253C18.8129 20.7173 18.8247 20.8159 18.8716 20.8993C18.9185 20.9827 18.9967 21.044 19.0891 21.0699C19.1814 21.0958 19.2802 21.0841 19.3638 21.0373C19.4475 20.9905 19.509 20.9125 19.535 20.8204L19.8775 19.6057C19.9429 19.3768 20.0719 19.171 20.2496 19.0121C20.4273 18.8532 20.6465 18.7477 20.8818 18.7077L20.2311 21.0156C20.2051 21.1076 20.2169 21.2062 20.2638 21.2896C20.3108 21.373 20.389 21.4343 20.4813 21.4602C20.5736 21.4861 20.6724 21.4744 20.7561 21.4276C20.8397 21.3808 20.9013 21.3028 20.9272 21.2107L21.6122 18.7813C21.8896 18.904 22.1135 19.1219 22.2432 19.3954C22.3729 19.669 22.3997 19.9798 22.3188 20.2714L21.9714 21.5035C21.9652 21.5192 21.9606 21.5354 21.9577 21.5521C21.9476 21.574 21.941 21.5975 21.9381 21.6215C21.9395 21.6474 21.945 21.6729 21.9543 21.6972L21.967 21.7456C21.9788 21.7695 21.9941 21.7914 22.0124 21.8108C22.0246 21.8268 22.0379 21.8418 22.0523 21.8557C22.0722 21.8646 22.0934 21.8705 22.115 21.8733C22.1427 21.9077 22.1797 21.9337 22.2216 21.9481C22.2373 21.9543 22.2537 21.9588 22.2703 21.9618C22.2924 21.9718 22.3159 21.9784 22.3399 21.9813C22.3659 21.9799 22.3915 21.9744 22.4159 21.9651C22.4159 21.9651 22.4437 21.9729 22.4645 21.9525L25.488 20.5532C25.5751 20.513 25.6425 20.4401 25.6756 20.3503C25.7086 20.2605 25.7046 20.1614 25.6643 20.0746C25.624 19.9878 25.5508 19.9205 25.4608 19.8876C25.3708 19.8546 25.2713 19.8587 25.1843 19.8988L22.8808 20.942L23.01 20.4839C23.1467 20.0069 23.099 19.4961 22.8765 19.0524C22.6539 18.6088 22.2727 18.2644 21.8079 18.0872L22.0036 17.3931C22.0296 17.3011 22.0178 17.2025 21.9709 17.1191C21.924 17.0357 21.8457 16.9744 21.7534 16.9485C21.6611 16.9226 21.5623 16.9343 21.4787 16.9811C21.395 17.0279 21.3335 17.1059 21.3075 17.198Z" fill="white"/>
</svg>
