<svg width="183" height="60" viewBox="0 0 183 60" fill="none" xmlns="http://www.w3.org/2000/svg">
<path d="M168.427 0.000192368H14.5812C14.0204 0.000192368 13.4664 0.000192368 12.9071 0.00315187C12.4389 0.00611137 11.9744 0.0147087 11.5017 0.0219447C10.4748 0.0336374 9.45036 0.121053 8.4372 0.283431C7.42546 0.449345 6.44542 0.762139 5.53022 1.21123C4.61613 1.66413 3.78091 2.25262 3.05485 2.95536C2.32497 3.65612 1.71656 4.4661 1.25302 5.35417C0.788192 6.24046 0.465881 7.19021 0.297216 8.17061C0.126947 9.14976 0.0353239 10.1402 0.0231686 11.1331C0.00897688 11.5868 0.00747818 12.042 0 12.4957V46.699C0.00747818 47.1585 0.00897688 47.6036 0.0231686 48.0632C0.0353276 49.056 0.126951 50.0464 0.297216 51.0255C0.465415 52.0065 0.787745 52.9568 1.25302 53.8434C1.71635 54.7286 2.32485 55.5353 3.05485 56.2322C3.77816 56.9381 4.61392 57.5269 5.53022 57.9764C6.44541 58.4267 7.42535 58.7413 8.4372 58.9098C9.45053 59.0709 10.4749 59.1583 11.5017 59.1714C11.9744 59.1815 12.4389 59.1873 12.9071 59.1873C13.4663 59.1902 14.0204 59.1902 14.5812 59.1902H168.427C168.977 59.1902 169.535 59.1902 170.085 59.1873C170.551 59.1873 171.029 59.1815 171.495 59.1714C172.52 59.159 173.542 59.0716 174.553 58.9098C175.568 58.7401 176.552 58.4256 177.471 57.9764C178.387 57.5267 179.222 56.9378 179.945 56.2322C180.673 55.5326 181.282 54.7265 181.751 53.8434C182.213 52.9562 182.533 52.0059 182.698 51.0255C182.869 50.0463 182.964 49.0561 182.982 48.0632C182.988 47.6036 182.988 47.1585 182.988 46.699C183 46.1615 183 45.6268 183 45.0805V14.1113C183 13.5694 183 13.0318 182.988 12.4957C182.988 12.042 182.988 11.5868 182.982 11.133C182.964 10.1401 182.869 9.14984 182.698 8.17055C182.532 7.19072 182.213 6.24104 181.751 5.35411C180.808 3.57408 179.311 2.12515 177.471 1.2111C176.552 0.763103 175.568 0.450392 174.553 0.283298C173.542 0.120204 172.52 0.0327584 171.495 0.0217375C171.029 0.0145164 170.551 0.00584501 170.085 0.0029595C169.535 0 168.977 0 168.427 0V0.000192368Z" fill="#A6A6A6"/>
<path d="M12.9145 57.8951C12.4486 57.8951 11.9939 57.8894 11.5316 57.8793C10.5739 57.8672 9.61852 57.7866 8.67317 57.6379C7.79168 57.4911 6.93775 57.2178 6.13955 56.8272C5.34867 56.4398 4.62732 55.9319 4.00314 55.3229C3.36993 54.721 2.84275 54.023 2.4425 53.2564C2.03783 52.4849 1.75778 51.6578 1.6121 50.8042C1.45477 49.8869 1.36965 48.9594 1.35747 48.0296C1.34778 47.7176 1.33508 46.6785 1.33508 46.6785V12.4954C1.33508 12.4954 1.3486 11.4723 1.35755 11.1717C1.36921 10.2434 1.45384 9.31737 1.61069 8.40152C1.75664 7.54551 2.03691 6.71611 2.44179 5.94203C2.84058 5.17598 3.36483 4.47741 3.99423 3.87341C4.62292 3.26367 5.34657 2.75313 6.1388 2.36041C6.93516 1.97106 7.78748 1.69973 8.66719 1.55551C9.61565 1.40542 10.5744 1.32427 11.5354 1.31275L12.9153 1.29468H170.077L171.474 1.31347C172.426 1.32442 173.376 1.40485 174.316 1.55406C175.204 1.70009 176.065 1.97331 176.871 2.36474C178.458 3.15618 179.749 4.40831 180.564 5.94564C180.963 6.71438 181.239 7.53701 181.383 8.38563C181.541 9.30899 181.63 10.2423 181.648 11.1782C181.653 11.5973 181.653 12.0474 181.653 12.4954C181.665 13.0503 181.665 13.5785 181.665 14.111V45.0802C181.665 45.6178 181.665 46.1424 181.653 46.6712C181.653 47.1524 181.653 47.5933 181.647 48.0469C181.629 48.9661 181.542 49.8828 181.386 50.7897C181.243 51.6495 180.964 52.483 180.56 53.2608C180.157 54.0191 179.632 54.7111 179.007 55.3113C178.382 55.9236 177.659 56.4345 176.867 56.8244C176.063 57.218 175.203 57.4923 174.316 57.6379C173.37 57.7873 172.415 57.868 171.457 57.8793C171.009 57.8894 170.54 57.8951 170.085 57.8951L168.427 57.8981L12.9145 57.8951Z" fill="black"/>
<path d="M37.8785 30.0401C37.895 28.805 38.234 27.594 38.8641 26.5198C39.4942 25.4456 40.3949 24.543 41.4824 23.8961C40.7915 22.9414 39.8802 22.1558 38.8206 21.6015C37.7611 21.0473 36.5826 20.7397 35.3788 20.7033C32.8107 20.4425 30.3211 22.1902 29.0125 22.1902C27.6786 22.1902 25.6637 20.7292 23.4941 20.7724C22.0907 20.8163 20.723 21.2111 19.5242 21.9185C18.3255 22.6259 17.3365 23.6218 16.6537 24.8089C13.6961 29.7638 15.9022 37.0457 18.7354 41.0508C20.1529 43.012 21.8095 45.2027 23.9772 45.125C26.0984 45.0399 26.8906 43.8162 29.4511 43.8162C31.9878 43.8162 32.7311 45.125 34.9428 45.0756C37.2189 45.0399 38.653 43.1057 40.0208 41.126C41.0392 39.7285 41.8229 38.1841 42.3429 36.5498C41.0205 36.0086 39.892 35.1028 39.0981 33.9451C38.3042 32.7875 37.8801 31.4294 37.8785 30.0401Z" fill="white"/>
<path d="M33.7011 18.0691C34.9422 16.6275 35.5536 14.7746 35.4055 12.9038C33.5095 13.0965 31.758 13.9733 30.5002 15.3596C29.8852 16.0368 29.4142 16.8247 29.1141 17.6782C28.814 18.5317 28.6907 19.434 28.7512 20.3336C29.6995 20.3431 30.6378 20.1442 31.4952 19.7519C32.3526 19.3597 33.1068 18.7843 33.7011 18.0691Z" fill="white"/>
<path d="M64.692 40.1598H57.4533L55.715 45.1265H52.6489L59.5053 26.751H62.6908L69.5472 45.1265H66.4289L64.692 40.1598ZM58.203 37.8679H63.9409L61.1123 29.8073H61.0331L58.203 37.8679Z" fill="white"/>
<path d="M84.3546 38.4284C84.3546 42.5917 82.0517 45.2665 78.5765 45.2665C77.6962 45.311 76.8207 45.1148 76.0502 44.7003C75.2798 44.2857 74.6455 43.6697 74.2202 42.9226H74.1544V49.5583H71.3124V31.7291H74.0633V33.9574H74.1156C74.5606 33.2138 75.2055 32.6009 75.9818 32.1839C76.7581 31.7668 77.6368 31.5612 78.5242 31.5889C82.0382 31.5889 84.3546 34.2767 84.3546 38.4284ZM81.4335 38.4284C81.4335 35.716 79.9848 33.9328 77.7745 33.9328C75.6031 33.9328 74.1425 35.7536 74.1425 38.4284C74.1425 41.1278 75.6031 42.9356 77.7745 42.9356C79.9848 42.9356 81.4335 41.1654 81.4335 38.4284Z" fill="white"/>
<path d="M99.5936 38.4284C99.5936 42.5917 97.2908 45.2665 93.8155 45.2665C92.9352 45.311 92.0597 45.1148 91.2892 44.7003C90.5188 44.2857 89.8846 43.6696 89.4592 42.9225H89.3934V49.5583H86.5514V31.7291H89.3023V33.9574H89.3546C89.7995 33.2138 90.4445 32.6009 91.2208 32.1839C91.9971 31.7668 92.8757 31.5612 93.7632 31.5889C97.2773 31.5889 99.5936 34.2767 99.5936 38.4284ZM96.6725 38.4284C96.6725 35.716 95.2238 33.9328 93.0135 33.9328C90.8421 33.9328 89.3815 35.7536 89.3815 38.4284C89.3815 41.1278 90.8421 42.9356 93.0135 42.9356C95.2238 42.9356 96.6725 41.1654 96.6725 38.4284H96.6725Z" fill="white"/>
<path d="M109.665 40.0066C109.876 41.8289 111.705 43.0253 114.205 43.0253C116.601 43.0253 118.324 41.8288 118.324 40.1857C118.324 38.7595 117.285 37.9054 114.824 37.3202L112.363 36.7465C108.875 35.9315 107.256 34.3534 107.256 31.7928C107.256 28.6223 110.112 26.4446 114.167 26.4446C118.179 26.4446 120.93 28.6223 121.023 31.7928H118.154C117.982 29.959 116.416 28.8521 114.126 28.8521C111.837 28.8521 110.27 29.972 110.27 31.602C110.27 32.9012 111.271 33.6656 113.719 34.2508L115.811 34.7479C119.707 35.6395 121.326 37.154 121.326 39.8418C121.326 43.2796 118.496 45.4327 113.995 45.4327C109.783 45.4327 106.94 43.3302 106.756 40.0065L109.665 40.0066Z" fill="white"/>
<path d="M127.46 28.5588V31.7293H130.093V33.907H127.46V41.2928C127.46 42.4402 127.987 42.9748 129.144 42.9748C129.457 42.9696 129.769 42.9483 130.079 42.9112V45.0759C129.559 45.17 129.03 45.2126 128.501 45.2031C125.697 45.2031 124.604 44.1843 124.604 41.5861V33.907H122.591V31.7293H124.604V28.5588H127.46Z" fill="white"/>
<path d="M131.618 38.4285C131.618 34.2133 134.183 31.5645 138.184 31.5645C142.199 31.5645 144.752 34.2132 144.752 38.4285C144.752 42.6554 142.212 45.2926 138.184 45.2926C134.158 45.2926 131.618 42.6553 131.618 38.4285ZM141.857 38.4285C141.857 35.5369 140.487 33.8303 138.184 33.8303C135.881 33.8303 134.513 35.55 134.513 38.4285C134.513 41.3317 135.881 43.0253 138.184 43.0253C140.487 43.0253 141.857 41.3317 141.857 38.4285H141.857Z" fill="white"/>
<path d="M147.095 31.7294H149.806V34.0097H149.872C150.055 33.2975 150.486 32.6682 151.093 32.2274C151.699 31.7866 152.444 31.5612 153.202 31.5892C153.53 31.5881 153.856 31.6226 154.176 31.6919V34.2641C153.762 34.1418 153.331 34.0857 152.899 34.0979C152.486 34.0817 152.074 34.1521 151.692 34.3044C151.31 34.4566 150.967 34.6871 150.685 34.9799C150.404 35.2727 150.192 35.621 150.062 36.0008C149.933 36.3806 149.891 36.783 149.937 37.1802V45.1267H147.095L147.095 31.7294Z" fill="white"/>
<path d="M167.279 41.1915C166.897 43.6235 164.449 45.2926 161.317 45.2926C157.29 45.2926 154.79 42.6814 154.79 38.4921C154.79 34.2899 157.303 31.5645 161.198 31.5645C165.029 31.5645 167.438 34.1107 167.438 38.1727V39.1149H157.659V39.2811C157.613 39.7742 157.677 40.2709 157.846 40.7382C158.014 41.2056 158.284 41.6329 158.636 41.9918C158.988 42.3507 159.415 42.633 159.889 42.8199C160.363 43.0068 160.872 43.0941 161.383 43.0759C162.055 43.1367 162.729 42.9862 163.305 42.6467C163.881 42.3072 164.328 41.7968 164.581 41.1915L167.279 41.1915ZM157.672 37.193H164.594C164.62 36.7497 164.55 36.306 164.39 35.8899C164.23 35.4738 163.983 35.0942 163.664 34.7749C163.345 34.4556 162.961 34.2036 162.537 34.0345C162.113 33.8655 161.657 33.7832 161.198 33.7927C160.735 33.7901 160.276 33.8761 159.848 34.0459C159.42 34.2157 159.031 34.4659 158.703 34.782C158.375 35.0981 158.115 35.4739 157.938 35.8877C157.761 36.3016 157.671 36.7452 157.672 37.193V37.193Z" fill="white"/>
<path d="M57.8469 12.9197C58.4427 12.8783 59.0406 12.9654 59.5975 13.1747C60.1543 13.384 60.6562 13.7102 61.0669 14.1299C61.4777 14.5496 61.787 15.0523 61.9727 15.6017C62.1583 16.1511 62.2157 16.7335 62.1406 17.3069C62.1406 20.1277 60.565 21.7491 57.8469 21.7491H54.5509V12.9197H57.8469ZM55.9682 20.5004H57.6886C58.1144 20.5251 58.5404 20.4575 58.9358 20.3027C59.3312 20.1479 59.6859 19.9098 59.9742 19.6056C60.2624 19.3014 60.477 18.9388 60.6022 18.5443C60.7274 18.1498 60.7601 17.7332 60.6979 17.3249C60.7555 16.9182 60.7195 16.5042 60.5924 16.1126C60.4653 15.721 60.2502 15.3614 59.9626 15.0596C59.675 14.7578 59.322 14.5214 58.9289 14.3671C58.5357 14.2129 58.1122 14.1447 57.6886 14.1674H55.9682V20.5004Z" fill="white"/>
<path d="M63.7416 18.4145C63.6983 17.9766 63.75 17.5348 63.8935 17.1174C64.0371 16.7001 64.2691 16.3163 64.5749 15.9908C64.8807 15.6653 65.2534 15.4052 65.6691 15.2272C66.0848 15.0492 66.5344 14.9573 66.989 14.9573C67.4436 14.9573 67.8932 15.0492 68.309 15.2272C68.7247 15.4052 69.0974 15.6653 69.4032 15.9908C69.709 16.3163 69.941 16.7001 70.0845 17.1174C70.2281 17.5348 70.2798 17.9766 70.2365 18.4145C70.2806 18.8529 70.2295 19.2953 70.0864 19.7134C69.9432 20.1314 69.7113 20.5159 69.4054 20.842C69.0996 21.1682 68.7266 21.4288 68.3105 21.6072C67.8943 21.7856 67.4442 21.8777 66.989 21.8777C66.5339 21.8777 66.0838 21.7856 65.6676 21.6072C65.2515 21.4288 64.8785 21.1682 64.5726 20.842C64.2668 20.5159 64.0349 20.1314 63.8917 19.7134C63.7486 19.2953 63.6974 18.8529 63.7416 18.4145ZM68.8387 18.4145C68.8387 16.9702 68.1681 16.1256 66.9913 16.1256C65.81 16.1256 65.1454 16.9702 65.1454 18.4145C65.1454 19.8705 65.81 20.7086 66.9913 20.7086C68.1681 20.7086 68.8387 19.8647 68.8387 18.4145H68.8387Z" fill="white"/>
<path d="M78.87 21.7489H77.4602L76.037 16.8414H75.9295L74.5122 21.7489H73.1158L71.2177 15.0857H72.5961L73.8297 20.1701H73.9312L75.347 15.0857H76.6508L78.0666 20.1701H78.1741L79.4017 15.0857H80.7607L78.87 21.7489Z" fill="white"/>
<path d="M82.3572 15.0856H83.6654V16.1441H83.767C83.9393 15.7639 84.2298 15.4453 84.5982 15.2325C84.9666 15.0197 85.3944 14.9234 85.822 14.957C86.157 14.9326 86.4935 14.9815 86.8064 15.1C87.1192 15.2186 87.4006 15.4037 87.6295 15.6417C87.8584 15.8797 88.029 16.1645 88.1287 16.475C88.2284 16.7854 88.2547 17.1137 88.2055 17.4353V21.7488H86.8465V17.7655C86.8465 16.6947 86.3656 16.1622 85.3605 16.1622C85.133 16.1519 84.9059 16.1894 84.6948 16.272C84.4836 16.3546 84.2935 16.4804 84.1373 16.6408C83.9811 16.8012 83.8626 16.9924 83.7899 17.2012C83.7173 17.4101 83.6921 17.6316 83.7162 17.8508V21.7488H82.3572L82.3572 15.0856Z" fill="white"/>
<path d="M90.371 12.4846H91.73V21.7489H90.371V12.4846Z" fill="white"/>
<path d="M93.6193 18.4147C93.5761 17.9767 93.6279 17.5349 93.7714 17.1175C93.915 16.7001 94.1471 16.3163 94.4529 15.9908C94.7587 15.6653 95.1314 15.4052 95.5472 15.2272C95.9629 15.0492 96.4126 14.9573 96.8672 14.9573C97.3218 14.9573 97.7714 15.0492 98.1872 15.2272C98.603 15.4052 98.9757 15.6653 99.2815 15.9908C99.5873 16.3163 99.8194 16.7001 99.963 17.1175C100.106 17.5349 100.158 17.9767 100.115 18.4147C100.159 18.853 100.108 19.2954 99.9647 19.7135C99.8216 20.1316 99.5896 20.516 99.2837 20.8422C98.9778 21.1683 98.6048 21.4289 98.1886 21.6073C97.7725 21.7856 97.3224 21.8778 96.8672 21.8778C96.412 21.8778 95.9619 21.7856 95.5457 21.6073C95.1296 21.4289 94.7565 21.1683 94.4507 20.8422C94.1448 20.516 93.9128 20.1316 93.7696 19.7135C93.6265 19.2954 93.5753 18.853 93.6193 18.4147ZM98.7164 18.4147C98.7164 16.9703 98.0459 16.1257 96.869 16.1257C95.6877 16.1257 95.0232 16.9703 95.0232 18.4147C95.0232 19.8706 95.6878 20.7087 96.869 20.7087C98.0459 20.7087 98.7164 19.8648 98.7164 18.4147H98.7164Z" fill="white"/>
<path d="M101.546 19.8647C101.546 18.6653 102.469 17.9739 104.107 17.8756L105.972 17.7715V17.1964C105.972 16.4927 105.491 16.0953 104.562 16.0953C103.804 16.0953 103.278 16.3648 103.127 16.8359H101.811C101.95 15.6914 103.063 14.9573 104.625 14.9573C106.352 14.9573 107.325 15.7889 107.325 17.1964V21.7491H106.017V20.8127H105.909C105.691 21.1486 105.385 21.4224 105.021 21.6062C104.658 21.79 104.251 21.8772 103.841 21.8589C103.552 21.888 103.26 21.8581 102.983 21.7713C102.707 21.6844 102.452 21.5425 102.236 21.3546C102.02 21.1667 101.847 20.937 101.728 20.6804C101.609 20.4238 101.547 20.1459 101.546 19.8647ZM105.972 19.2954V18.7383L104.291 18.8423C103.342 18.9037 102.912 19.2159 102.912 19.8033C102.912 20.403 103.45 20.752 104.189 20.752C104.406 20.7732 104.625 20.752 104.833 20.6897C105.04 20.6275 105.233 20.5253 105.4 20.3894C105.566 20.2535 105.703 20.0866 105.801 19.8987C105.899 19.7107 105.957 19.5055 105.972 19.2954Z" fill="white"/>
<path d="M109.111 18.4145C109.111 16.309 110.23 14.9752 111.97 14.9752C112.4 14.956 112.827 15.0558 113.201 15.2628C113.575 15.4698 113.881 15.7755 114.082 16.1442H114.183V12.4846H115.542V21.7489H114.24V20.6962H114.132C113.916 21.0624 113.6 21.3644 113.219 21.5693C112.838 21.7742 112.406 21.8743 111.97 21.8588C110.218 21.8588 109.111 20.525 109.111 18.4145ZM110.515 18.4145C110.515 19.8278 111.204 20.6782 112.355 20.6782C113.501 20.6782 114.209 19.8155 114.209 18.4203C114.209 17.0316 113.493 16.1566 112.355 16.1566C111.211 16.1566 110.515 17.0128 110.515 18.4145H110.515Z" fill="white"/>
<path d="M121.165 18.4145C121.122 17.9766 121.173 17.5348 121.317 17.1174C121.461 16.7001 121.693 16.3163 121.998 15.9908C122.304 15.6653 122.677 15.4052 123.093 15.2272C123.508 15.0492 123.958 14.9573 124.413 14.9573C124.867 14.9573 125.317 15.0492 125.732 15.2272C126.148 15.4052 126.521 15.6653 126.827 15.9908C127.132 16.3163 127.364 16.7001 127.508 17.1174C127.652 17.5348 127.703 17.9766 127.66 18.4145C127.704 18.8529 127.653 19.2953 127.51 19.7134C127.367 20.1314 127.135 20.5159 126.829 20.842C126.523 21.1682 126.15 21.4288 125.734 21.6072C125.318 21.7856 124.868 21.8777 124.413 21.8777C123.957 21.8777 123.507 21.7856 123.091 21.6072C122.675 21.4288 122.302 21.1682 121.996 20.842C121.69 20.5159 121.458 20.1314 121.315 19.7134C121.172 19.2953 121.121 18.8529 121.165 18.4145ZM126.262 18.4145C126.262 16.9702 125.592 16.1256 124.415 16.1256C123.233 16.1256 122.569 16.9702 122.569 18.4145C122.569 19.8705 123.233 20.7086 124.415 20.7086C125.592 20.7086 126.262 19.8647 126.262 18.4145Z" fill="white"/>
<path d="M129.483 15.0856H130.792V16.1441H130.893C131.065 15.7639 131.356 15.4453 131.724 15.2325C132.093 15.0197 132.521 14.9234 132.948 14.957C133.283 14.9326 133.62 14.9815 133.933 15.1C134.245 15.2186 134.527 15.4037 134.756 15.6417C134.985 15.8797 135.155 16.1645 135.255 16.475C135.355 16.7854 135.381 17.1137 135.332 17.4353V21.7488H133.973V17.7655C133.973 16.6947 133.492 16.1622 132.487 16.1622C132.259 16.1519 132.032 16.1894 131.821 16.272C131.61 16.3546 131.42 16.4804 131.264 16.6408C131.107 16.8012 130.989 16.9924 130.916 17.2012C130.843 17.4101 130.818 17.6316 130.842 17.8508V21.7488H129.483V15.0856Z" fill="white"/>
<path d="M143.011 13.427V15.1163H144.503V16.2239H143.011V19.6502C143.011 20.3482 143.308 20.6538 143.985 20.6538C144.158 20.6533 144.331 20.6431 144.503 20.6234V21.7188C144.259 21.761 144.012 21.7835 143.764 21.786C142.252 21.786 141.651 21.2715 141.651 19.9869V16.2239H140.557V15.1162H141.651V13.427H143.011Z" fill="white"/>
<path d="M146.359 12.4846H147.706V16.1565H147.814C147.995 15.7728 148.293 15.4523 148.669 15.2387C149.045 15.0251 149.479 14.9288 149.914 14.9629C150.247 14.9454 150.58 14.9992 150.889 15.1206C151.199 15.242 151.477 15.428 151.703 15.6652C151.93 15.9025 152.099 16.1852 152.2 16.4932C152.3 16.8012 152.33 17.1269 152.285 17.447V21.749H150.925V17.7714C150.925 16.7071 150.412 16.1681 149.452 16.1681C149.219 16.1496 148.984 16.1806 148.764 16.2591C148.544 16.3376 148.344 16.4617 148.179 16.6226C148.014 16.7835 147.887 16.9774 147.808 17.1907C147.728 17.4039 147.698 17.6315 147.718 17.8574V21.7489H146.359L146.359 12.4846Z" fill="white"/>
<path d="M160.209 19.9499C160.025 20.5588 159.625 21.0856 159.079 21.438C158.534 21.7904 157.878 21.946 157.226 21.8776C156.772 21.8892 156.321 21.8051 155.904 21.6312C155.488 21.4572 155.115 21.1977 154.812 20.8704C154.51 20.5432 154.284 20.1562 154.152 19.7362C154.019 19.3162 153.982 18.8733 154.045 18.4383C153.984 18.002 154.021 17.5581 154.154 17.1369C154.286 16.7156 154.51 16.3268 154.811 15.9967C155.112 15.6666 155.483 15.403 155.899 15.2236C156.314 15.0443 156.765 14.9534 157.22 14.9571C159.136 14.9571 160.292 16.2238 160.292 18.3162V18.775H155.429V18.8487C155.408 19.0932 155.439 19.3394 155.522 19.5713C155.605 19.8033 155.737 20.0159 155.91 20.1957C156.082 20.3754 156.292 20.5182 156.525 20.615C156.758 20.7117 157.009 20.7603 157.263 20.7576C157.588 20.7954 157.917 20.7387 158.209 20.5949C158.501 20.451 158.742 20.2265 158.901 19.9498L160.209 19.9499ZM155.429 17.8025H158.907C158.924 17.5788 158.893 17.3542 158.815 17.143C158.737 16.9318 158.614 16.7388 158.455 16.5762C158.295 16.4136 158.102 16.2852 157.888 16.1991C157.674 16.113 157.444 16.0712 157.212 16.0764C156.977 16.0735 156.744 16.1162 156.526 16.2019C156.308 16.2877 156.111 16.4147 155.944 16.5756C155.778 16.7365 155.647 16.9279 155.558 17.1386C155.47 17.3493 155.426 17.575 155.429 17.8025H155.429Z" fill="white"/>
</svg>
