<svg width="30" height="28" viewBox="0 0 30 28" fill="none" xmlns="http://www.w3.org/2000/svg">
<path fill-rule="evenodd" clip-rule="evenodd" d="M24.5252 0L20.402 10.356L18.0047 7.57514C13.3061 11.5066 8.03225 14.1916 2.08676 15.5341C-0.118688 16.0136 -0.885887 12.7533 1.31956 12.2738C6.68956 11.0273 11.4841 8.53414 15.799 4.9863L13.6895 2.68495L24.5252 0Z" fill="black"/>
<path fill-rule="evenodd" clip-rule="evenodd" d="M0.168945 25.4109H2.85389V21.0959C2.85389 20.4246 3.33338 19.8494 4.00469 19.8494H6.49784C7.16914 19.8494 7.64864 20.4248 7.64864 21.0959V25.4109H9.27874V17.7394C9.27874 17.0681 9.75823 16.4929 10.4295 16.4929H12.9227C13.594 16.4929 14.0735 17.0683 14.0735 17.7394V25.4109H15.8954V14.4794C15.8954 13.8081 16.3749 13.3286 17.0462 13.3286H19.5393C20.2106 13.3286 20.6901 13.8081 20.6901 14.4794V25.4109H22.4161V11.2189C22.4161 10.5476 22.9915 10.0681 23.6626 10.0681H26.1558C26.7312 10.0681 27.3066 10.5476 27.3066 11.2189V25.4109H29.8956V27.9999H0.169645V25.4109H0.168945Z" fill="black"/>
</svg>
