<svg width="34" height="29" viewBox="0 0 34 29" fill="none" xmlns="http://www.w3.org/2000/svg">
<path d="M19.6772 10.0946C19.464 10.0946 19.2509 10.0134 19.0885 9.85079L17.1901 7.95234L18.3672 6.77518L19.6773 8.08524L22.7036 5.05896L23.8813 6.23612L20.2664 9.85109C20.1031 10.0134 19.8899 10.0946 19.6773 10.0946L19.6772 10.0946Z" fill="black"/>
<path d="M28.5944 25.874C28.5944 27.4267 27.331 28.6901 25.7784 28.6901C24.2254 28.6901 22.962 27.4267 22.962 25.874C22.962 24.3211 24.2254 23.058 25.7784 23.058C27.331 23.058 28.5944 24.3211 28.5944 25.874Z" fill="black"/>
<path d="M16.8532 23.8826C17.9531 24.9824 17.9531 26.7656 16.8532 27.8651C15.7534 28.9649 13.9706 28.9649 12.8708 27.8651C11.7709 26.7656 11.7709 24.9824 12.8708 23.8826C13.9706 22.7831 15.7534 22.7831 16.8532 23.8826Z" fill="black"/>
<path d="M33.6783 7.08937C33.5608 6.92673 33.3723 6.83009 33.1716 6.83009L27.9344 6.8298C27.6159 3.01052 24.4062 0 20.5061 0C16.6056 0 13.3953 3.01052 13.0768 6.8298H8.49669L6.64308 1.27352C6.50155 0.848634 6.10372 0.561998 5.65561 0.561998L0 0.562295V2.64365H4.9057L10.8274 20.395C10.9731 20.8312 11.379 21.1068 11.8149 21.1068C11.8214 21.1068 11.8286 21.1068 11.8354 21.1065H28.8256C29.0944 21.1065 29.3331 20.9347 29.4179 20.6799L33.7637 7.65236C33.8277 7.46117 33.7956 7.25185 33.6781 7.08921L33.6783 7.08937ZM20.5062 13.2439C17.3137 13.2439 14.7162 10.6466 14.7162 7.45443C14.7162 7.24332 14.7275 7.03519 14.7498 6.83003C15.062 3.93071 17.5245 1.6653 20.5059 1.6653C23.4866 1.6653 25.9489 3.93071 26.261 6.83003C26.2836 7.03519 26.2946 7.24332 26.2946 7.45443C26.2952 10.6466 23.6981 13.2439 20.5062 13.2439Z" fill="black"/>
</svg>
