<svg width="33" height="29" viewBox="0 0 33 29" fill="none" xmlns="http://www.w3.org/2000/svg">
<path d="M19.3622 4.38293H11.3288C11.0384 4.38293 10.8036 4.61795 10.8036 4.9081V12.9409C10.8036 13.2313 11.0386 13.4661 11.3288 13.4661H19.3616C19.652 13.4661 19.8868 13.2311 19.8868 12.9409V4.9081C19.8868 4.61795 19.6517 4.38293 19.3618 4.38293H19.3622ZM18.8371 12.4157H11.854V5.43272H18.8371V12.4157ZM30.0238 4.90783V12.9406C30.0238 13.2311 29.7888 13.4658 29.4987 13.4658H21.4658C21.1754 13.4658 20.9407 13.2308 20.9407 12.9406V4.90783C20.9407 4.61742 21.1757 4.38266 21.4658 4.38266H29.4987C29.7891 4.38266 30.0238 4.61768 30.0238 4.90783ZM19.8869 15.2894V23.3222C19.8869 23.6126 19.6518 23.8473 19.3617 23.8473H11.3289C11.0385 23.8473 10.8037 23.6123 10.8037 23.3222V15.2894C10.8037 14.9989 11.0387 14.7642 11.3289 14.7642H19.3617C19.6518 14.7642 19.8869 14.9989 19.8869 15.2894ZM30.0238 15.2894V23.3222C30.0238 23.6126 29.7888 23.8473 29.4987 23.8473H21.4658C21.1754 23.8473 20.9407 23.6123 20.9407 23.3222V15.2894C20.9407 14.9989 21.1757 14.7642 21.4658 14.7642H29.4987C29.7891 14.7642 30.0238 14.9989 30.0238 15.2894ZM32.7815 1.05012V27.1799C32.7815 27.7602 32.3112 28.23 31.7314 28.23H3.93133C3.35103 28.23 2.88121 27.7597 2.88121 27.1799V24.8078H3.93133V27.1799H31.7314V1.05012H3.93133V3.42218H2.88102V1.05012C2.88102 0.469812 3.35131 0 3.93114 0H31.7312C32.3113 0 32.7815 0.470294 32.7815 1.05012ZM2.88121 19.7585V8.47154H3.93133V19.7591H2.88121V19.7585ZM1.4744 23.7576C0.660057 23.7576 0 23.0975 0 22.2829C0 21.4688 0.660057 20.8085 1.4744 20.8085H6.38873C7.20281 20.8085 7.86312 21.4686 7.86312 22.2829C7.86312 23.097 7.20307 23.7573 6.38873 23.7573L1.4744 23.7576ZM1.4744 7.4207C0.660057 7.4207 0 6.76084 0 5.9463C0 5.13223 0.660057 4.47191 1.4744 4.47191H6.38873C7.20281 4.47191 7.86312 5.13196 7.86312 5.9463C7.86312 6.76038 7.20307 7.4207 6.38873 7.4207H1.4744Z" fill="black"/>
</svg>
