<svg width="32" height="28" viewBox="0 0 32 28" fill="none" xmlns="http://www.w3.org/2000/svg">
<path d="M8.96525 9.1875L10.3495 0H3.15L0.14175 7.875C0.049 8.155 0 8.4455 0 8.75C0 10.682 2.0125 12.25 4.49925 12.25C6.79175 12.25 8.687 10.913 8.96525 9.1875ZM15.75 12.25C18.235 12.25 20.2493 10.682 20.2493 8.75C20.2493 8.67825 20.244 8.6065 20.2405 8.53825L19.3498 0H12.1502L11.2578 8.53125C11.2543 8.603 11.2507 8.67475 11.2507 8.75C11.2507 10.682 13.265 12.25 15.75 12.25ZM24.5 14.0805V21H7V14.091C6.2335 14.3675 5.39 14.525 4.49925 14.525C4.158 14.525 3.82725 14.4848 3.5 14.4393V25.55C3.5 26.8975 4.60075 28 5.9465 28H25.55C26.8975 28 28 26.8958 28 25.55V14.441C27.6692 14.4918 27.3354 14.5204 27.0008 14.5267C26.1474 14.5259 25.3009 14.3748 24.5 14.0805ZM31.36 7.875L28.3482 0H21.1505L22.533 9.1735C22.8025 10.906 24.6978 12.25 27.0008 12.25C29.4858 12.25 31.5 10.682 31.5 8.75C31.5 8.4455 31.451 8.155 31.36 7.875Z" fill="black"/>
</svg>
