<svg width="18" height="18" viewBox="0 0 18 18" fill="none" xmlns="http://www.w3.org/2000/svg">
<path fill-rule="evenodd" clip-rule="evenodd" d="M14.9066 16.1997H3.09429C2.4589 16.1997 1.98911 15.5724 2.2294 14.9955C3.34178 12.328 5.95534 10.7998 8.99999 10.7998C12.0455 10.7998 14.6591 12.328 15.7715 14.9955C16.0118 15.5724 15.542 16.1997 14.9066 16.1997ZM5.32535 5.39989C5.32535 3.41453 6.97412 1.79995 8.99999 1.79995C11.0268 1.79995 12.6746 3.41453 12.6746 5.39989C12.6746 7.38526 11.0268 8.99983 8.99999 8.99983C6.97412 8.99983 5.32535 7.38526 5.32535 5.39989ZM17.9602 15.8721C17.2924 12.8491 15.2027 10.618 12.4532 9.6055C13.9103 8.45622 14.7599 6.59772 14.4476 4.56286C14.0858 2.2022 12.0806 0.313174 9.66147 0.0377785C6.32073 -0.342915 3.48758 2.20405 3.48758 5.39989C3.48758 7.10086 4.29217 8.61641 5.54765 9.6055C2.7964 10.618 0.708429 12.8491 0.0397405 15.8721C-0.203255 16.971 0.701231 17.9997 1.84871 17.9997H16.1513C17.2996 17.9997 18.2032 16.971 17.9602 15.8721Z" fill="#2873F0"/>
</svg>
