<svg width="13" height="16" viewBox="0 0 13 16" fill="none" xmlns="http://www.w3.org/2000/svg">
<g opacity="0.6">
<path d="M6.28571 16C6.41461 15.9993 6.53946 15.955 6.64 15.8743C6.85714 15.68 12.5714 11.0743 12.5714 6.28571C12.5714 4.61864 11.9092 3.01984 10.7304 1.84104C9.55159 0.662243 7.95279 0 6.28571 0C4.61864 0 3.01984 0.662243 1.84104 1.84104C0.662243 3.01984 0 4.61864 0 6.28571C0 11.0743 5.71429 15.68 5.93143 15.8743C6.03197 15.955 6.15682 15.9993 6.28571 16ZM1.14286 6.28571C1.14286 4.92174 1.68469 3.61364 2.64917 2.64917C3.61364 1.68469 4.92174 1.14286 6.28571 1.14286C7.64968 1.14286 8.95779 1.68469 9.92226 2.64917C10.8867 3.61364 11.4286 4.92174 11.4286 6.28571C11.4286 9.88571 7.50286 13.6057 6.28571 14.68C5.06857 13.6057 1.14286 9.88571 1.14286 6.28571Z" fill="black"/>
<path d="M9.14397 6.28573C9.14397 5.72064 8.97641 5.16824 8.66246 4.69839C8.34851 4.22853 7.90229 3.86233 7.38021 3.64608C6.85814 3.42983 6.28366 3.37325 5.72943 3.48349C5.1752 3.59373 4.66611 3.86585 4.26653 4.26543C3.86695 4.66501 3.59483 5.1741 3.48459 5.72833C3.37434 6.28256 3.43093 6.85704 3.64718 7.37911C3.86343 7.90119 4.22963 8.34741 4.69949 8.66136C5.16934 8.97531 5.72174 9.14288 6.28683 9.14288C7.04459 9.14288 7.77132 8.84186 8.30714 8.30604C8.84296 7.77022 9.14397 7.04349 9.14397 6.28573ZM4.57255 6.28573C4.57255 5.94668 4.67309 5.61524 4.86146 5.33333C5.04982 5.05141 5.31756 4.83169 5.6308 4.70194C5.94405 4.57219 6.28873 4.53824 6.62127 4.60439C6.95381 4.67053 7.25927 4.8338 7.49901 5.07355C7.73876 5.3133 7.90203 5.61875 7.96818 5.95129C8.03432 6.28383 8.00038 6.62852 7.87063 6.94176C7.74088 7.25501 7.52115 7.52274 7.23924 7.71111C6.95732 7.89948 6.62589 8.00002 6.28683 8.00002C5.83218 8.00002 5.39614 7.81941 5.07465 7.49792C4.75316 7.17643 4.57255 6.74039 4.57255 6.28573Z" fill="black"/>
</g>
</svg>
