<svg width="19" height="14" viewBox="0 0 19 14" fill="none" xmlns="http://www.w3.org/2000/svg">
<path d="M7.02049 13.8182C7.2027 13.8191 7.38103 13.7664 7.53246 13.6669C7.68389 13.5673 7.80148 13.4255 7.87006 13.2596C7.93863 13.0938 7.95505 12.9116 7.91718 12.7365C7.87932 12.5614 7.78892 12.4015 7.65764 12.2774L3.14664 7.82109L18.079 7.82109C19.307 7.82108 19.307 6.014 18.079 6.014L3.14664 6.014L7.65879 1.58276C8.59018 0.739526 7.24175 -0.608963 6.35901 0.305962L0.27716 6.28028L0.204179 6.35197C0.204179 6.37473 0.179851 6.39977 0.155525 6.42367C0.131196 6.44756 0.131196 6.4726 0.10687 6.49649C0.10687 6.51925 0.0813821 6.54429 0.0813821 6.59208L0.0582155 6.59208C0.0582155 6.61712 0.0582136 6.64102 0.0327276 6.66491C0.0327276 6.71271 0.0327276 6.73661 0.00839935 6.76164L0.00839935 6.85723C-0.011994 6.97993 0.00493182 7.10581 0.0570539 7.2191C0.0570539 7.2191 0.0570539 7.243 0.0813822 7.2669L0.0813822 7.29193C0.105709 7.31697 0.10571 7.34086 0.131196 7.36476C0.137165 7.40107 0.154117 7.43478 0.179851 7.46149C0.179851 7.48425 0.204179 7.48425 0.228506 7.50928L0.228506 7.5309L0.252834 7.5548L0.278318 7.5548L0.301488 7.60374L6.35901 13.553C6.53603 13.7224 6.77339 13.8171 7.02049 13.817L7.02049 13.8182Z" fill="white"/>
</svg>
