<svg width="74" height="92" viewBox="0 0 74 92" fill="none" xmlns="http://www.w3.org/2000/svg">
<path d="M38.7546 55.9959L46.6053 48.1449C46.7244 48.0298 46.8195 47.8922 46.8849 47.74C46.9502 47.5878 46.9847 47.4241 46.9861 47.2584C46.9875 47.0928 46.956 46.9285 46.8932 46.7752C46.8305 46.6218 46.7379 46.4825 46.6207 46.3654C46.5036 46.2483 46.3643 46.1556 46.211 46.0929C46.0577 46.0302 45.8934 45.9986 45.7277 46C45.5621 46.0015 45.3984 46.0359 45.2462 46.1013C45.094 46.1667 44.9563 46.2617 44.8412 46.3809L36.9903 54.2315L29.1396 46.3809C28.9048 46.1512 28.5889 46.0234 28.2604 46.0252C27.932 46.027 27.6175 46.1583 27.3852 46.3905C27.1529 46.6228 27.0216 46.9372 27.0198 47.2657C27.0179 47.5941 27.1456 47.9101 27.3753 48.1449L35.2262 55.9959L27.3753 63.8468C27.2573 63.9622 27.1634 64.0998 27.099 64.2518C27.0346 64.4037 27.0009 64.5669 27 64.7319C26.9991 64.8969 27.0309 65.0604 27.0937 65.213C27.1564 65.3657 27.2488 65.5043 27.3655 65.621C27.4822 65.7376 27.6208 65.83 27.7735 65.8927C27.9261 65.9554 28.0897 65.9872 28.2547 65.9863C28.4197 65.9854 28.5828 65.9517 28.7348 65.8873C28.8867 65.8228 29.0243 65.7289 29.1396 65.6109L36.9903 57.7603L44.8412 65.6109C45.0848 65.8545 45.4042 65.9764 45.7232 65.9764C46.0423 65.9764 46.362 65.8545 46.6053 65.6109C46.8392 65.3769 46.9706 65.0597 46.9706 64.7289C46.9706 64.3981 46.8392 64.0808 46.6053 63.8468L38.7546 55.9959Z" fill="#D9D9D9"/>
<path d="M18.8889 25.295V18.2549C18.8889 8.2017 26.8848 0 36.8168 0C46.7489 0 54.7448 8.2017 54.7448 18.2549V25.295H67.1366C67.7043 25.2954 68.2508 25.507 68.6659 25.8871C69.0811 26.2673 69.3341 26.7877 69.374 27.3437L73.6337 88.9444C73.6711 89.5264 73.4729 90.0993 73.082 90.5384C72.6911 90.9775 72.1394 91.2472 71.5469 91.2888H2.23741C1.64401 91.2888 1.07492 91.0574 0.655321 90.6454C0.235726 90.2335 0 89.6748 0 89.0923V88.9444L4.25968 27.3437C4.29785 26.7865 4.5501 26.2643 4.96544 25.8827C5.38078 25.5011 5.92823 25.2885 6.49709 25.288L18.8889 25.295ZM25.6155 25.295H48.0254V18.2549C48.0254 11.7851 43.0056 6.59656 36.8168 6.59656C30.6281 6.59656 25.6155 11.7851 25.6155 18.2549V25.295ZM7.03493 84.6993H66.5988L62.9558 31.8986H10.6851L7.03493 84.6993Z" fill="#D9D9D9"/>
</svg>
