<svg width="15" height="19" viewBox="0 0 15 19" fill="none" xmlns="http://www.w3.org/2000/svg">
<path d="M3.875 5.30806V3.85806C3.875 1.78746 5.49175 0.0982056 7.5 0.0982056C9.50825 0.0982056 11.125 1.78746 11.125 3.85806V5.30806H13.6306C13.7454 5.30814 13.8559 5.35172 13.9398 5.43001C14.0238 5.50831 14.0749 5.6155 14.083 5.73001L14.9443 18.4175C14.9519 18.5374 14.9118 18.6554 14.8327 18.7458C14.7537 18.8363 14.6421 18.8918 14.5223 18.9004H0.508102C0.388118 18.9004 0.273048 18.8527 0.188207 18.7679C0.103365 18.683 0.0557022 18.5679 0.0557022 18.448V18.4175L0.917002 5.73001C0.924719 5.61524 0.975724 5.50769 1.05971 5.42909C1.14369 5.35049 1.25438 5.30672 1.3694 5.30661L3.875 5.30806ZM5.2351 5.30806H9.76635V3.85806C9.76635 2.52551 8.75135 1.45686 7.5 1.45686C6.24865 1.45686 5.2351 2.52551 5.2351 3.85806V5.30806ZM1.47815 17.5432H13.5218L12.7852 6.66816H2.2162L1.47815 17.5432Z" fill="#2873F0"/>
</svg>
