<svg width="16" height="16" viewBox="0 0 16 16" fill="none" xmlns="http://www.w3.org/2000/svg">
<path d="M12.2968 11.4617L10.6696 10.1732C10.329 9.90787 9.84975 9.95845 9.57223 10.2743C9.28213 10.6153 9.08029 10.8301 9.02988 10.8932C8.53794 11.3859 7.49101 10.6785 6.40623 9.59215C5.32145 8.50572 4.60242 7.46996 5.09435 6.96473C5.15744 6.90155 5.37186 6.71211 5.71245 6.4216C6.04038 6.1437 6.0782 5.66364 5.81337 5.32265L4.53934 3.6931C4.31234 3.4152 3.9339 3.31412 3.59331 3.45307C3.15178 3.64251 2.69769 3.971 2.48328 4.17313C1.31025 5.36055 2.33194 8.51849 4.90511 11.0954C7.47831 13.6723 10.6317 14.6955 11.8048 13.5081C12.0192 13.2933 12.3346 12.8386 12.5238 12.3964C12.6752 12.068 12.5743 11.6891 12.2968 11.4617L12.2968 11.4617Z" fill="#2873F0"/>
<path d="M7.92004 6.11838C7.57945 6.02991 7.25151 6.30782 7.27676 6.6615C7.28934 6.88883 7.45335 7.07836 7.68044 7.12886C7.95795 7.19204 8.22279 7.34359 8.43731 7.55832C8.65174 7.77305 8.7905 8.03835 8.86616 8.31628C8.91657 8.54361 9.10584 8.70784 9.33284 8.72054C9.68603 8.74583 9.96353 8.41736 9.87519 8.07634C9.76168 7.62159 9.53459 7.17943 9.16884 6.82576C8.81557 6.47207 8.37415 6.23216 7.92006 6.1184L7.92004 6.11838Z" fill="#2873F0"/>
<path d="M11.3886 8.87223C11.7165 8.89752 11.9688 8.61962 11.9436 8.30382C11.8553 7.24277 11.4013 6.20691 10.5939 5.39849C9.78661 4.59005 8.75224 4.1353 7.69273 4.04684C7.37739 4.02155 7.09988 4.28686 7.12513 4.60266C7.13772 4.85528 7.33956 5.07002 7.59182 5.0953C8.41167 5.17108 9.21894 5.51216 9.84968 6.14375C10.4804 6.77534 10.8335 7.58378 10.8966 8.40485C10.9345 8.65756 11.1364 8.8596 11.3886 8.8723L11.3886 8.87223Z" fill="#2873F0"/>
<path d="M12.0316 3.95839C10.7829 2.70782 9.15568 2.05094 7.5159 2.00043C7.21314 1.98783 6.96087 2.25305 6.98612 2.55626V2.56886C6.9987 2.83417 7.2258 3.04889 7.49062 3.04889C8.87818 3.09938 10.2404 3.64259 11.3 4.70364C12.3595 5.76469 12.9019 7.12896 12.9523 8.51846C12.9649 8.78378 13.1668 8.9985 13.4317 9.02369H13.4443C13.747 9.04898 14.0119 8.79636 13.9993 8.49315C13.9363 6.8384 13.2804 5.20887 12.0316 3.95832L12.0316 3.95839Z" fill="#2873F0"/>
</svg>
