<svg width="17" height="17" viewBox="0 0 17 17" fill="none" xmlns="http://www.w3.org/2000/svg">
<path d="M10.878 16.999C10.3585 16.9738 9.84547 16.8735 9.35476 16.7013C8.99433 16.5727 8.61935 16.4894 8.2384 16.4532C7.87431 16.4722 7.51333 16.5304 7.16173 16.6269C6.42742 16.8055 5.58891 17.0089 4.80497 16.6566C4.02104 16.3044 3.61915 15.5452 3.27184 14.8754C3.11707 14.5451 2.92209 14.2351 2.69134 13.9526C2.41851 13.6901 2.1134 13.4633 1.78336 13.2778C1.14828 12.8858 0.433811 12.4393 0.141077 11.6702C-0.151657 10.9012 0.0666527 10.0875 0.294886 9.37799C0.418839 9.01363 0.497167 8.63532 0.528081 8.25171C0.514403 7.88707 0.456083 7.52548 0.354425 7.17504C0.175808 6.44072 -0.0276176 5.60717 0.324656 4.81828C0.72965 4.12308 1.35718 3.5847 2.10587 3.29011C2.43647 3.13379 2.74645 2.93714 3.02872 2.70464C3.28963 2.43228 3.51624 2.12903 3.7035 1.80163C4.09547 1.14174 4.54201 0.427272 5.31602 0.134538C6.09003 -0.158196 6.89381 0.0849216 7.60827 0.313155C7.96855 0.442218 8.3436 0.525563 8.72463 0.561235C9.08918 0.543188 9.45045 0.483255 9.8013 0.382617C10.5356 0.208961 11.3741 0.00553614 12.1581 0.357809C12.8526 0.758171 13.3925 1.38021 13.6912 2.12414C13.846 2.45448 14.0409 2.76445 14.2717 3.04699C14.5507 3.31088 14.8625 3.53767 15.1995 3.72177C15.8346 4.11374 16.5491 4.56028 16.8418 5.32933C17.1345 6.09837 16.8914 6.91207 16.6781 7.62654C16.5495 7.98697 16.4662 8.36195 16.43 8.7429C16.4437 9.10754 16.502 9.46912 16.6036 9.81957C16.7823 10.5539 16.9857 11.3874 16.6334 12.1763C16.2811 12.9603 15.522 13.3621 14.8522 13.7144C14.521 13.8704 14.2095 14.0653 13.9244 14.2949C13.6639 14.5756 13.439 14.8872 13.2546 15.2227C12.8626 15.8578 12.4161 16.5723 11.647 16.865C11.4011 16.9568 11.1404 17.0022 10.878 16.999ZM8.19374 15.1979H8.27313C8.7637 15.2338 9.24744 15.3339 9.71199 15.4956C10.1816 15.7059 10.7022 15.7748 11.2104 15.6941C11.5875 15.5552 11.8852 15.0689 12.2027 14.5579C12.4446 14.1304 12.7396 13.7353 13.0809 13.382C13.445 13.0742 13.8468 12.8141 14.2767 12.608C14.7738 12.4224 15.2029 12.0902 15.5071 11.6554C15.6312 11.1392 15.5948 10.5974 15.4029 10.1024C15.2685 9.64927 15.1934 9.18061 15.1797 8.70817C15.2156 8.2176 15.3157 7.73386 15.4774 7.26931C15.6876 6.79971 15.7566 6.27905 15.6758 5.77091C15.5319 5.39383 15.0507 5.09613 14.5396 4.77859C14.1121 4.53674 13.717 4.24165 13.3637 3.90039C13.0595 3.53574 12.8027 3.13395 12.5996 2.70464C12.4124 2.20838 12.0806 1.77973 11.647 1.47417C11.1311 1.35043 10.59 1.38501 10.094 1.5734C9.63929 1.71613 9.16644 1.79298 8.6899 1.80163C8.19544 1.76087 7.7084 1.65579 7.24112 1.48905C6.77337 1.28439 6.25609 1.22059 5.75264 1.30547C5.37556 1.44936 5.07786 1.93063 4.76032 2.44168C4.51777 2.86571 4.2227 3.25746 3.88212 3.60765C3.51803 3.9154 3.11621 4.1755 2.68637 4.38166C2.19011 4.56888 1.76146 4.90074 1.4559 5.33429C1.33217 5.85016 1.36675 6.39134 1.55513 6.88727C1.69511 7.34266 1.77191 7.81511 1.78336 8.2914C1.7426 8.78586 1.63752 9.2729 1.47078 9.74018C1.26612 10.2079 1.20232 10.7252 1.2872 11.2287C1.43109 11.6057 1.91237 11.9034 2.42341 12.221C2.85092 12.4628 3.24604 12.7579 3.59931 13.0992C3.90357 13.4638 4.16032 13.8656 4.36339 14.2949C4.55061 14.7912 4.88247 15.2198 5.31602 15.5254C5.83244 15.6469 6.37344 15.6106 6.869 15.4212C7.30027 15.295 7.74492 15.22 8.19374 15.1979Z" fill="#878787"/>
<path d="M7.53882 10.8665C7.45897 10.8674 7.37972 10.8526 7.30564 10.8228C7.23155 10.793 7.1641 10.7488 7.10716 10.6928L5.32099 8.94139C5.263 8.88471 5.21674 8.81715 5.18486 8.74259C5.15298 8.66803 5.13609 8.58792 5.13517 8.50683C5.13425 8.42574 5.14931 8.34527 5.17949 8.27C5.20967 8.19473 5.25438 8.12614 5.31106 8.06815C5.36775 8.01016 5.4353 7.96391 5.50987 7.93203C5.58443 7.90014 5.66454 7.88326 5.74563 7.88234C5.82672 7.88142 5.90719 7.89647 5.98246 7.92665C6.05773 7.95683 6.12632 8.00154 6.1843 8.05823L7.54378 9.38794L10.7837 6.30183C10.8417 6.24097 10.9114 6.19253 10.9887 6.15944C11.0659 6.12636 11.1491 6.10933 11.2331 6.10938C11.3172 6.10942 11.4004 6.12655 11.4776 6.15973C11.5548 6.1929 11.6245 6.24142 11.6824 6.30235C11.7403 6.36327 11.7852 6.43533 11.8144 6.51414C11.8436 6.59296 11.8564 6.67688 11.8522 6.76082C11.848 6.84476 11.8267 6.92696 11.7897 7.00244C11.7528 7.07791 11.7008 7.14508 11.6371 7.19987L7.96552 10.673C7.91065 10.7318 7.8447 10.7791 7.77148 10.8123C7.69825 10.8455 7.61918 10.8639 7.53882 10.8665Z" fill="#878787"/>
</svg>
