<svg width="11" height="11" viewBox="0 0 11 11" fill="none" xmlns="http://www.w3.org/2000/svg">
<path d="M6.4636 5.41409L10.7805 1.45929C10.846 1.40132 10.8983 1.33197 10.9342 1.2553C10.9702 1.17863 10.9891 1.09616 10.9899 1.01272C10.9907 0.929275 10.9733 0.846522 10.9388 0.769288C10.9043 0.692055 10.8534 0.621888 10.789 0.562881C10.7246 0.503875 10.648 0.457211 10.5637 0.425613C10.4794 0.394014 10.389 0.378113 10.2979 0.378838C10.2069 0.379564 10.1168 0.3969 10.0331 0.429836C9.94945 0.462772 9.87375 0.510649 9.81047 0.570671L5.49341 4.52531L1.17653 0.570671C1.04741 0.454983 0.873695 0.390609 0.693087 0.39152C0.512478 0.392431 0.339549 0.458554 0.211826 0.575538C0.0841034 0.692522 0.0118937 0.850929 0.0108672 1.01638C0.0098406 1.18183 0.0800802 1.34098 0.206343 1.45929L4.5234 5.41409L0.206343 9.36888C0.141476 9.427 0.0898388 9.49633 0.0544215 9.57286C0.0190041 9.64938 0.000510085 9.73159 1.04036e-05 9.81471C-0.000489278 9.89783 0.0170153 9.98021 0.0515105 10.0571C0.0860056 10.134 0.136806 10.2038 0.20097 10.2626C0.265134 10.3214 0.341388 10.3679 0.425315 10.3995C0.509242 10.4311 0.599176 10.4471 0.689908 10.4466C0.780641 10.4461 0.870369 10.4292 0.953899 10.3967C1.03743 10.3643 1.1131 10.3169 1.17653 10.2575L5.49341 6.30286L9.81047 10.2575C9.94441 10.3802 10.12 10.4416 10.2955 10.4416C10.4709 10.4416 10.6467 10.3802 10.7805 10.2575C10.9091 10.1397 10.9813 9.97983 10.9813 9.81319C10.9813 9.64655 10.9091 9.48673 10.7805 9.36888L6.4636 5.41409Z" fill="#D9D9D9"/>
</svg>
