<svg width="10" height="16" viewBox="0 0 10 16" fill="none" xmlns="http://www.w3.org/2000/svg">
<path d="M9.17471 5.65801L8.96763 13.38C8.94999 14.0413 8.72386 14.6681 8.33723 15.1274C7.9506 15.5867 7.43391 15.8423 6.89682 15.84H2.96229C2.42555 15.8424 1.90916 15.5871 1.52258 15.1283C1.13601 14.6696 0.909649 14.0434 0.891482 13.3825L0.684402 5.65801C0.679871 5.48885 0.730069 5.3244 0.823953 5.20084C0.917837 5.07728 1.04772 5.00473 1.18502 4.99915C1.32232 4.99357 1.4558 5.05541 1.55609 5.17108C1.65639 5.28674 1.71527 5.44675 1.71981 5.61591L1.92689 13.3398C1.9372 13.6695 2.05082 13.9815 2.24389 14.2102C2.43696 14.4389 2.69445 14.5665 2.96229 14.5663H6.89682C7.16501 14.5665 7.4228 14.4385 7.61592 14.2093C7.80905 13.98 7.92244 13.6674 7.93223 13.3372L8.13931 5.61591C8.14384 5.44675 8.20273 5.28674 8.30302 5.17108C8.40331 5.05541 8.53679 4.99357 8.67409 4.99915C8.8114 5.00473 8.94128 5.07728 9.03516 5.20084C9.12904 5.3244 9.17924 5.48885 9.17471 5.65801ZM9.85963 3.08828C9.85963 3.25743 9.80509 3.41966 9.708 3.53927C9.61091 3.65889 9.47923 3.72608 9.34193 3.72608H0.517702C0.380399 3.72608 0.248719 3.65889 0.151631 3.53927C0.0545433 3.41966 0 3.25743 0 3.08828C0 2.91912 0.0545433 2.75689 0.151631 2.63728C0.248719 2.51766 0.380399 2.45047 0.517702 2.45047H2.12258C2.28661 2.45101 2.44494 2.37635 2.56676 2.24101C2.68857 2.10567 2.76516 1.91933 2.78161 1.71826C2.81982 1.24659 2.99918 0.809341 3.28476 0.491698C3.57035 0.174054 3.94169 -0.0012267 4.32643 6.46284e-06H5.53268C5.91743 -0.0012267 6.28877 0.174054 6.57435 0.491698C6.85993 0.809341 7.0393 1.24659 7.0775 1.71826C7.09396 1.91933 7.17054 2.10567 7.29236 2.24101C7.41417 2.37635 7.5725 2.45101 7.73654 2.45047H9.34141C9.47871 2.45047 9.61039 2.51766 9.70748 2.63728C9.80457 2.75689 9.85911 2.91912 9.85911 3.08828H9.85963ZM3.68034 2.45047H6.17981C6.11178 2.25896 6.06728 2.05604 6.04779 1.84838C6.03497 1.69116 5.97523 1.54541 5.88016 1.43936C5.78509 1.3333 5.66145 1.2745 5.5332 1.27435H4.32695C4.1987 1.2745 4.07506 1.3333 3.97999 1.43936C3.88492 1.54541 3.82518 1.69116 3.81236 1.84838C3.7927 2.05607 3.74803 2.25899 3.67983 2.45047H3.68034ZM4.20167 12.1139V6.68297C4.20167 6.51381 4.14712 6.35158 4.05004 6.23197C3.95295 6.11235 3.82127 6.04516 3.68397 6.04516C3.54666 6.04516 3.41498 6.11235 3.3179 6.23197C3.22081 6.35158 3.16626 6.51381 3.16626 6.68297V12.1165C3.16626 12.2856 3.22081 12.4478 3.3179 12.5675C3.41498 12.6871 3.54666 12.7543 3.68397 12.7543C3.82127 12.7543 3.95295 12.6871 4.05004 12.5675C4.14712 12.4478 4.20167 12.2856 4.20167 12.1165V12.1139ZM6.69389 12.1139V6.68297C6.69389 6.51381 6.63934 6.35158 6.54225 6.23197C6.44517 6.11235 6.31349 6.04516 6.17618 6.04516C6.03888 6.04516 5.9072 6.11235 5.81011 6.23197C5.71302 6.35158 5.65848 6.51381 5.65848 6.68297V12.1165C5.65848 12.2856 5.71302 12.4478 5.81011 12.5675C5.9072 12.6871 6.03888 12.7543 6.17618 12.7543C6.31349 12.7543 6.44517 12.6871 6.54225 12.5675C6.63934 12.4478 6.69389 12.2856 6.69389 12.1165V12.1139Z" fill="black"/>
</svg>
