<svg width="12" height="12" viewBox="0 0 12 12" fill="none" xmlns="http://www.w3.org/2000/svg">
<path d="M4.11108 7.88892L4.11107 7.88891C3.98105 7.75891 3.92461 7.57245 3.9607 7.39216L4.11108 7.88892ZM4.11108 7.88892C4.24117 8.01892 4.42753 8.07537 4.60791 8.03927L6.18021 7.72479C6.18022 7.72479 6.18022 7.72479 6.18023 7.72479C6.28675 7.70352 6.38454 7.65122 6.46134 7.57442L6.42598 7.53907L6.46134 7.57442L10.6843 3.35147C11.172 2.86377 11.172 2.073 10.6843 1.5853L10.6843 1.58529L10.4146 1.31577C9.92689 0.828078 9.13612 0.828072 8.6485 1.31577C8.6485 1.31578 8.6485 1.31578 8.6485 1.31578L4.42555 5.53872C4.34876 5.61552 4.29646 5.7133 4.27519 5.81975C4.27519 5.81975 4.27519 5.81975 4.27519 5.81975L3.9607 7.39215L4.11108 7.88892ZM9.90615 2.57383L9.53136 2.9487L9.05129 2.46863L9.4261 2.09374C9.48426 2.03558 9.57848 2.0356 9.63654 2.09372L9.63656 2.09374L9.90617 2.36335C9.96423 2.42141 9.96426 2.51566 9.90615 2.57383ZM5.20084 6.79896L5.32098 6.19895L8.27343 3.24628L8.7535 3.72635L5.80084 6.67902L5.20084 6.79896Z" fill="#2873F0" stroke="#2873F0" stroke-width="0.1"/>
<path d="M5.50002 3.05003H5.55002V3.00003V2V1.95H5.50002H2.50001C1.64396 1.95 0.95 2.64396 0.95 3.50001V9.50003C0.95 10.3562 1.64396 11.05 2.50001 11.05H8.50003C9.35608 11.05 10.05 10.3562 10.05 9.50003V6.50002V6.45002H10H9.00001H8.95001V6.50002V9.50003C8.95001 9.74858 8.74856 9.95009 8.50003 9.95009H2.50001C2.25147 9.95009 2.04995 9.74857 2.04995 9.50003V3.50001C2.04995 3.25148 2.25146 3.05003 2.50001 3.05003H5.50002Z" fill="#2873F0" stroke="#2873F0" stroke-width="0.1"/>
</svg>
