<svg width="14" height="10" viewBox="0 0 14 10" fill="none" xmlns="http://www.w3.org/2000/svg">
<path d="M1.85029 1C1.38718 1 1 1.38334 1 1.85718V8.14282C1 8.61654 1.38718 9 1.85029 9H12.1497C12.6128 9 13 8.61666 13 8.14282V1.85718C13 1.38346 12.6128 1 12.1497 1H1.85029ZM1.99415 1.57137H12.0058L7.24415 5.92846C7.1254 6.03707 6.87448 6.03707 6.75572 5.92846L1.99435 1.57137H1.99415ZM1.5582 1.93739L5.04209 5.12485L1.5582 8.08017V1.93739ZM12.4419 1.93739V8.08017L8.95778 5.12485L12.4417 1.93739H12.4419ZM5.46518 5.51336L6.38526 6.35258C6.7342 6.67187 7.26602 6.67187 7.61496 6.35258L8.53504 5.51336L11.9753 8.42837H2.02474L5.46503 5.51336H5.46518Z" fill="#2873F0" stroke="#2873F0"/>
</svg>
