<svg width="12" height="12" viewBox="0 0 12 12" fill="none" xmlns="http://www.w3.org/2000/svg">
<path d="M6 0C4.81331 0 3.65328 0.351894 2.66658 1.01118C1.67989 1.67047 0.910851 2.60754 0.456726 3.7039C0.00259972 4.80026 -0.11622 6.00666 0.115291 7.17054C0.346802 8.33443 0.918247 9.40353 1.75736 10.2426C2.59648 11.0818 3.66558 11.6532 4.82946 11.8847C5.99335 12.1162 7.19975 11.9974 8.2961 11.5433C9.39246 11.0892 10.3295 10.3201 10.9888 9.33342C11.6481 8.34673 12 7.18669 12 6C12 4.4087 11.3679 2.88258 10.2426 1.75736C9.11742 0.632141 7.5913 0 6 0ZM6 11C5.0111 11 4.0444 10.7068 3.22215 10.1573C2.39991 9.60794 1.75904 8.82705 1.38061 7.91342C1.00217 6.99979 0.90315 5.99445 1.09608 5.02455C1.289 4.05464 1.76521 3.16373 2.46447 2.46447C3.16373 1.7652 4.05465 1.289 5.02455 1.09607C5.99446 0.903148 6.99979 1.00216 7.91342 1.3806C8.82705 1.75904 9.60794 2.3999 10.1574 3.22215C10.7068 4.04439 11 5.01109 11 6C11 7.32608 10.4732 8.59785 9.53554 9.53553C8.59785 10.4732 7.32609 11 6 11Z" fill="#231F20"/>
<path d="M6.4303 2.55C5.95019 2.44521 5.44831 2.52083 5.02041 2.76245C4.5925 3.00407 4.26853 3.39477 4.1103 3.86C4.08858 3.92232 4.07968 3.98837 4.08412 4.05421C4.08856 4.12005 4.10625 4.18432 4.13613 4.24315C4.16602 4.30198 4.20748 4.35417 4.25803 4.39659C4.30857 4.43901 4.36717 4.47078 4.4303 4.49C4.49332 4.5101 4.5597 4.51749 4.6256 4.51175C4.6915 4.50601 4.75561 4.48725 4.8142 4.45655C4.8728 4.42586 4.92472 4.38384 4.96697 4.33294C5.00921 4.28203 5.04093 4.22325 5.0603 4.16C5.14188 3.93427 5.30193 3.74541 5.51123 3.62791C5.72052 3.51041 5.9651 3.47211 6.2003 3.52C6.42926 3.58931 6.62579 3.73841 6.75422 3.94023C6.88265 4.14206 6.93448 4.38323 6.9003 4.62C6.84751 4.84373 6.71925 5.04244 6.53712 5.18269C6.35498 5.32293 6.13009 5.39615 5.9003 5.39C5.82978 5.38148 5.75825 5.38807 5.69049 5.40936C5.62272 5.43064 5.56026 5.46611 5.50728 5.51342C5.45429 5.56073 5.41199 5.61878 5.3832 5.68372C5.35441 5.74865 5.33978 5.81897 5.3403 5.89V7.45C5.3403 7.58261 5.39298 7.70979 5.48674 7.80356C5.58051 7.89732 5.70769 7.95 5.8403 7.95C5.90548 7.95133 5.97028 7.93964 6.03088 7.91561C6.09149 7.89159 6.1467 7.8557 6.19326 7.81007C6.23983 7.76444 6.27682 7.70997 6.30207 7.64986C6.32731 7.58975 6.34031 7.5252 6.3403 7.46V6.36C6.72415 6.27916 7.07576 6.08721 7.35136 5.80806C7.62696 5.5289 7.81438 5.17486 7.8903 4.79C7.96625 4.30228 7.85916 3.80369 7.58964 3.39017C7.32011 2.97664 6.90718 2.6774 6.4303 2.55ZM5.8103 8.39C5.68003 8.39719 5.55698 8.45218 5.46473 8.54443C5.37247 8.63669 5.31748 8.75973 5.3103 8.89V9C5.31157 9.0626 5.32534 9.12431 5.35079 9.18151C5.37625 9.23871 5.41287 9.29025 5.45851 9.3331C5.50416 9.37595 5.55791 9.40925 5.6166 9.43104C5.67529 9.45283 5.73775 9.46268 5.8003 9.46C5.93389 9.45245 6.05968 9.39465 6.15242 9.2982C6.24516 9.20175 6.29799 9.07379 6.3003 8.94V8.86C6.30035 8.79656 6.28757 8.73377 6.26271 8.6754C6.23785 8.61703 6.20143 8.5643 6.15564 8.52039C6.10986 8.47647 6.05566 8.44228 5.99631 8.41987C5.93695 8.39746 5.87368 8.3873 5.8103 8.39Z" fill="#231F20"/>
</svg>
