<svg width="20" height="20" viewBox="0 0 20 20" fill="none" xmlns="http://www.w3.org/2000/svg">
<path d="M10.0002 6.66666C8.1585 6.66666 6.66683 8.15833 6.66683 10C6.66683 11.8417 8.1585 13.3333 10.0002 13.3333C11.8418 13.3333 13.3335 11.8417 13.3335 10C13.3335 8.15833 11.8418 6.66666 10.0002 6.66666ZM17.4502 9.16666C17.2614 7.47676 16.5036 5.90128 15.3013 4.69891C14.0989 3.49654 12.5234 2.73876 10.8335 2.55V0.833328H9.16683V2.55C7.47693 2.73876 5.90144 3.49654 4.69907 4.69891C3.4967 5.90128 2.73892 7.47676 2.55016 9.16666H0.833496V10.8333H2.55016C2.73892 12.5232 3.4967 14.0987 4.69907 15.3011C5.90144 16.5035 7.47693 17.2612 9.16683 17.45V19.1667H10.8335V17.45C12.5234 17.2612 14.0989 16.5035 15.3013 15.3011C16.5036 14.0987 17.2614 12.5232 17.4502 10.8333H19.1668V9.16666H17.4502ZM10.0002 15.8333C6.77516 15.8333 4.16683 13.225 4.16683 10C4.16683 6.775 6.77516 4.16666 10.0002 4.16666C13.2252 4.16666 15.8335 6.775 15.8335 10C15.8335 13.225 13.2252 15.8333 10.0002 15.8333Z" fill="#2873F0"/>
</svg>
