<svg width="18" height="18" viewBox="0 0 18 18" fill="none" xmlns="http://www.w3.org/2000/svg">
<g clip-path="url(#clip0_356_23)">
<path d="M17.2174 9.58697C17.0217 9.58697 16.8261 9.50871 16.6696 9.37175L9 1.87827L1.33044 9.37175C1.01739 9.66523 0.528263 9.66523 0.21522 9.35218C-0.0782585 9.03914 -0.0782585 8.55001 0.234785 8.23697L8.45218 0.215226C8.76522 -0.0782524 9.23479 -0.0782524 9.54783 0.215226L17.7652 8.23697C18.0783 8.53044 18.0783 9.03914 17.7848 9.35218C17.6283 9.50871 17.413 9.58697 17.2174 9.58697ZM15.4957 17.2174V9.5674C15.4957 9.13697 15.1435 8.78479 14.713 8.78479C14.2826 8.78479 13.9304 9.13697 13.9304 9.5674V16.4348H11.4848V12.2478C11.4848 11.6804 11.0152 11.2109 10.4478 11.2109H7.55218C6.98478 11.2109 6.51522 11.6804 6.51522 12.2478V16.4348H4.06957V9.5674C4.06957 9.13697 3.71739 8.78479 3.28696 8.78479C2.85652 8.78479 2.50435 9.13697 2.50435 9.5674V17.2174C2.50435 17.6478 2.85652 18 3.28696 18H7.29783C7.72826 18 8.08044 17.6478 8.08044 17.2174V12.7761H9.93913V17.2174C9.93913 17.6478 10.2913 18 10.7217 18H14.7326C15.163 18 15.4957 17.6478 15.4957 17.2174Z" fill="#2873F0"/>
</g>
<defs>
<clipPath id="clip0_356_23">
<rect width="18" height="18" fill="white"/>
</clipPath>
</defs>
</svg>
