<svg width="13" height="16" viewBox="0 0 13 16" fill="none" xmlns="http://www.w3.org/2000/svg">
<path d="M0 8C0 8.2209 0.179102 8.4 0.4 8.4H7.43442L5.31719 10.5172C5.24219 10.5922 5.20005 10.6939 5.20005 10.8C5.2 11.0209 5.3791 11.2 5.6 11.2C5.7061 11.2001 5.80786 11.158 5.88276 11.0828L8.68276 8.28281C8.68281 8.28276 8.68286 8.28276 8.68291 8.28271C8.83901 8.12651 8.83896 7.87334 8.68276 7.71724L5.88276 4.91724C5.72778 4.76753 5.48203 4.76753 5.327 4.91724C5.16812 5.0707 5.16372 5.32393 5.31719 5.48281L7.43442 7.6H0.4C0.179102 7.6 0 7.7791 0 8ZM10.8 0H2C0.89585 0.00102536 0.00102536 0.89585 0 2V5.2C0 5.4209 0.179102 5.6 0.4 5.6C0.620898 5.6 0.8 5.4209 0.8 5.2V2C0.800732 1.33755 1.33755 0.800732 2 0.8H10.8C11.4625 0.800732 11.9993 1.33755 12 2V14C11.9993 14.6625 11.4625 15.1993 10.8 15.2H2C1.33755 15.1993 0.800732 14.6625 0.8 14V10.8C0.8 10.5791 0.620898 10.4 0.4 10.4C0.179102 10.4 0 10.5791 0 10.8V14C0.00102536 15.1042 0.89585 15.999 2 16H10.8C11.9042 15.999 12.799 15.1042 12.8 14V2C12.799 0.89585 11.9042 0.00102536 10.8 0Z" fill="black"/>
</svg>
