<svg width="62" height="62" viewBox="0 0 62 62" fill="none" xmlns="http://www.w3.org/2000/svg">
<g clip-path="url(#clip0_1955_282)">
<path d="M6.60455 31.7127C6.60455 31.2072 6.7248 27.9964 6.67327 26.4648C6.60759 24.4915 8.2264 22.9053 10.1948 22.9184C15.8193 22.9558 21.4437 22.9315 27.0701 22.9295C27.2854 22.9295 27.5077 22.971 27.7987 22.8284C27.8179 21.7821 27.8118 20.6973 27.7987 19.5752C24.8046 18.4449 22.6704 16.4412 21.5538 13.4326C20.8259 11.5286 20.7361 9.4395 21.2982 7.48007C22.5946 2.90044 26.3143 0.291155 30.2522 0.0242617C35.3693 -0.322497 39.4103 3.00153 40.6512 7.31933C41.3707 9.82348 41.1362 12.2579 39.9358 14.5729C38.7505 16.8597 36.9245 18.4662 34.5316 19.4326V22.8234C34.7681 22.9932 35.0116 22.9245 35.239 22.9245C40.7785 22.9285 46.3187 22.9285 51.8596 22.9245C53.3653 22.9245 54.6183 23.7969 55.1165 25.192C55.2496 25.5744 55.3152 25.9771 55.3105 26.3819C55.3105 27.9328 55.3782 31.4013 55.3782 31.6965C58.4531 32.9572 60.6206 35.1409 61.5907 38.4164C62.1832 40.3674 62.1301 42.4577 61.4391 44.376C59.9729 48.527 56.0016 51.5416 51.0664 51.1332C48.9943 50.9549 47.0295 50.1342 45.4459 48.7855C43.8622 47.4369 42.7386 45.6276 42.2316 43.6097C41.598 41.1096 41.8719 38.6843 43.1158 36.4157C44.3425 34.1774 46.1786 32.6014 48.5826 31.6955V29.6665H34.5983C34.5983 30.0871 34.5549 41.7131 34.5549 42.5926C37.3954 43.7613 39.4325 45.7832 40.4875 48.7211C41.2403 50.8188 41.2363 52.9479 40.5421 55.0658C39.2446 59.0207 35.3289 62.368 30.1137 61.9575C26.0536 61.6381 22.2561 58.6103 21.1941 54.1934C20.1836 50.0009 22.2652 44.4296 27.7623 42.4167V29.7333C27.4006 29.6099 14.3551 29.5574 13.4012 29.6837C13.3648 30.3491 13.3648 31.016 13.4012 31.6814C16.2386 32.843 18.3293 34.7618 19.4318 37.646C20.2246 39.6755 20.3065 41.9138 19.6642 43.9959C19.024 46.117 17.7044 47.9688 15.9087 49.2658C14.1131 50.5628 11.941 51.2332 9.72699 51.1737C5.4829 51.0564 1.63089 48.0781 0.430424 44.0211C-0.323406 41.4654 -0.0990763 38.9896 1.11049 36.6179C2.31601 34.2654 4.20362 32.6671 6.60455 31.7127ZM13.3567 41.1702C13.3633 40.5123 13.1746 39.8672 12.8147 39.3166C12.4548 38.7659 11.9397 38.3345 11.3346 38.0767C10.7295 37.819 10.0616 37.7466 9.41534 37.8687C8.76911 37.9908 8.17361 38.302 7.70415 38.7627C7.23469 39.2235 6.91237 39.8132 6.77796 40.4572C6.64356 41.1013 6.7031 41.7708 6.94907 42.381C7.19503 42.9912 7.61636 43.5147 8.15976 43.8853C8.70317 44.2559 9.34422 44.4569 10.0018 44.4629C11.8955 44.472 13.3496 43.0446 13.3567 41.1702V41.1702ZM48.6382 41.1844C48.6382 43.0253 50.0923 44.4609 51.9516 44.4639C52.3926 44.4701 52.8305 44.3883 53.2397 44.2234C53.6488 44.0584 54.021 43.8136 54.3346 43.5033C54.6482 43.1929 54.8969 42.8232 55.0661 42.4156C55.2354 42.0081 55.3218 41.5709 55.3204 41.1296C55.319 40.6883 55.2298 40.2517 55.0579 39.8452C54.8861 39.4388 54.6351 39.0707 54.3195 38.7623C54.0039 38.4539 53.6301 38.2115 53.22 38.0492C52.8098 37.8869 52.3714 37.8079 51.9304 37.8169C50.07 37.83 48.6341 39.2949 48.6382 41.1844ZM34.2891 51.9561C34.3831 50.284 33.0007 48.62 30.9666 48.6493C29.179 48.6725 27.6704 49.918 27.6754 52.0148C27.6805 54.0741 29.3427 55.3115 31.0505 55.2923C32.9522 55.268 34.4063 53.6626 34.2871 51.9561H34.2891ZM30.9646 6.76634C29.4549 6.65109 27.6471 7.97241 27.6714 10.1025C27.6936 12.0749 29.3276 13.3679 31.006 13.3679C32.6279 13.3679 34.3407 12.0688 34.3245 10.0408C34.3002 8.10384 32.6996 6.65311 30.9626 6.76128L30.9646 6.76634Z" fill="#2873F0"/>
</g>
<defs>
<clipPath id="clip0_1955_282">
<rect width="62" height="62" fill="white"/>
</clipPath>
</defs>
</svg>
