<svg width="13" height="16" viewBox="0 0 13 16" fill="none" xmlns="http://www.w3.org/2000/svg">
<path d="M11.9698 13.164H0.736309C0.606623 13.1642 0.479193 13.1301 0.366948 13.0651C0.254703 13.0002 0.161637 12.9067 0.097194 12.7942C0.0327508 12.6816 -0.000776599 12.554 1.36534e-05 12.4243C0.000803906 12.2947 0.0358837 12.1675 0.101694 12.0557C0.684963 11.0721 1.12208 9.66882 1.20362 9.39748C1.20701 9.38632 1.2087 9.37471 1.20862 9.36305V7.02767C1.20862 7.02517 1.20862 7.02248 1.20862 7.01998C1.23823 5.83036 1.52708 4.80844 2.06669 3.98498C2.50189 3.32017 3.09766 2.78517 3.83727 2.39459C5.08266 1.73671 6.29881 1.71863 6.34996 1.71825H6.35535C6.4065 1.71825 7.62266 1.73748 8.86804 2.39459C9.60766 2.78517 10.2034 3.32017 10.6386 3.98498C11.1782 4.80921 11.4671 5.83113 11.4967 7.01998C11.4967 7.02248 11.4967 7.02517 11.4967 7.02767V9.36305C11.4966 9.37472 11.4983 9.38633 11.5017 9.39748C11.5832 9.66882 12.0209 11.0723 12.6036 12.0557C12.6694 12.1675 12.7045 12.2947 12.7053 12.4243C12.7061 12.554 12.6726 12.6816 12.6081 12.7942C12.5437 12.9067 12.4506 13.0002 12.3384 13.0651C12.2261 13.1301 12.0987 13.1642 11.969 13.164H11.9698ZM1.82419 7.03171V9.36305C1.82424 9.43471 1.81374 9.50599 1.79304 9.57459C1.70785 9.85786 1.25092 11.3246 0.631117 12.3692C0.620388 12.3869 0.614715 12.4072 0.614715 12.4279C0.614715 12.4485 0.620388 12.4688 0.631117 12.4865C0.641533 12.5054 0.656838 12.521 0.67542 12.5319C0.694001 12.5428 0.71517 12.5484 0.736694 12.5482H11.9698C11.9913 12.5484 12.0125 12.5428 12.031 12.5319C12.0496 12.521 12.0649 12.5054 12.0754 12.4865C12.0861 12.4688 12.0918 12.4485 12.0918 12.4279C12.0918 12.4072 12.0861 12.3869 12.0754 12.3692C11.4713 11.35 11.0332 9.97248 10.9132 9.5744C10.8927 9.50577 10.8823 9.4345 10.8823 9.36286V7.03171C10.8325 5.09652 10.0584 3.71882 8.58112 2.93863C7.49458 2.36575 6.41708 2.33478 6.35304 2.33363C6.29304 2.33498 5.1942 2.36748 4.10516 2.94902C2.6415 3.73113 1.87343 5.10498 1.82419 7.03171Z" fill="black"/>
<path d="M4.87803 2.60096C4.79643 2.60096 4.71816 2.56854 4.66046 2.51084C4.60276 2.45314 4.57034 2.37487 4.57034 2.29327V1.78365C4.57034 1.3106 4.75826 0.85692 5.09276 0.52242C5.42726 0.18792 5.88094 0 6.35399 0C6.82705 0 7.28073 0.18792 7.61523 0.52242C7.94973 0.85692 8.13765 1.3106 8.13765 1.78365V2.28365C8.13765 2.36526 8.10523 2.44352 8.04753 2.50123C7.98982 2.55893 7.91156 2.59135 7.82996 2.59135C7.74835 2.59135 7.67009 2.55893 7.61238 2.50123C7.55468 2.44352 7.52226 2.36526 7.52226 2.28365V1.78365C7.52226 1.47381 7.39918 1.17666 7.18008 0.957563C6.96099 0.73847 6.66384 0.615385 6.35399 0.615385C6.04415 0.615385 5.747 0.73847 5.5279 0.957563C5.30881 1.17666 5.18572 1.47381 5.18572 1.78365V2.29327C5.18572 2.37487 5.15331 2.45314 5.0956 2.51084C5.0379 2.56854 4.95964 2.60096 4.87803 2.60096ZM6.35399 16C4.95111 16 3.80957 14.8587 3.80957 13.4556V12.856C3.80957 12.7744 3.84199 12.6961 3.89969 12.6384C3.95739 12.5807 4.03566 12.5483 4.11726 12.5483H8.59072C8.67233 12.5483 8.75059 12.5807 8.8083 12.6384C8.866 12.6961 8.89842 12.7744 8.89842 12.856V13.4556C8.89842 14.8587 7.75784 16 6.35399 16ZM4.42495 13.1637V13.4556C4.42495 13.9672 4.62819 14.4578 4.98996 14.8196C5.35172 15.1814 5.84238 15.3846 6.35399 15.3846C6.86561 15.3846 7.35626 15.1814 7.71803 14.8196C8.07979 14.4578 8.28303 13.9672 8.28303 13.4556V13.1637H4.42495Z" fill="black"/>
</svg>
