<svg width="20" height="20" viewBox="0 0 20 20" fill="none" xmlns="http://www.w3.org/2000/svg">
<path d="M0.9 7.22747V7.22749C0.900179 8.27978 1.74688 9.12736 2.79851 9.12736H2.89851V9.12733H7.22177C8.27357 9.12733 9.12029 8.27978 9.12029 7.2273V2.80033C9.12029 1.74785 8.27357 0.900305 7.22177 0.900305L2.79851 0.900475C2.79851 0.900475 2.79851 0.900475 2.79851 0.900475C1.74671 0.900477 0.9 1.74802 0.9 2.8005V7.22747ZM2.07223 2.80037C2.07223 2.39332 2.39202 2.0734 2.79851 2.0734H7.22177C7.62828 2.0734 7.94805 2.39334 7.94805 2.80037V7.22735C7.94805 7.6344 7.62826 7.95432 7.22177 7.95432H2.79851C2.39201 7.95432 2.07223 7.63438 2.07223 7.22735V2.80037Z" fill="#2873F0" stroke="#2873F0" stroke-width="0.2"/>
<path d="M17.0724 0.9L17.0724 0.900304H12.7631C11.7113 0.900304 10.8646 1.74785 10.8646 2.80033V7.2273C10.8646 8.27978 11.7113 9.12732 12.7631 9.12732H17.1864C18.2382 9.12732 19.0849 8.27978 19.0849 7.2273L19.0847 2.79989C19.0847 1.74759 18.238 0.9 17.1863 0.9H17.0724ZM17.9126 7.22726C17.9126 7.63431 17.5928 7.95423 17.1864 7.95423H12.7631C12.3566 7.95423 12.0368 7.63429 12.0368 7.22726V2.80028C12.0368 2.39323 12.3566 2.07331 12.7631 2.07331H17.1864C17.5929 2.07331 17.9126 2.39325 17.9126 2.80028V7.22726Z" fill="#2873F0" stroke="#2873F0" stroke-width="0.2"/>
<path d="M2.69851 19.0972V19.0999H2.79851H7.22177C8.27357 19.0999 9.12029 18.2523 9.12029 17.1999V12.7729C9.12029 11.7204 8.27357 10.8729 7.22177 10.8729H2.79851C1.74671 10.8729 0.9 11.7204 0.9 12.7729V17.1999V17.1999C0.900173 18.2186 1.69372 19.0455 2.69851 19.0972ZM2.07223 12.7729C2.07223 12.3659 2.39202 12.046 2.79851 12.046H7.22177C7.62828 12.046 7.94805 12.3659 7.94805 12.7729V17.1999C7.94805 17.607 7.62826 17.9269 7.22177 17.9269H2.79851C2.39201 17.9269 2.07223 17.6069 2.07223 17.1999V12.7729Z" fill="#2873F0" stroke="#2873F0" stroke-width="0.2"/>
<path d="M12.6782 19.0973V19.1H12.7782H17.2015C18.2533 19.1 19.1 18.2524 19.1 17.1999V12.773C19.1 11.7205 18.2533 10.8729 17.2015 10.8729H12.7782C11.7264 10.8729 10.8797 11.7205 10.8797 12.773V17.1999V17.1999C10.8799 18.2187 11.6734 19.0455 12.6782 19.0973ZM12.052 12.773C12.052 12.3659 12.3718 12.046 12.7782 12.046H17.2015C17.608 12.046 17.9278 12.366 17.9278 12.773V17.2C17.9278 17.607 17.608 17.9269 17.2015 17.9269H12.7782C12.3717 17.9269 12.052 17.607 12.052 17.2V12.773Z" fill="#2873F0" stroke="#2873F0" stroke-width="0.2"/>
</svg>
