<svg width="74" height="92" viewBox="0 0 74 92" fill="none" xmlns="http://www.w3.org/2000/svg">
<path d="M18.8889 25.295V18.2549C18.8889 8.2017 26.8848 0 36.8168 0C46.7489 0 54.7448 8.2017 54.7448 18.2549V25.295H67.1366C67.7043 25.2954 68.2508 25.507 68.6659 25.8871C69.0811 26.2673 69.3341 26.7877 69.374 27.3437L73.6337 88.9444C73.6711 89.5264 73.4729 90.0993 73.082 90.5384C72.6911 90.9775 72.1394 91.2472 71.5469 91.2888H2.23741C1.64401 91.2888 1.07492 91.0574 0.655321 90.6454C0.235726 90.2335 0 89.6748 0 89.0923V88.9444L4.25968 27.3437C4.29785 26.7865 4.5501 26.2643 4.96544 25.8827C5.38078 25.5011 5.92823 25.2885 6.49709 25.288L18.8889 25.295ZM25.6155 25.295H48.0254V18.2549C48.0254 11.7851 43.0056 6.59656 36.8168 6.59656C30.6281 6.59656 25.6155 11.7851 25.6155 18.2549V25.295ZM7.03493 84.6993H66.5988L62.9558 31.8986H10.6851L7.03493 84.6993Z" fill="#499F3B"/>
<path d="M33.9398 68.6219C33.5836 68.9781 33.0789 69.275 32.6336 69.275C32.1883 69.275 31.6836 68.9633 31.3125 68.607L23 60.2945L25.6422 57.6523L32.6484 64.6586L51.1734 46L53.7711 48.6867L33.9398 68.6219Z" fill="#499F3B"/>
</svg>
