<svg width="16" height="16" viewBox="0 0 16 16" fill="none" xmlns="http://www.w3.org/2000/svg">
<path fill-rule="evenodd" clip-rule="evenodd" d="M15.7124 13.8625C15.2186 15.3633 13.2836 16.1121 11.9012 15.9873C10.0132 15.8166 7.95878 14.815 6.3993 13.7121C4.10702 12.0907 1.9598 9.58296 0.708589 6.92161C-0.175685 5.04106 -0.374087 2.72851 0.941124 1.01436C1.42753 0.380758 1.95447 0.042622 2.7438 0.00315501C3.84035 -0.0501788 3.99395 0.577026 4.37048 1.5541C4.65102 2.28477 5.02542 3.03038 5.23449 3.78772C5.62596 5.20106 4.25742 5.25973 4.08462 6.41494C3.97795 7.14348 4.86009 8.12055 5.25903 8.64002C6.02798 9.65174 6.96977 10.5195 8.04091 11.2032C8.64892 11.5862 9.62813 12.2763 10.3236 11.8955C11.3945 11.3088 11.2943 9.50297 12.7908 10.1142C13.5663 10.4299 14.3172 10.8854 15.0575 11.2843C16.202 11.8998 16.1487 12.5377 15.7124 13.8625C16.0388 12.8726 15.386 14.8523 15.7124 13.8625Z" fill="white"/>
</svg>
