<svg width="16" height="16" viewBox="0 0 16 16" fill="none" xmlns="http://www.w3.org/2000/svg">
<path d="M15.4665 0.533216C14.7556 -0.177739 13.6027 -0.177739 12.8918 0.533216L7.99987 5.42511L3.10797 0.533216C2.39702 -0.177739 1.24417 -0.177739 0.533216 0.533216C-0.177739 1.24417 -0.177739 2.39702 0.533216 3.10797L5.42511 8.00013L0.533216 12.892C-0.177739 13.603 -0.177739 14.7558 0.533216 15.4668C1.24417 16.1777 2.39702 16.1777 3.10797 15.4668L7.99987 10.5749L12.8918 15.4668C13.6027 16.1777 14.7556 16.1777 15.4665 15.4668C16.1775 14.7558 16.1775 13.603 15.4665 12.892L10.5746 8.00013L15.4665 3.10823C16.1775 2.39728 16.1775 1.24443 15.4665 0.533476V0.533216Z" fill="white"/>
</svg>
