<svg width="16" height="16" viewBox="0 0 16 16" fill="none" xmlns="http://www.w3.org/2000/svg">
<g opacity="0.8">
<circle cx="8" cy="8" r="8" transform="rotate(90 8 8)" fill="#171717"/>
<path d="M8.59924 11.724C8.60599 11.2493 8.22675 10.8589 7.75188 10.8521C7.27718 10.8454 6.88671 11.2246 6.87997 11.6995C6.87322 12.1744 7.25246 12.5647 7.72733 12.5714C8.20218 12.5782 8.5925 12.1989 8.59924 11.724Z" fill="white"/>
<path d="M7.81021 3.42899C6.58623 3.41144 5.33658 4.22403 5.14561 5.81425C5.12189 6.01206 5.26696 6.19089 5.46621 6.19374L6.16621 6.20379C6.3252 6.20606 6.46808 6.09357 6.49128 5.93627C6.61044 5.12747 7.2058 4.76967 7.79113 4.77803C9.02878 4.79567 9.17673 5.5442 9.16744 6.19426C9.15208 7.26591 7.56809 7.62762 7.55425 7.63065L7.02783 7.7428L6.99973 9.70755C6.99703 9.89143 7.14403 10.0426 7.32784 10.0452L8.01115 10.055C8.19503 10.0577 8.34618 9.91067 8.34879 9.72686L8.36212 8.79825C9.32163 8.45175 10.4958 7.64895 10.5164 6.21358C10.541 4.49449 9.52933 3.4535 7.81034 3.42887L7.81021 3.42899Z" fill="white"/>
</g>
</svg>
