<svg width="16" height="17" viewBox="0 0 16 17" fill="none" xmlns="http://www.w3.org/2000/svg">
<path d="M6.79449 0.87244C4.61875 0.87337 2.57501 1.91611 1.29694 3.67719C0.0187344 5.43846 -0.339566 7.70514 0.333193 9.77459C1.00614 11.8443 2.62851 13.4668 4.69787 14.1392C6.76707 14.8114 9.03297 14.4522 10.7933 13.1731L14.1788 16.5597C14.4482 16.8292 14.8411 16.9345 15.2093 16.8359C15.5775 16.7371 15.8649 16.4496 15.9637 16.0812C16.0622 15.713 15.957 15.3199 15.6875 15.0504L12.3021 11.6638C13.2909 10.3043 13.7405 8.62638 13.5645 6.9544C13.3882 5.28241 12.5987 3.73523 11.3482 2.61175C10.0978 1.48826 8.47528 0.868525 6.79474 0.872239L6.79449 0.87244ZM6.79449 12.3387C5.55722 12.3387 4.3707 11.8471 3.49582 10.9719C2.62094 10.0968 2.1295 8.90986 2.1295 7.67219C2.1295 6.43452 2.62094 5.24761 3.49582 4.37245C4.3707 3.4973 5.55722 3.00569 6.79449 3.00569C8.03176 3.00569 9.21829 3.4973 10.0932 4.37245C10.968 5.24761 11.4595 6.43452 11.4595 7.67219C11.458 8.90929 10.9662 10.0955 10.0915 10.9703C9.217 11.8452 8.03124 12.3372 6.79449 12.3387Z" fill="white"/>
</svg>
