<svg width="16" height="16" viewBox="0 0 16 16" fill="none" xmlns="http://www.w3.org/2000/svg">
<path d="M6.79449 0.000216771C4.61875 0.00114678 2.57501 1.04389 1.29694 2.80497C0.0187345 4.56624 -0.339566 6.83292 0.333193 8.90236C1.00614 10.972 2.62851 12.5946 4.69787 13.267C6.76707 13.9392 9.03297 13.58 10.7933 12.3009L14.1788 15.6874C14.4482 15.957 14.8411 16.0622 15.2093 15.9637C15.5775 15.8649 15.8649 15.5773 15.9637 15.209C16.0622 14.8407 15.957 14.4477 15.6875 14.1782L12.3021 10.7916C13.2909 9.4321 13.7405 7.75416 13.5645 6.08217C13.3882 4.41019 12.5987 2.86301 11.3482 1.73952C10.0978 0.616041 8.47503 -0.00349738 6.79449 0.000216771ZM6.79449 11.4665C5.55722 11.4665 4.3707 10.9749 3.49582 10.0997C2.62094 9.22454 2.1295 8.03763 2.1295 6.79997C2.1295 5.5623 2.62094 4.37539 3.49582 3.50023C4.3707 2.62507 5.55722 2.13347 6.79449 2.13347C8.03176 2.13347 9.21829 2.62507 10.0932 3.50023C10.968 4.37539 11.4595 5.5623 11.4595 6.79997C11.458 8.03706 10.9662 9.22326 10.0915 10.098C9.217 10.973 8.03124 11.465 6.79449 11.4665Z" fill="#B3B3B3"/>
</svg>
