<svg width="13" height="15" viewBox="0 0 13 15" fill="none" xmlns="http://www.w3.org/2000/svg">
<path d="M9.34968 4.275H11.2943C11.4228 4.275 11.5293 4.31454 11.6136 4.39375C11.6978 4.47295 11.7497 4.57675 11.7693 4.70535L12.0515 7.59986H11.1015L10.864 5.22486H9.34972V6.64986C9.34972 6.78854 9.30529 6.90242 9.21623 6.99137C9.12727 7.08033 9.0134 7.12486 8.87472 7.12486C8.73604 7.12486 8.62216 7.08033 8.53321 6.99137C8.44414 6.90242 8.39972 6.78854 8.39972 6.64986V5.22486H4.59972V6.64986C4.59972 6.78854 4.55519 6.90242 4.46623 6.99137C4.37727 7.08033 4.2634 7.12486 4.12472 7.12486C3.98604 7.12486 3.87216 7.08033 3.7832 6.99137C3.69425 6.90242 3.64972 6.78854 3.64972 6.64986V5.22486H2.13544L1.37829 12.8249H6.49934V13.7749H0.843851C0.705061 13.7749 0.588857 13.7229 0.495119 13.6191C0.401392 13.5152 0.364388 13.3939 0.384002 13.2552L1.22999 4.70523C1.24992 4.57662 1.30188 4.47282 1.38574 4.39363C1.46972 4.31443 1.57606 4.27488 1.705 4.27488H3.64965V3.94811C3.66958 3.09693 3.94662 2.38929 4.4809 1.82535C5.01507 1.26129 5.68802 0.969395 6.49965 0.949364C7.31127 0.969403 7.98412 1.26129 8.5184 1.82535C9.05257 2.38929 9.32973 3.09693 9.34965 3.94811L9.34968 4.275ZM8.39968 4.275V3.94822C8.38982 3.36422 8.20427 2.87926 7.84293 2.49323C7.48168 2.10729 7.03383 1.90933 6.49968 1.89948C5.9651 1.90934 5.51735 2.10729 5.15644 2.49323C4.79541 2.87928 4.60986 3.36424 4.59968 3.94822V4.275H8.39968ZM11.3832 11.4594L10.2997 10.3608V13.7751C10.2997 13.9138 10.2553 14.0276 10.1662 14.1166C10.0773 14.2057 9.96342 14.2501 9.82474 14.2501C9.68606 14.2501 9.57218 14.2057 9.48322 14.1166C9.39416 14.0276 9.34974 13.9138 9.34974 13.7751V10.3608L8.26625 11.4594C8.12756 11.5879 7.9718 11.6276 7.79887 11.5782C7.62594 11.5288 7.51705 11.4175 7.4721 11.2443C7.42704 11.0711 7.46415 10.9201 7.58322 10.7916L9.48322 8.89156C9.58225 8.79243 9.69623 8.74291 9.82473 8.74291C9.95323 8.74291 10.0672 8.79243 10.1662 8.89156L12.0662 10.7916C12.185 10.9201 12.2221 11.0711 12.1774 11.2443C12.1327 11.4174 12.0238 11.5288 11.8506 11.5782C11.6774 11.6276 11.5216 11.5879 11.3832 11.4594H11.3832Z" fill="black"/>
</svg>
