<svg width="16" height="16" viewBox="0 0 16 16" fill="none" xmlns="http://www.w3.org/2000/svg">
<g clip-path="url(#clip0_1279_957)">
<path d="M14.2241 9.408C13.8401 9.04 13.6321 8.528 13.6321 8C13.6321 7.472 13.8401 6.976 14.2241 6.592C14.2881 6.528 14.3521 6.48 14.4321 6.416C14.5441 6.336 14.5761 6.192 14.5441 6.064C14.4161 5.6 14.2241 5.152 14.0001 4.736C13.9361 4.624 13.8081 4.56 13.6801 4.576C13.5681 4.592 13.4881 4.592 13.4081 4.592C12.3041 4.592 11.4081 3.696 11.4081 2.608C11.4081 2.528 11.4081 2.432 11.4241 2.336C11.4401 2.208 11.3761 2.08 11.2641 2.016C10.8481 1.792 10.4001 1.6 9.9361 1.472C9.8081 1.44 9.6641 1.488 9.5841 1.584C9.5201 1.664 9.4561 1.744 9.4081 1.792C9.0241 2.16 8.5281 2.368 8.0001 2.368C7.4721 2.368 6.9601 2.16 6.5921 1.792C6.5281 1.728 6.4801 1.664 6.4161 1.584C6.3361 1.472 6.1921 1.44 6.0641 1.472C5.6001 1.616 5.1521 1.792 4.7361 2.016C4.6241 2.08 4.5601 2.208 4.5761 2.336C4.5921 2.448 4.5921 2.528 4.5921 2.608C4.5921 3.712 3.6961 4.592 2.5921 4.592C2.5121 4.592 2.4161 4.592 2.3201 4.576C2.1921 4.56 2.0641 4.624 2.0001 4.736C1.7761 5.152 1.5841 5.6 1.4561 6.064C1.4241 6.192 1.4561 6.336 1.5681 6.416C1.6641 6.48 1.7281 6.544 1.7761 6.592C2.5601 7.36 2.5601 8.624 1.7761 9.408C1.7121 9.472 1.6481 9.52 1.5681 9.584C1.4561 9.664 1.4241 9.808 1.4561 9.936C1.6001 10.4 1.7761 10.848 2.0001 11.264C2.0641 11.376 2.1921 11.44 2.3201 11.424C2.4321 11.408 2.5121 11.408 2.5921 11.408C3.6961 11.408 4.5921 12.304 4.5921 13.392C4.5921 13.472 4.5921 13.568 4.5761 13.664C4.5601 13.792 4.6241 13.92 4.7361 13.984C5.1521 14.208 5.6001 14.4 6.0641 14.528C6.1921 14.56 6.3361 14.528 6.4161 14.416C6.4801 14.336 6.5441 14.256 6.5921 14.208C6.9761 13.84 7.4721 13.632 8.0001 13.632C8.5281 13.632 9.0401 13.84 9.4081 14.208C9.4721 14.272 9.5201 14.336 9.5841 14.416C9.6481 14.496 9.7441 14.544 9.8401 14.544C9.8721 14.544 9.9041 14.544 9.9361 14.528C10.4001 14.384 10.8481 14.208 11.2641 13.984C11.3761 13.92 11.4401 13.792 11.4241 13.664C11.4081 13.552 11.4081 13.472 11.4081 13.392C11.4081 12.288 12.3041 11.408 13.4081 11.408C13.4881 11.408 13.5841 11.408 13.6801 11.424C13.8081 11.44 13.9361 11.376 14.0001 11.264C14.2241 10.848 14.4161 10.4 14.5441 9.936C14.5761 9.808 14.5441 9.664 14.4321 9.584C14.3521 9.52 14.2721 9.472 14.2241 9.408ZM13.5361 10.768H13.3921C11.9361 10.768 10.7521 11.952 10.7521 13.392V13.536C10.4961 13.664 10.2241 13.776 9.9361 13.872L9.8401 13.776C9.3441 13.28 8.6881 13.008 7.9841 13.008C7.2801 13.008 6.6241 13.28 6.1281 13.776L6.0321 13.872C5.7601 13.776 5.4881 13.664 5.2161 13.536V13.392C5.2161 11.936 4.0321 10.768 2.5761 10.768H2.4321C2.3041 10.512 2.1921 10.24 2.0961 9.952L2.1921 9.856C3.2161 8.832 3.2161 7.168 2.1921 6.128L2.0961 6.032C2.1921 5.76 2.3041 5.488 2.4321 5.216H2.5761C4.0321 5.216 5.2161 4.032 5.2161 2.592V2.448C5.4721 2.32 5.7441 2.208 6.0321 2.112L6.1281 2.208C6.6241 2.704 7.2801 2.976 7.9841 2.976C8.6881 2.976 9.3441 2.704 9.8401 2.208L9.9361 2.112C10.2081 2.208 10.4801 2.32 10.7521 2.448V2.592C10.7521 4.048 11.9361 5.216 13.3921 5.216H13.5361C13.6641 5.472 13.7761 5.744 13.8721 6.032L13.7761 6.128C13.2801 6.624 13.0081 7.28 13.0081 7.984C13.0081 8.688 13.2801 9.344 13.7761 9.84L13.8721 9.936C13.7761 10.24 13.6641 10.512 13.5361 10.768ZM8.0001 4.192C5.9041 4.192 4.1921 5.904 4.1921 8C4.1921 10.096 5.9041 11.808 8.0001 11.808C10.0961 11.808 11.8081 10.096 11.8081 8C11.8081 5.904 10.0961 4.192 8.0001 4.192ZM8.0001 11.168C6.2561 11.168 4.8321 9.744 4.8321 8C4.8321 6.256 6.2561 4.832 8.0001 4.832C9.7441 4.832 11.1681 6.256 11.1681 8C11.1681 9.744 9.7441 11.168 8.0001 11.168Z" fill="black"/>
<path d="M263.04 -126.4V143.04H-22.3997V-126.4H263.04ZM264.32 -127.68H-23.6797V144.32H264.32V-127.68Z" fill="#0000FF"/>
</g>
<defs>
<clipPath id="clip0_1279_957">
<rect width="16" height="16" fill="white"/>
</clipPath>
</defs>
</svg>
