<svg width="22" height="22" viewBox="0 0 22 22" fill="none" xmlns="http://www.w3.org/2000/svg">
<path d="M11 6.80881C9.88844 6.80881 8.82226 7.25047 8.03633 8.03652C7.25028 8.82246 6.80862 9.88863 6.80862 11.0002C6.80862 12.1118 7.25028 13.1779 8.03633 13.9639C8.82226 14.7499 9.88844 15.1916 11 15.1916C12.1116 15.1916 13.1777 14.7499 13.9637 13.9639C14.7497 13.1779 15.1914 12.1118 15.1914 11.0002C15.1901 9.88892 14.748 8.82359 13.9624 8.0378C13.1766 7.25216 12.1113 6.8101 11 6.80881ZM11 13.9412V13.9414C10.22 13.9414 9.47182 13.6315 8.92022 13.0798C8.36862 12.5282 8.05869 11.7801 8.05869 11C8.05869 10.22 8.36859 9.47186 8.92022 8.92026C9.47186 8.36866 10.22 8.05873 11 8.05873C11.78 8.05873 12.5282 8.36863 13.0798 8.92026C13.6314 9.4719 13.9413 10.22 13.9413 11C13.9405 11.7798 13.6303 12.5275 13.0789 13.079C12.5274 13.6303 11.7797 13.9405 11 13.9414V13.9412ZM20.5179 8.88053L18.3105 8.36141C18.2058 8.07141 18.084 7.78799 17.9455 7.51263L19.1035 5.64208C19.1776 5.52236 19.2092 5.38101 19.193 5.24108C19.1766 5.10117 19.1136 4.97085 19.014 4.87132L17.0025 2.86054C16.903 2.76072 16.7726 2.69771 16.6326 2.68139C16.4927 2.6652 16.3513 2.69685 16.2315 2.77103L14.3028 3.96537C14.0239 3.83434 13.7374 3.72006 13.445 3.62325L12.9417 1.48203C12.9095 1.34484 12.8318 1.22254 12.7213 1.13504C12.6109 1.04769 12.4742 1 12.3332 1H9.48901C9.3481 1 9.21134 1.04755 9.10092 1.13504C8.99037 1.22254 8.91275 1.34484 8.88053 1.48203L8.36141 3.68943C8.07156 3.79411 7.78799 3.91598 7.51263 4.05446L5.64208 2.89634C5.52236 2.82216 5.38101 2.79065 5.24108 2.80684C5.10117 2.82316 4.97085 2.88617 4.87132 2.9857L2.86054 4.99747C2.76072 5.097 2.69771 5.22732 2.68139 5.36738C2.6652 5.50729 2.69685 5.64864 2.77103 5.76849L3.96523 7.69693C3.83434 7.9759 3.72006 8.26246 3.62311 8.55502L1.48203 9.05826C1.34484 9.09048 1.22254 9.16825 1.13504 9.27866C1.04769 9.38907 1 9.52583 1 9.66675V12.511C1 12.6519 1.04755 12.7887 1.13504 12.8992C1.22254 13.0096 1.34484 13.0874 1.48203 13.1196L3.68943 13.6386C3.79411 13.9286 3.91598 14.212 4.05446 14.4874L2.89649 16.3579C2.82231 16.4776 2.7908 16.619 2.80698 16.7589C2.82331 16.8988 2.88632 17.0291 2.98599 17.1287L4.99732 19.14H4.99718C5.09685 19.2397 5.22717 19.3027 5.36709 19.319C5.50714 19.3352 5.64849 19.3037 5.7682 19.2294L7.69689 18.035C7.97572 18.1661 8.26228 18.2803 8.55483 18.3771L9.05808 20.518C9.0903 20.6552 9.16792 20.7775 9.27833 20.865C9.38874 20.9523 9.52551 21 9.66642 21H12.5109C12.6519 21 12.7886 20.9525 12.899 20.865C13.0096 20.7775 13.0872 20.6552 13.1194 20.518L13.6386 18.3106C13.9286 18.2059 14.212 18.084 14.4873 17.9455L16.3579 19.1035C16.4776 19.1775 16.619 19.2091 16.7589 19.1929C16.8988 19.1767 17.0291 19.1137 17.1286 19.014L19.14 17.0027V17.0028C19.2397 16.9031 19.3027 16.7728 19.319 16.6329C19.3352 16.4929 19.3037 16.3515 19.2293 16.2318L18.035 14.3031C18.166 14.0243 18.2803 13.7377 18.3771 13.4452L20.5179 12.9419C20.6551 12.9097 20.7774 12.8321 20.8649 12.7217C20.9523 12.6113 21 12.4745 21 12.3336V9.48905C21 9.34813 20.9524 9.21137 20.8649 9.10096C20.7774 8.9904 20.6551 8.91278 20.5179 8.88056L20.5179 8.88053ZM19.7499 11.838L17.7414 12.3102V12.3103C17.6323 12.336 17.5322 12.3904 17.4514 12.468C17.3707 12.5455 17.3122 12.6433 17.2822 12.7513C17.1574 13.1992 16.9849 13.6324 16.7673 14.0434C16.6635 14.2396 16.6715 14.4762 16.7884 14.6648L17.9061 16.4688L16.5949 17.78L14.8402 16.6932C14.745 16.6342 14.6357 16.602 14.5237 16.5997C14.4117 16.5974 14.3012 16.6253 14.2036 16.6804C13.7988 16.9094 13.3704 17.0941 12.9261 17.2313C12.7143 17.2968 12.5529 17.4696 12.5021 17.6855L12.0166 19.7499H10.1619L9.68946 17.7414C9.66383 17.6323 9.60941 17.5322 9.53193 17.4513C9.45432 17.3705 9.35636 17.3121 9.24853 17.2822C8.80057 17.1574 8.36738 16.9847 7.95652 16.7673C7.76032 16.6635 7.52374 16.6715 7.33515 16.7884L5.53118 17.9061L4.21996 16.5949L5.30677 14.8402C5.36578 14.745 5.398 14.6357 5.40029 14.5237C5.40258 14.4117 5.37466 14.3012 5.31952 14.2036C5.09053 13.7988 4.90595 13.3704 4.76862 12.9261C4.70317 12.7143 4.53032 12.5529 4.3145 12.502L2.25004 12.0166V10.1619L4.25852 9.68975V9.68961C4.3675 9.66397 4.4676 9.60955 4.54837 9.53208C4.62913 9.45446 4.68756 9.35665 4.71749 9.24867C4.84237 8.80071 5.01508 8.36738 5.23262 7.95622C5.3363 7.76003 5.32828 7.52359 5.21142 7.33486L4.0937 5.53117L5.40492 4.21996L7.15962 5.30688H7.15948C7.25471 5.36588 7.36412 5.3981 7.47611 5.40025C7.5881 5.40254 7.69865 5.37462 7.79618 5.31949C8.20103 5.09064 8.62923 4.90591 9.07359 4.76858C9.28554 4.70313 9.44695 4.53028 9.49761 4.31446L9.98308 2.25001H11.8372L12.3096 4.25848C12.3351 4.3676 12.3895 4.4677 12.467 4.54848C12.5446 4.62924 12.6424 4.68767 12.7503 4.71775C13.1982 4.84262 13.6314 5.01519 14.0426 5.23258C14.2388 5.3364 14.4752 5.32838 14.6639 5.21152L16.4679 4.09381L17.7791 5.40502L16.6923 7.15973C16.6333 7.25496 16.6009 7.36422 16.5988 7.47621C16.5965 7.5882 16.6244 7.69876 16.6796 7.79628C16.9084 8.20113 17.0931 8.62948 17.2305 9.07384C17.2958 9.28564 17.4686 9.44705 17.6846 9.49786L19.749 9.98333L19.7499 11.838Z" fill="#2873F0" stroke="#2873F0" stroke-width="1.2"/>
</svg>
