<svg width="16" height="19" viewBox="0 0 16 19" fill="none" xmlns="http://www.w3.org/2000/svg">
<path d="M12.2594 18.3889C10.5718 18.3889 9.19455 17.0115 9.19455 15.3241C9.19455 15.0054 9.24036 14.6967 9.33137 14.4074L5.0761 11.4998C4.53705 11.9706 3.83353 12.2592 3.06481 12.2592C1.37724 12.2592 0 10.8818 0 9.19443C0 7.50687 1.3774 6.12962 3.06481 6.12962C3.83306 6.12962 4.53721 6.41885 5.0761 6.88904L9.33802 3.98838C9.24533 3.69656 9.19432 3.38655 9.19432 3.06481C9.19432 1.37724 10.5717 0 12.2591 0C13.9467 0 15.3239 1.3774 15.3239 3.06481C15.3239 4.75238 13.9465 6.12962 12.2591 6.12962C11.2044 6.12962 10.2729 5.59057 9.72098 4.77513L5.65062 7.55272C5.9539 8.02794 6.12951 8.59127 6.12951 9.19463C6.12951 9.7992 5.94825 10.3607 5.64374 10.8365L9.72114 13.6141C10.273 12.7987 11.2045 12.2596 12.2593 12.2596C13.9469 12.2596 15.3241 13.637 15.3241 15.3244C15.3241 17.012 13.9467 18.3893 12.2593 18.3893L12.2594 18.3889ZM12.2594 17.5133C13.4735 17.5133 14.4486 16.5382 14.4486 15.3241C14.4486 14.1099 13.4735 13.1348 12.2594 13.1348C11.0452 13.1348 10.0702 14.1099 10.0702 15.3241C10.0702 16.5382 11.0452 17.5133 12.2594 17.5133ZM3.06469 11.3835C4.27888 11.3835 5.2539 10.4085 5.2539 9.19427C5.2539 7.98009 4.27888 7.00507 3.06469 7.00507C1.8505 7.00507 0.875486 7.98009 0.875486 9.19427C0.875486 10.4085 1.8505 11.3835 3.06469 11.3835ZM12.2594 5.2537C13.4735 5.2537 14.4486 4.2788 14.4486 3.0645C14.4486 1.85031 13.4735 0.875292 12.2594 0.875292C11.0452 0.875292 10.0702 1.85031 10.0702 3.0645C10.0702 4.2788 11.0452 5.2537 12.2594 5.2537Z" fill="black"/>
</svg>
