<svg width="12" height="12" viewBox="0 0 12 12" fill="none" xmlns="http://www.w3.org/2000/svg">
<path d="M5.99991 3.94126C5.71568 4.22549 5.25475 4.22549 4.97052 3.94126C4.68629 3.65703 4.68629 3.1961 4.97052 2.91187L7.02949 0.852801C8.16665 -0.284267 10.0101 -0.284267 11.1472 0.852801C12.2843 1.98996 12.2843 3.8334 11.1472 4.97051L9.08832 7.02939C8.80409 7.31362 8.34316 7.31362 8.05893 7.02939C7.7746 6.74516 7.7746 6.28423 8.05893 5.99991L10.1178 3.94112C10.6863 3.37254 10.6863 2.45073 10.1178 1.88224C9.54923 1.31366 8.62742 1.31366 8.05893 1.88224L5.99991 3.94126ZM6.00009 8.05874C6.28432 7.77451 6.74525 7.77451 7.02949 8.05874C7.31381 8.34306 7.31381 8.8039 7.02949 9.08823L4.97051 11.1472C3.83345 12.2843 1.98992 12.2843 0.852801 11.1472C-0.284267 10.0101 -0.284267 8.1666 0.852801 7.02949L2.91168 4.97061C3.19601 4.68638 3.65684 4.68638 3.94117 4.97061C4.2254 5.25493 4.2254 5.71586 3.94117 6.00009L1.88229 8.05897C1.31371 8.62746 1.31371 9.54927 1.88229 10.1179C2.45077 10.6863 3.37259 10.6863 3.94117 10.1179L6.00009 8.05874ZM8.05897 3.94103C8.3432 4.22526 8.3432 4.68619 8.05897 4.97042L4.97051 8.05865C4.68628 8.34297 4.22535 8.34297 3.94112 8.05865C3.65689 7.77441 3.65689 7.31348 3.94112 7.02925L7.02935 3.94103C7.31367 3.6567 7.77451 3.6567 8.05883 3.94103H8.05897Z" fill="#2873F0"/>
</svg>
