<svg width="17" height="20" viewBox="0 0 17 20" fill="none" xmlns="http://www.w3.org/2000/svg">
<path d="M13.0201 19.5893L13.0217 19.5803C11.3338 19.4578 9.99455 18.042 9.99455 16.3241C9.99455 16.0379 10.0294 15.7582 10.0993 15.491L6.08797 12.7502C5.53169 13.1918 4.82869 13.4592 4.06481 13.4592C2.26678 13.4592 0.8 11.9923 0.8 10.1944C0.8 8.3964 2.26695 6.92962 4.06481 6.92962C4.82841 6.92962 5.53196 7.19765 6.08813 7.63892L10.1052 4.90489C10.0333 4.63679 9.99432 4.35532 9.99432 4.06481C9.99432 2.26678 11.4613 0.800001 13.2591 0.800001C15.0572 0.800001 16.5239 2.26695 16.5239 4.06481C16.5239 5.86284 15.057 7.32962 13.2591 7.32962C12.2065 7.32962 11.2699 6.8259 10.6729 6.05005L6.91878 8.61186C7.18046 9.0812 7.32951 9.6211 7.32951 10.1946C7.32951 10.7704 7.1754 11.3089 6.91231 11.7775L10.673 14.3393C11.27 13.5634 12.2066 13.0596 13.2593 13.0596C15.0573 13.0596 16.5241 14.5266 16.5241 16.3244C16.5241 18.1225 15.0571 19.5893 13.2593 19.5893H13.0201ZM13.2594 18.3133C14.3631 18.3133 15.2486 17.4278 15.2486 16.3241C15.2486 15.2203 14.3631 14.3348 13.2594 14.3348C12.1556 14.3348 11.2702 15.2203 11.2702 16.3241C11.2702 17.4278 12.1556 18.3133 13.2594 18.3133ZM4.06469 12.1835C5.16842 12.1835 6.0539 11.298 6.0539 10.1943C6.0539 9.09054 5.16842 8.20507 4.06469 8.20507C2.96096 8.20507 2.07549 9.09054 2.07549 10.1943C2.07549 11.298 2.96096 12.1835 4.06469 12.1835ZM13.2594 6.0537C14.3631 6.0537 15.2486 5.16834 15.2486 4.0645C15.2486 2.96077 14.3631 2.07529 13.2594 2.07529C12.1556 2.07529 11.2702 2.96077 11.2702 4.0645C11.2702 5.16834 12.1556 6.0537 13.2594 6.0537Z" fill="white" stroke="white" stroke-width="0.4"/>
</svg>
