<svg width="15" height="14" viewBox="0 0 15 14" fill="none" xmlns="http://www.w3.org/2000/svg">
<path d="M13.4588 5.50697C13.3352 5.12677 13.0125 4.85478 12.6169 4.79717L9.79096 4.38655C9.64537 4.36552 9.51952 4.27412 9.4544 4.14194L8.19061 1.58129C8.01369 1.22277 7.65534 1 7.25538 1C6.85552 1 6.49718 1.22276 6.32015 1.58129L5.05626 4.14218C4.99114 4.27418 4.86538 4.36558 4.71961 4.38662L1.8937 4.79724C1.49807 4.85474 1.17536 5.12674 1.05181 5.50704C0.928255 5.88744 1.02939 6.29713 1.31572 6.57619L3.36051 8.56936C3.46596 8.67215 3.514 8.82004 3.48911 8.96508L3.0064 11.7797C2.93879 12.1738 3.0978 12.5647 3.42134 12.7997C3.60414 12.9324 3.81798 13 4.03329 13C4.19901 13 4.36564 12.9599 4.5196 12.879L7.0471 11.5503C7.17754 11.4818 7.33305 11.4819 7.4633 11.5502L9.9908 12.879C10.3448 13.0652 10.7655 13.0348 11.0892 12.7997C11.4127 12.5646 11.5717 12.1737 11.5041 11.7795L11.0214 8.96513C10.9965 8.8199 11.0445 8.67201 11.15 8.56931L13.1949 6.57615C13.4812 6.29709 13.5823 5.88739 13.4588 5.507L13.4588 5.50697ZM12.7791 6.14952L10.7343 8.14269C10.4884 8.38227 10.3763 8.72746 10.4343 9.06587L10.917 11.8803C10.9465 12.0519 10.88 12.2154 10.7391 12.3178C10.5981 12.42 10.4222 12.4327 10.2681 12.3518L7.74065 11.0228C7.43687 10.8633 7.07402 10.8632 6.77014 11.0229L4.24265 12.3518C4.08879 12.4327 3.9127 12.4201 3.77179 12.3178C3.63097 12.2154 3.56446 12.0519 3.59386 11.8804L4.07667 9.0658C4.13463 8.72748 4.02256 8.38229 3.77665 8.14271L1.73187 6.14954C1.60721 6.02801 1.56487 5.8567 1.6187 5.69108C1.67244 5.52554 1.80747 5.41182 1.97971 5.38676L4.80539 4.97614C5.14526 4.92691 5.43886 4.71371 5.5907 4.40569L6.8545 1.84504C6.93157 1.68888 7.08139 1.59573 7.25547 1.59573C7.42955 1.59573 7.57935 1.68878 7.65644 1.84504L8.92014 4.40569C9.07207 4.7138 9.36565 4.927 9.70545 4.97624L12.5314 5.38685C12.7036 5.41193 12.8386 5.52574 12.8924 5.69117C12.9463 5.85688 12.904 6.0282 12.7794 6.14973L12.7791 6.14952Z" fill="#2873F0" stroke="#2873F0"/>
</svg>
