<svg width="15" height="16" viewBox="0 0 15 16" fill="none" xmlns="http://www.w3.org/2000/svg">
<path d="M3.89078 2.5H9.85953C9.92169 2.5 9.98131 2.47531 10.0253 2.43135C10.0692 2.3874 10.0939 2.32779 10.0939 2.26562C10.0939 2.20346 10.0692 2.14385 10.0253 2.0999C9.98131 2.05594 9.92169 2.03125 9.85953 2.03125H3.89078C3.82862 2.03125 3.76901 2.05594 3.72505 2.0999C3.6811 2.14385 3.65641 2.20346 3.65641 2.26562C3.65641 2.32779 3.6811 2.3874 3.72505 2.43135C3.76901 2.47531 3.82862 2.5 3.89078 2.5ZM3.89078 5.3125H9.85953C9.92169 5.3125 9.98131 5.28781 10.0253 5.24385C10.0692 5.1999 10.0939 5.14029 10.0939 5.07812C10.0939 5.01596 10.0692 4.95635 10.0253 4.9124C9.98131 4.86844 9.92169 4.84375 9.85953 4.84375H3.89078C3.82862 4.84375 3.76901 4.86844 3.72505 4.9124C3.6811 4.95635 3.65641 5.01596 3.65641 5.07812C3.65641 5.14029 3.6811 5.1999 3.72505 5.24385C3.76901 5.28781 3.82862 5.3125 3.89078 5.3125ZM3.89078 3.90625H9.85953C9.92169 3.90625 9.98131 3.88156 10.0253 3.8376C10.0692 3.79365 10.0939 3.73404 10.0939 3.67188C10.0939 3.60971 10.0692 3.5501 10.0253 3.50615C9.98131 3.46219 9.92169 3.4375 9.85953 3.4375H3.89078C3.82862 3.4375 3.76901 3.46219 3.72505 3.50615C3.6811 3.5501 3.65641 3.60971 3.65641 3.67188C3.65641 3.73404 3.6811 3.79365 3.72505 3.8376C3.76901 3.88156 3.82862 3.90625 3.89078 3.90625ZM14.6692 3.01916L14.3378 2.68772C14.2059 2.55586 14.0271 2.48179 13.8406 2.48179C13.6541 2.48179 13.4753 2.55586 13.3434 2.68772L12.2502 3.78094V1.17188C12.2498 0.861181 12.1262 0.563312 11.9065 0.343618C11.6868 0.123924 11.389 0.000347394 11.0783 0L2.67203 0C2.36134 0.000347394 2.06347 0.123924 1.84377 0.343618C1.62408 0.563312 1.5005 0.861181 1.50016 1.17188V13.3438H0.234375C0.172215 13.3438 0.112601 13.3684 0.0686469 13.4124C0.0246931 13.4564 0 13.516 0 13.5781V14.8281C0.000347394 15.1388 0.123924 15.4367 0.343618 15.6564C0.563312 15.8761 0.861181 15.9997 1.17188 16H11.1094C11.1179 16 11.1264 15.9995 11.1348 15.9986C11.4353 15.9837 11.7187 15.8539 11.9263 15.6361C12.1338 15.4183 12.2498 15.129 12.2502 14.8281V6.43266L14.6692 4.01359C14.8009 3.88162 14.8748 3.7028 14.8748 3.51638C14.8748 3.32995 14.8009 3.15113 14.6692 3.01916ZM1.17188 15.5312C0.985461 15.531 0.806743 15.4569 0.674928 15.3251C0.543113 15.1933 0.468965 15.0145 0.46875 14.8281V13.8125H9.8125V14.7812C9.81231 15.0532 9.90359 15.3174 10.0717 15.5312H1.17188ZM11.7814 13.5751C11.7814 13.5761 11.7812 13.5771 11.7812 13.5781V14.7812C11.7812 14.9802 11.7022 15.1709 11.5616 15.3116C11.4209 15.4522 11.2302 15.5312 11.0312 15.5312C10.8323 15.5312 10.6416 15.4522 10.5009 15.3116C10.3603 15.1709 10.2812 14.9802 10.2812 14.7812V13.5781C10.2812 13.516 10.2566 13.4564 10.2126 13.4124C10.1686 13.3684 10.109 13.3438 10.0469 13.3438C10.0416 13.3438 10.0364 13.3442 10.0312 13.3445C10.0261 13.3442 10.0209 13.3438 10.0156 13.3438H1.96891V1.17188C1.96912 0.985461 2.04327 0.806743 2.17508 0.674928C2.3069 0.543113 2.48562 0.468965 2.67203 0.46875H11.0783C11.2647 0.468965 11.4434 0.543113 11.5752 0.674928C11.707 0.806743 11.7812 0.985461 11.7814 1.17188V4.24969L7.43734 8.59375H3.89078C3.82862 8.59375 3.76901 8.61844 3.72505 8.6624C3.6811 8.70635 3.65641 8.76596 3.65641 8.82812C3.65641 8.89029 3.6811 8.9499 3.72505 8.99385C3.76901 9.03781 3.82862 9.0625 3.89078 9.0625H6.96859L6.05134 9.97978C6.04524 9.98592 6.03948 9.99239 6.03409 9.99916L6.03347 10H3.89078C3.82862 10 3.76901 10.0247 3.72505 10.0686C3.6811 10.1126 3.65641 10.1722 3.65641 10.2344C3.65641 10.2965 3.6811 10.3561 3.72505 10.4001C3.76901 10.4441 3.82862 10.4688 3.89078 10.4688H5.86225L5.54975 11.4062H3.89078C3.82862 11.4062 3.76901 11.4309 3.72505 11.4749C3.6811 11.5189 3.65641 11.5785 3.65641 11.6406C3.65641 11.7028 3.6811 11.7624 3.72505 11.8064C3.76901 11.8503 3.82862 11.875 3.89078 11.875H5.64078C5.65771 11.875 5.67459 11.8731 5.69112 11.8694C5.72573 11.874 5.76094 11.8706 5.794 11.8594L7.28556 11.3622C7.28713 11.3617 7.28853 11.361 7.29003 11.3604C7.30397 11.3555 7.31741 11.3492 7.33016 11.3417C7.33234 11.3404 7.33459 11.3392 7.33675 11.3378C7.34206 11.3344 7.34725 11.3307 7.35238 11.3269C7.35419 11.3255 7.35612 11.3242 7.35787 11.3228C7.36462 11.3174 7.37107 11.3117 7.37719 11.3056L8.21406 10.4688H9.85953C9.92169 10.4688 9.98131 10.4441 10.0253 10.4001C10.0692 10.3561 10.0939 10.2965 10.0939 10.2344C10.0939 10.1722 10.0692 10.1126 10.0253 10.0686C9.98131 10.0247 9.92169 10 9.85953 10H8.68281L11.7814 6.90141V13.5751ZM6.3195 10.5794L6.77753 11.0374L6.09047 11.2665L6.3195 10.5794ZM7.21147 10.8084L6.54856 10.1455L12.181 4.51303L12.182 4.51209L12.7945 3.89953L13.4574 4.56244L7.21147 10.8084ZM14.3377 3.68213L13.7889 4.23094L13.126 3.56803L13.6749 3.01916C13.6967 2.99739 13.7225 2.98012 13.7509 2.96834C13.7794 2.95656 13.8098 2.9505 13.8406 2.9505C13.8714 2.9505 13.9019 2.95656 13.9303 2.96834C13.9587 2.98012 13.9846 2.99739 14.0063 3.01916L14.3378 3.35063C14.3817 3.39461 14.4063 3.45421 14.4063 3.51634C14.4063 3.57848 14.3817 3.63808 14.3378 3.68206L14.3377 3.68213Z" fill="black"/>
</svg>
