<svg width="22" height="11" viewBox="0 0 22 11" fill="none" xmlns="http://www.w3.org/2000/svg">
<g clip-path="url(#clip0_310_3234)">
<path d="M16.3599 1.22989V7.41418C16.3603 7.48003 16.3478 7.54531 16.3229 7.60628C16.298 7.66724 16.2613 7.72268 16.2149 7.7694C16.1685 7.81612 16.1133 7.8532 16.0525 7.8785C15.9917 7.90381 15.9266 7.91683 15.8607 7.91683H6.89279C6.58601 7.61052 6.17022 7.43848 5.7367 7.43848C5.30319 7.43848 4.88739 7.61052 4.58062 7.91683H1.46074C1.3949 7.91683 1.3297 7.90381 1.26891 7.8785C1.20812 7.8532 1.15293 7.81612 1.10653 7.7694C1.06014 7.72268 1.02344 7.66724 0.998555 7.60628C0.973673 7.54531 0.961103 7.48003 0.96156 7.41418V1.22989C0.96156 1.0975 1.01415 0.970535 1.10776 0.87692C1.20138 0.783306 1.32835 0.730713 1.46074 0.730713H15.8607C15.9931 0.730713 16.1201 0.783306 16.2137 0.87692C16.3073 0.970535 16.3599 1.0975 16.3599 1.22989ZM16.554 8.36748V9.32424H7.36077C7.37471 9.24294 7.38167 9.1606 7.38157 9.07812C7.38233 8.82967 7.32661 8.58431 7.21864 8.36055L16.554 8.36748ZM20.4989 3.5698H17.6668C17.588 3.5698 17.51 3.58531 17.4373 3.61545C17.3645 3.64559 17.2984 3.68977 17.2427 3.74545C17.187 3.80114 17.1428 3.86725 17.1127 3.94001C17.0826 4.01277 17.0671 4.09076 17.0671 4.16951V8.07629C17.2144 7.8865 17.4016 7.73133 17.6154 7.62173C17.8292 7.51212 18.0645 7.45074 18.3046 7.44192C18.5722 7.43119 18.8383 7.48615 19.0797 7.60201C19.3211 7.71787 19.5305 7.8911 19.6895 8.10655C19.8486 8.322 19.9524 8.57312 19.992 8.83796C20.0315 9.1028 20.0056 9.37331 19.9165 9.62583H20.1939L21.2338 9.4213C21.3626 9.39635 21.4787 9.32736 21.5622 9.22616C21.6457 9.12496 21.6914 8.99786 21.6914 8.86666V5.92011L21.057 3.98232C21.0178 3.86446 20.9431 3.76158 20.8433 3.68775C20.7434 3.61392 20.6231 3.57273 20.4989 3.5698ZM18.7449 5.61159V4.43643C18.7449 4.32579 18.7886 4.21962 18.8665 4.14106C18.9444 4.06249 19.0502 4.0179 19.1608 4.01698H20.0171C20.1507 4.01745 20.2805 4.0623 20.3859 4.1445C20.4913 4.22669 20.5664 4.34157 20.5994 4.4711L20.8525 5.46946C20.8693 5.52269 20.873 5.57919 20.8633 5.63416C20.8536 5.68913 20.8307 5.74094 20.7967 5.78519C20.7627 5.82943 20.7184 5.86481 20.6678 5.8883C20.6172 5.91179 20.5616 5.9227 20.5059 5.92011H19.0499C19.0096 5.92011 18.9696 5.91211 18.9324 5.89656C18.8951 5.88101 18.8613 5.85823 18.833 5.82954C18.8046 5.80084 18.7822 5.7668 18.7671 5.72939C18.752 5.69198 18.7444 5.65194 18.7449 5.61159Z" fill="#878787"/>
<path d="M6.81655 8.36745C6.68846 8.17184 6.5084 8.0158 6.29657 7.91681C6.12298 7.83099 5.9321 7.78594 5.73846 7.78508C5.54472 7.78507 5.35365 7.83017 5.18036 7.91681C4.92533 8.03759 4.71682 8.23849 4.58663 8.48884C4.45645 8.7392 4.41173 9.02528 4.45931 9.30342C4.5135 9.60228 4.67089 9.87262 4.90403 10.0673C5.13717 10.262 5.43126 10.3686 5.73499 10.3686C6.03872 10.3686 6.33281 10.262 6.56595 10.0673C6.79909 9.87262 6.9565 9.60228 7.01068 9.30342C7.02579 9.22222 7.0339 9.13988 7.03494 9.05729C7.02947 8.81122 6.95369 8.57184 6.81655 8.36745ZM5.73846 9.62234C5.63122 9.62302 5.52619 9.5918 5.43673 9.53265C5.34727 9.47349 5.27741 9.38907 5.23606 9.29011C5.1947 9.19116 5.1837 9.08214 5.20446 8.97692C5.22521 8.8717 5.27678 8.77502 5.35261 8.69918C5.42845 8.62334 5.52513 8.57177 5.63036 8.55101C5.73558 8.53026 5.84459 8.54126 5.94355 8.58262C6.0425 8.62398 6.12693 8.69383 6.18608 8.78329C6.24524 8.87275 6.27646 8.97778 6.27577 9.08502C6.27577 9.22753 6.21916 9.3642 6.1184 9.46496C6.01763 9.56573 5.88097 9.62234 5.73846 9.62234ZM18.3532 7.78508C18.173 7.79096 17.9959 7.83356 17.8328 7.91027C17.6697 7.98698 17.524 8.09619 17.4046 8.2312C17.2851 8.3662 17.1945 8.52418 17.1383 8.69543C17.082 8.86669 17.0613 9.04762 17.0775 9.22715C17.091 9.36547 17.1286 9.50038 17.1884 9.62581C17.2912 9.85169 17.4568 10.0432 17.6655 10.1775C17.8742 10.3118 18.1171 10.3833 18.3653 10.3833C18.6135 10.3833 18.8564 10.3118 19.0651 10.1775C19.2738 10.0432 19.4394 9.85169 19.5422 9.62581C19.6218 9.45662 19.6632 9.272 19.6635 9.08502C19.6635 8.91343 19.6296 8.74354 19.5636 8.58514C19.4976 8.42674 19.4009 8.28298 19.2791 8.16213C19.1573 8.04128 19.0128 7.94574 18.8538 7.88103C18.6949 7.81631 18.5248 7.7837 18.3532 7.78508ZM18.3532 9.62234C18.2461 9.62234 18.1414 9.59053 18.0524 9.53095C17.9634 9.47138 17.8941 9.38671 17.8532 9.2877C17.8124 9.18868 17.8019 9.07977 17.823 8.97478C17.8442 8.86978 17.896 8.77343 17.972 8.69794C18.048 8.62245 18.1447 8.57123 18.2498 8.55075C18.3549 8.53028 18.4638 8.54149 18.5625 8.58295C18.6613 8.62441 18.7455 8.69426 18.8045 8.78365C18.8635 8.87303 18.8946 8.97792 18.8939 9.08502C18.894 9.22634 18.8383 9.36196 18.739 9.46253C18.6398 9.5631 18.5049 9.62051 18.3636 9.62234H18.3532Z" fill="#878787"/>
</g>
<defs>
<clipPath id="clip0_310_3234">
<rect width="20.7472" height="9.65082" fill="white" transform="translate(0.961548 0.730713)"/>
</clipPath>
</defs>
</svg>
