<svg width="360" height="281" viewBox="0 0 360 281" fill="none" xmlns="http://www.w3.org/2000/svg">
<g clip-path="url(#clip0_4_101)">
<path fill-rule="evenodd" clip-rule="evenodd" d="M720 0H-360V292.98H-359.5V282C-204.258 278.195 -110.787 213.798 -32.994 160.203C-21.7132 152.431 -10.762 144.886 0 137.786C4.2323 134.994 8.43536 132.202 12.6177 129.425C69.0209 91.962 121.659 57 191.5 57C248.493 57 295.126 87.3837 340.732 117.099C347.166 121.291 353.58 125.47 360 129.549C376.427 139.986 392.893 151.417 409.835 163.18C488.38 217.713 577.179 279.365 720 282V0Z" fill="#2873F0"/>
<path fill-rule="evenodd" clip-rule="evenodd" d="M76.6635 89.4582C88.9717 67.7793 96 42.7104 96 16C96 10.5946 95.7122 5.25645 95.151 0L-201.151 0C-201.712 5.25645 -202 10.5946 -202 16C-202 98.2904 -135.29 165 -53 165C-48.2856 165 -43.6224 164.781 -39.0199 164.353C-37.0004 162.963 -34.992 161.58 -32.994 160.203L-32.9932 160.202C-21.7127 152.431 -10.7618 144.886 0 137.786C4.2323 134.994 8.43536 132.202 12.6177 129.425C34.1262 115.139 55.0872 101.217 76.6635 89.4582Z" fill="#538FF3"/>
</g>
<defs>
<clipPath id="clip0_4_101">
<rect width="360" height="281" fill="white"/>
</clipPath>
</defs>
</svg>
