<svg width="180" height="217" viewBox="0 0 180 217" fill="none" xmlns="http://www.w3.org/2000/svg">
<path opacity="0.3" d="M90.9622 3.3845C77.5784 9.50321 70.5824 23.8714 62.2248 35.936C55.3254 45.8767 46.9556 54.725 37.3982 62.1817C30.2862 67.7245 22.5225 72.4899 16.0769 78.7814C7.74195 86.7105 2.25631 97.1399 0.462468 108.468C-0.391623 114.099 -0.0601784 119.844 1.43581 125.341C2.93179 130.838 5.55972 135.966 9.15322 140.4C16.1782 148.664 26.4044 153.358 35.5441 159.246C44.297 164.881 52.2105 171.709 59.0526 179.531C63.6153 184.772 67.7434 190.43 72.4074 195.526C84.7917 208.844 104.563 219.037 123.277 216.416C158.446 211.507 183.519 174.032 179.579 139.968C177.754 124.132 171.033 109.058 161.922 95.9138C155.419 86.5126 147.553 77.7736 143.643 67.0335C139.37 55.2855 140.253 42.3427 137.979 30.0477C133.721 7.35807 113.442 -6.86614 90.9622 3.3845Z" fill="#037EE6"/>
</svg>
