<svg width="360" height="281" viewBox="0 0 360 281" fill="none" xmlns="http://www.w3.org/2000/svg">
<g clip-path="url(#clip0_4_100)">
<path fill-rule="evenodd" clip-rule="evenodd" d="M1080 0H0V292.98H0.5V282C155.742 278.195 249.213 213.798 327.006 160.203C338.287 152.431 349.238 144.886 360 137.786C364.232 134.994 368.435 132.202 372.618 129.425C429.021 91.962 481.659 57 551.5 57C608.493 57 655.126 87.3837 700.732 117.099C707.166 121.291 713.58 125.47 720 129.549C736.427 139.986 752.893 151.417 769.835 163.18C848.38 217.713 937.179 279.365 1080 282V0Z" fill="#2873F0"/>
<path fill-rule="evenodd" clip-rule="evenodd" d="M436.664 89.4582C448.972 67.7793 456 42.7104 456 16C456 10.5946 455.712 5.25645 455.151 0L158.849 0C158.288 5.25645 158 10.5946 158 16C158 98.2904 224.71 165 307 165C311.714 165 316.378 164.781 320.98 164.353C323 162.963 325.008 161.58 327.006 160.203L327.007 160.202C338.287 152.431 349.238 144.886 360 137.786C364.232 134.994 368.435 132.202 372.618 129.425C394.126 115.139 415.087 101.217 436.664 89.4582Z" fill="#538FF3"/>
</g>
<defs>
<clipPath id="clip0_4_100">
<rect width="360" height="281" fill="white"/>
</clipPath>
</defs>
</svg>
